<?xml version="1.0" encoding="UTF-8"?>
<svg id="Layer_1" xmlns="http://www.w3.org/2000/svg" version="1.1" viewBox="0 0 32 32">
  <!-- Generator: Adobe Illustrator 29.6.0, SVG Export Plug-In . SVG Version: 2.1.1 Build 207)  -->
  <defs>
    <style>
      .st0 {
        fill: #003f87;
      }

      .st1 {
        display: none;
      }

      .st2 {
        fill: #f5f5f5;
      }
    </style>
  </defs>
  <g>
    <circle class="st2" cx="16" cy="16" r="16"/>
    <g class="st1">
      <path class="st0" d="M13.4,25.1c-.1-.1-.6,0-.6-.3s.6-.6.7-.6.4,0,.4,0,0-.3.2-.4c.2-.3,1-.6,1.3-.9.3-.3.1,0,.1-.1-.6.1-1.2.2-1.7.2-.3,0-.7.2-1.1.2-.2,0-1-.4-1-.6,0-.4.3-1,.3-1.4s-.3-1.5-.4-1.6c-.5,0-1-.1-1.5-.2-.2.2-.1.4-.5.4s-.7,0-1.1-.2c-.4-.2-1,0-1.3-.1,0,0,.5.6.6.6.2.1.7,0,.7.3.2,0,.4-.2.6,0,.2.2.3.5.4.5,0,.1.3.6.1.7-.4-.1-.8-.2-1.2-.3s-.1-.1-.2-.1c-.4-.1-.4,0-.8-.3-.4-.4-.9-.8-1.3-1.2-.4-.4-.6-.5-.4-1h.1c-.2.6.4.4.2,0s-.2-.1-.2-.2c.9-.1,1.7.2,2.6,0,0,0,0,0,0,0,0-.2-.4-.6-.5-.9-.2-.5,0-.8,0-1.3l-2.2-2.1c0,0-.5.3-.6.3-.2.1-.4.4-.6.5s-.9-.1-1,0,0,0,0,.1c0,.1-.5.2-.6.1,0,.1-.1.2-.3.2s-.4-.2-.4-.3c-.1-.1-.2-.4-.5-.4l.2-.4c-.2.2-.7.3-.9,0s-.3-.4,0-.4h.1c0-.1-.1,0-.2-.2s-.2-.4-.1-.5c.2,0,.7,0,.6.2,0,.3-.3.2-.4.1s0,0,0,0c.1.2.4,0,.4.2h.1c0,0,0-.4,0-.4.2,0,.4-.2.5-.4,0-.2,0-.3.1-.4s.5-.3.6-.4c.2-.2.4-.4.5-.7,0,0-.5.4-.6.3l1.2-.8c.2.1-.2.2-.2.3.2,0,.5-.1.5-.3s0-.2.2-.4.5-.4.5-.4c.2-.1.4,0,.5,0,.2,0,.5-.6.4.2.2,0,.5-.1.6,0h-.1c0,.1,0,.2,0,.2v.2s-.7,0-.7,0c.3.2.7.3,1,.5s.3.4.6.4c0,0-.4-.2-.4-.3-.2-.1-.5-.3-.7-.4s-.2,0-.2-.2c.3.1.7-.1,1-.1.4,0,.5,0,.9-.1s.5-.1.5,0v.2c.3,0,.6.2.9.2,0,.2,0,.2-.2.3h.1v.2c.1.1.6-.5.6-.2,0,.3-.3.6-.3.7,0,0-.3-.1-.2,0,.1,0,.5,0,.6,0,.2.2-.3.1-.4.2.8,0,1.1.2.6.9.1,0,.3-.2.4-.4,0-.2,0-.5.1-.6s.1,0,.2,0c.3,0,.6,0,.9,0s.3,0,.4,0c0-.2-.2-.2-.4-.2s-.2,0-.2,0-.2-.1-.3-.1-.3.2-.6.1,0,0-.1-.1c0,0-.3.1-.4.1s-.5-.3-.3-.5.4-.2.4-.2c.3,0,.3.3.4.3s0-.4,0-.4.2.2.2.3.5.4.6.2c.1-.2-.2-.5-.1-.9s.3,0,.5-.2c0-.1-.3-.1-.4-.2s-.2-.2-.3-.3-.5-.3-.6-.4,0,0,0-.1h.2c0-.2,0-.4,0-.6,0-.3.7-.7,1-.7v.2c.2,0,.3,0,.5,0,.3,0,.6,0,.9,0,.3,0,.2.1.3.1,0,0,.2-.1.3-.1s.1.1.2.1c.2,0,.3,0,.7,0,.1,0,.3.2.4.2,0,0,.1,0,.2,0,.3,0,.7.6.8.9.2,0,.5,0,.7.1.4.2.2.1.6.2.1,0,.2.1.3.1,0,0,.2-.2.3-.2.2,0,.5,0,.7,0s0-.2.2-.2.1,0,.2,0c.4,0,.8,0,1.1,0s.7.2.9.2.3-.1.4-.2c.4-.1,1.2-.2,1.6-.1s.4,0,.6,0,.4-.1.5,0c0,.1,0,.2-.2.2-.4,0-.7,0-1,0s-.2,0-.3,0c-.4,0-.9,0-1.3.1,0,0,0,0,.1,0,.6,0,1.1,0,1.7,0,.2,0,.7-.1.8,0,0,.1,0,.1-.1.2-.9,0-1.8,0-2.7,0-.3,0-.7-.2-1-.2-.3,0-1,0-1.3,0-.3,0,0,.1-.2.1s-.2,0-.2,0-.6,0-.7,0c-.1,0-.3.2-.5.3-.2,0-.5,0-.8,0-.1.5-.7.2-1,0s-.1-.1-.2-.2c-.1,0-1-.4-1-.5h.1c-.1-.1-.1,0-.3,0-.2,0-.4-.2-.6-.2.4.3.7.6.6,1.2,0,.6-.5.5-.6.8l.7-.4c0,0,.2.3.3.4s.4.3.4.3c.1,0,.2,0,.3,0,.2,0,.5.2.6.2s.4,0,.6,0,0,.2.2.2.6-.1.6,0c0,.1,0,.2-.1.2s-.6,0-.8,0-.3-.1-.5-.1-.4,0-.6,0c0,.2,0,.4,0,.6l.2-.4c0-.2.3-.1.3,0s-.2.4-.2.5c.2,0,.1-.3.3-.3.4-.1.9,0,1.4,0,0,.4,0,.7,0,1.1,0,.4,0,.1,0,.2,0-.3-.2-1,0-1.3s.5-.2.6-.2c1-.2,2,0,2.8.6.8.6.9.9,2,1.1,1.5.3,2.2-.6,3.5-.5.4,0,.9.3,1.3.3.6,0,1.5-.2,2.2-.2.1,0,.5,0,.6.2s.2.3.3.4.3.2.3.3v.2l-.4-.2c0,.1,0,.3-.2.3v-.4s-.4,0-.4,0c0,0,.1,0,.2.2s0,.1,0,.2l-.3-.2c.1.2.2.4,0,.6s-.1-.1-.2-.2c-.1-.2-.2-.3-.4-.2,0,0,.2.1.2.2s0,.1,0,.2c0,.2-.2-.2-.3-.1.2.3,0,.4-.2.1,0,.1,0,.2,0,.3,0,.1-.3.2-.3.2,0,0,0,0,0,0s0-.4,0-.4c0,.2-.2.5-.4.3l-.2.2c-.1,0,0-.2,0-.3-.1-.2-1.2.2-1.4.2,0,0,.2.1,0,.2h-.3c0-.1,0,0,0,0h-.3s0,.1,0,.1l-.3-.2s0,0,0,0c-.2,0-.5-.2-.7-.2h-.7c0,.1.6.1.6.1h0c0,.1-.6.1-.6.1,0,0-.8-.3-1-.4s-.3-.3-.4-.2v.2c0,0-.1,0-.1,0,0,0,.1,0,.2.2,0,.1,0,.2,0,.1l-.5-.3-.4-.4v.9c0,.2-.2.4-.3.5-.4.4-1.3,1-1.8,1.2s-.6,0-.6.4c0,.4.3,1.2.4,1.6.1.4.3.3,0,.5-.3.3-.8.2-1.1.2s-.6,0-.7,0-.1-.1-.2-.1-.2,0-.3,0c0,0,0,.5,0,.5,0,.3,0,.5,0,.8-.1.3-.6.4-.9.6-.4.3-1.1.8-1.4,1.2s-.6.8-.6.8c-.2,0-.6,0-.6,0v.4c0,0-.7.2-.7.2h-.4,0ZM11.1,9.2h.8v.3c-.1,0,0,.3,0,.3h-.2c.3.3.1.5.2.6,0,.1.2.2.3.2,0,0,.3,0,.4,0s.2,0,.3,0,0,0,0,0c-.2-.2-.6,0-.8-.3.2-.2.5,0,.8,0,0-.2-.8-.1-.8-.2h0c0-.1.5-.2.5-.2l-.5-.3c0,0-.1-.2-.1-.3s.2,0,.2-.2c-.3,0-.6-.2-.9-.1,0-.4.7,0,.9-.1v-.2c-.2-.1,0,0-.1,0,0,.1-.5-.1-.7,0-.2,0-.3.4-.2.4h0s0,0,0,0ZM4.9,11c.5,0,.7-.3.8-.7-.3,0-.3.4-.4.6h0c-.1-.2-.3.2-.3.2h0ZM16.9,10.3h.6c0-.1-.2,0-.3,0s-.3,0-.3,0h0ZM4.9,11.3s-.1.1-.2,0c-.2-.2,0-.4,0-.6-.2.2-.1.6,0,.8,0,.1-.3.3-.4.4-.5.5-1.1,1.3-1.6,1.6-.5.3-.3,0-.3,0-.2,0-.3.3-.2.4,0,0,.3-.2.4-.2s-.2.2-.2.2c-.1.2,0,.8.3.7-.3-.1,0-.4-.2-.6h0c.2,0,.1-.2.2-.3s.3-.4.4-.4c.6-.6,1.2-1.1,1.8-1.7.1-.2.1-.3.1-.5-.1,0-.1,0-.1,0h0s0,0,0,0ZM13.4,11c0,0,0,0,0-.1-.1,0-.7,0-.9-.1,0,0,.2.1.2.1.1,0,.3,0,.4,0h-.1c0,.3.3.3.2.5.3,0,0-.3,0-.4h.2ZM7.8,12.1c-.2,0-.5-.2-.6-.3s-.3-.2-.4-.3-.7-.4-.8-.4-.2,0-.3,0,.2.1.2.3c0,0-.6-.3-.4.1.2.4.5,0,.8,0,.3,0,.8.4.9.4s0,0,.2,0c.2,0,.4.4.6.2h0s0,0,0,0ZM13.1,11.4c-.2-.2-.3-.2-.6-.2l.2.3c-.2.4-.4-.5-.8-.2v.3c.1,0,.3,0,.3,0,.2.1.3.2.5.2.1,0,.1-.1.1-.2,0,0,.3.1.3,0h0ZM4.2,11.3l-.4.2c.2.2.4,0,.4-.2ZM3.4,12.5h0c.1,0,.5-.4.5-.5,0-.2-.2,0-.3,0s0-.1-.2-.2v.2c0,0,.2,0,.3,0s0,0,0,0c0,.2-.4.4-.5.5h0ZM9.3,11.9c-.5,0-1,.3-1.4.4-.5.2-.1,0-.2.1-.4.2-.8.3-1.1.6l2.7-1.1h0s0,0,0,0ZM13.3,12.2c0,0-.1-.2-.2-.3h-.4c.1.2.1.4.3.5s.4.3.5.4.2.2.2.1v-.5c-.2,0-.3-.2-.4-.3h0,0ZM5.8,12.1c-.2,0-.2.2-.3.4,0,0,.3-.3.3-.4ZM14.7,12.3c0,0-.6.2-.7.2s0-.2,0-.1c-.2,0-.2.6,0,.6l.6-.4c0,0,.1,0,.1.1,0,.1-.5.4-.6.5s-.2.4-.2.6c-.2.4-.6,1.2-.5,1.6s0,.3.1.4.2.6.3.6h.4c0-.3-.3-.1-.3-.5,0-.3.2-.2.2-.3,0-.3-.4,0-.3.2h0c-.2,0,0-.6.1-.7.1-.2.6-.2.5-.6-.2,0-.2.2-.3.4-.2.3-.2.1-.2-.1s.2-.5.2-.5c0,0,.5,0,.6-.1,0,0-.3,0-.3,0h0c0-.3.6-.3.6-.4.1-.3-.4,0-.5,0s-.1,0,0,0c.2-.3.6-.3.9-.5,0,0-.3,0-.3,0s-.4.3-.4.1.6-.6.8-.6c0,0-.2-.1-.2-.2s0-.2,0-.2h0ZM10.2,15.2c0-.3,0-.7,0-1,0,0,0,.1-.1.2,0,.2,0,1-.2.9h0c.2-.4,0-.8.1-1.2s.3-.5.4-.7l-.3.3c-.4.4-.2.9-.3,1.3s-.4.4-.3.6.2.4.3.6,0,.3,0,.4.2,0,.3.2c.2.2.5.8.7.3s.2-.8.2-1.3c0-.5-.1-.6.1-.5.3.2,0,.9,0,1.1,0,.2,0,.4,0,.5h1.1c-.1,0-1.3,0-1-.3.3-.4.2,0,.2-.4,0-.9-.2-1.8-.2-2.7s0-.2,0-.2-.1-.8-.2-.8c-.1,0-.2.1-.2.2l.2,2h-.1c0,.1-.2-.4-.2-.4,0,0,0,0-.1,0,0,.1.2.4.2.6,0,.2-.2.8-.3,1.1,0,.3,0,.7-.1.7s0-.6-.2-.8c-.2,0,0,.2-.2.2s-.3,0-.3-.2c0-.2.4-.5.5-.8h0s0,0,0,0ZM10.1,12.7h-.6c.2.1.4.1.5.2,0,0,0-.2,0-.2h0ZM8.4,12.8c0,0-.6.2-.6.3l.7.3-.3-.3h.2c0-.1,0-.2,0-.3ZM17.1,15.9v-.6c.1,0,0,0,0,0,.1.3,0,.6,0,.9h-1.2s-.2-1.1-.2-1.1h0c0-.1.2-.1.2-.1,0-.2-.4-.3-.5-.4-.1-.2,0-.5-.1-.6,0,.4,0,.7.1,1.1s0,.8,0,1.2c0,.4,0,.1,0,.2,0,0,0,0,0,0,0,0,0-.2,0-.3,0-.4-.1-.8-.2-1.2s0-.2,0-.1c.1.2,0,.6.1.8,0,.2.2.6.1.9.5,0,.9,0,1.4-.2l.2.3c.1,0,0-.6,0-.7,0-.8-.2-1.5-.2-2.3s0-.4,0-.6h-.2c.2.3.1.7.2,1,0,.1.1.5,0,.6-.2,0-.2,0-.3.2h.2s0,0,0,0l-.6.5-.5-.2c0,.1.5.3.4.5,0,0-.1,0-.1.1,0,.2.4.3.5.2h0s0,0,0,0ZM19,14.6c-.2,0-.2.3-.3.5s-.1-.1-.1-.2c0-.5.2-.6.3-.9,0-.2-.2-.3-.3-.4s-.2-.5-.3-.2c-.1.4.4.5.4.8,0,.2-.1.3-.2.5s0,.4,0,.5c0,.1-.3.4-.3.6s0,.4,0,.6-.2.2-.3.3c-.3.5,0,.6.2,1,.1.4,0,.4.2.3,0-.2-.2-.4-.2-.6,0-.5.7-.9.8-1.5s0,0-.1,0c-.1,0-.2.3-.4,0,.2-.5.7-.7.6-1.3h0s0,0,0,0ZM4,14.5s0-.1.1-.2c.3-.3.8-.4,1.1-.7s0,0,0-.1c0,0,0,0-.1,0-.2,0-.4.2-.6.3-.6.2-1.2.4-1.8.6l-.2.4c.2.2.3-.1.5-.1s.2,0,.3.1.2,0,.3-.1.2,0,.3,0h0s0,0,0,0ZM8.2,14.2c-.1-.2-.4-.2-.5-.2s-.3-.4-.4-.5h-.2c.2.5.5.8,1.1.8h0s0,0,0,0ZM12.2,16.1h.6s0,.2,0,.2-.8,0-.9,0c-.3-.1,0-1,0-1h.2c0,.1-.2-.3-.2-.3,0,0-.2,0-.2-.1,0-.2,0-.5-.1-.7h-.1s.3,2.3.3,2.3c.4,0,.8,0,1.3,0,0-.2,0-.3,0-.5s0-.2,0-.4c0-.3-.3-.5-.3-.7s.3-.2.3-.4,0-.4,0-.6c0,0,.2,0,.3,0,0,0-.3,0-.4,0-.2,0-.2-.1-.4,0s0,.2-.3.2-.2-.1-.3-.1-.2,0-.3-.1c-.1.1-.3.3-.2.4h1.4c0,0,0,.2,0,.4,0,.3-.3.3-.3.6h-.2c-.1-.3.3-.3.2-.6,0-.3-.3,0-.4.1h-.2c0,0-.2,0-.1.2s0,0,0,.1c0,.1,0,.3.1.4s.5,0,.6.2c-.1.3-.3.3-.6.2,0,.2,0,.4,0,.5h0s0,0,0,0ZM4.5,14.4c.5,0,.9-.4,1.3-.6,0-.1-.2,0-.3,0l-1,.6h0ZM15.4,15.4v-.6s-.1,0-.1-.2c-.1-.3.1-.6.2-.9s0,0,0,0l-.8,2.1c0,0,.2,0,.3,0s.3.2.3.2c0,.3,0,.6.4.6,0,0,0-.4,0-.5-.1-.3-.7-.5-.5-1s.3.5.4.3h0s0,0,0,0ZM17.2,13.8c-.5,0-.9,0-1.4,0,0,.2,0,.5,0,.6s.4.3.5.3,0,.1.1.1.3.2.3.2l.3-.3h-.2c-.1-.2-.2-.2-.4,0h0c0-.1-.5-.4-.5-.4s0-.5,0-.5c.3,0,.8,0,1.1,0s.1,0,0,0h0s0,0,0,0ZM29.4,14.3c-.5,0-1,.2-1.5.2-.8,0-1.3-.6-2.3-.3-1,.3-1.4.5-2.6.5,0,0-.2,0-.1,0,.5.2,1,.3,1.5,0s.5-.3.9-.1v-.2c.7-.3,1.4.4,2.2.4l-1-.4h0c.6,0,1.1.1,1.7,0l1.2-.2h0s0,0,0,0ZM18,15.8c0-.3,0-.5,0-.8,0-.3,0-.2,0-.2,0,.3,0,.7,0,1s0,.1,0,0h0ZM8.6,16.4c0,0,0,0,0,0,0,.1,0,.3-.1.4.4,0,.6.5.9.4,0-.2-.2-.2-.4-.3-.2-.1-.2-.4-.4-.6h0s0,0,0,0ZM13.5,16.7c0,0,0,0-.1,0,0,.2.1.5.2.8l.2.3-.3-1.2h0ZM13.5,18l-.4-.8h-.2c0,0,.3.7.4.9h.1ZM12.6,17.9c.1-.3-.4-.5-.6-.5s-.7-.2-.7,0,.2.6.2.7c0,0,.1.1.3.1,0-.2-.1-.3-.1-.5.4,0,.6.4,1,.2h0s0,0,0,0ZM14.4,18.1v-.4c-.1.1-.3.3-.3.4s.2.2.2.2c0,0,.4-.3.3-.3,0,0-.2-.4-.3-.4,0,0,0,.5,0,.4h0s0,0,0,0ZM10.7,18.7c0-.3-.3-.4-.5-.6-.1-.1-.2-.2-.3-.3h-.8c0,.2.2.2.3.2,0,0,.2,0,.2,0,.2,0,.6.9,1,.8h0s0,0,0,0ZM16.3,21.1v-.6h.3c0-.2.4-.2.7-.2.3,0,.5,0,.5,0h0c-.3-.1-.5-.2-.8-.1s-.5,0-.5,0c-.2,0-.3.4-.5.5-.2,0-.3,0-.4,0s-.2.5-.4.5c-.3,0,0-.3.1-.3,0,0,0-.3.1-.3.1,0,.3,0,.4,0s.3-.4.4-.5.6,0,.8-.1c0-.2.2-.4.2-.6,0-.2-.1-.3-.1-.5,0-.2.2-.4.1-.7l-1.7.9c-.3,0-.2.1-.3.2s-.2.1-.3.1c-.2,0-.1-.1-.4,0-.5.2-.8.7-1.3.8l-.2,1.7v.3c.5,0,1-.1,1.5-.3.1,0,.3-.2.4-.2.2,0,.4.1.4-.3h-.5s0-.2,0-.2h1.1v-.3s.3,0,.3,0h0s0,0,0,0ZM14.3,19.4c0-.4,0-.9-.3-1.1,0,.2,0,.3-.2.3l.6.8h0ZM9.4,19.1c.1-.1-.2-.3-.3-.3-.3,0-.3.2-.5.2-.2,0-1,0-1,0,.2,0,1.8.1,1.9,0h0ZM12.1,18.8c0,0-.1,0-.2,0-.3.3.1,1.2.2,1.5.2-.4,0-.8.1-1.3-.1,0-.1.1-.1.2-.2,0-.2,0-.1-.2s.2-.2.1-.3h0s0,0,0,0ZM14.8,19.2c.1,0,.5-.1.3-.3-.2,0-.3.2-.3.3ZM14.1,19.5s-.3-.5-.3-.6,0,0-.1,0v.5c0,0,.3,0,.2.2s-.2,0-.2,0c-.1,0-.6.4-.5.5.4,0,.7-.3,1-.5h0ZM18.8,19c0,0-.1,0-.2.1s-.1.5-.2.6c0,.2.6,0,.6-.2,0,0-.2-.6-.3-.6h0ZM19.2,20c.3,0,.5-.1.4-.5l-.4.5ZM12.3,22.5c-.1-.5.2-1,.1-1.5l-.3,1v.5s.2,0,.2,0h0ZM16.7,21h-.1c0,.2,0,.4-.3.3,0,.2.2.3.3.2v-.5c.1,0,.1,0,.1,0ZM12.7,22.1c-.2,0-.3.2-.3.3,0,0,.2,0,.3,0v-.3Z"/>
      <path class="st0" d="M10.3,6.9c.1.1.1.4.3.5s.3,0,.5,0c0,.2-.2.2-.3.2,0,.1.3,0,.4.1s-.2.1-.2.1c0,0,.1,0,.2.1.1.1,0,.3,0,.4,0,0,.4-.2.5-.2s.2,0,.2,0c-.1,0-.3.1-.4.2s0,.1-.1.2-.1,0-.1,0,0,.3-.2.3-.2,0-.1,0l.2-.4c-.1,0-.3.2-.3.3s-.2.4-.2.5c0,0-.1,0-.2,0s-.2.1-.3.1c0,0-.2-.3-.3-.4s-.3,0-.3,0v-.7c0,0,0,0,.2,0,.3,0,0,.2,0,.3,0,0,0,.2,0,.3h.1v-.2s.2,0,.2,0v.2h.2s0,0,0,0v.2c0,.2.4-.1.5-.2,0-.2,0-.4-.2-.5-.3,0,0,.4-.1.6l-.3-.3c.2-.2,0-.3,0-.5.3,0,.4,0,.5-.3-.3-.1-1.1.6-1.3.5s-.2-.3-.2-.5c.1,0,.2.3.3.3l.7-.4c-.2,0-.7-.2-.8-.1-.1,0,0,.2-.1.1s0-.1,0-.2c0-.1.3,0,.4-.1s.2-.2.3-.2c.2,0,.3-.2.5-.3h.5s0,0,0,0ZM9.2,7.5c.2,0,.4.2.6,0,.1,0,0-.3-.2-.3l-.4.3h0Z"/>
      <path class="st0" d="M.8,13.2c.1-.2.4-.2.6-.3.2-.1.8-.8.9-.7,0,.2-.4.3-.5.5s-.2.3-.3.3-.5,0-.5.2c0,.3,0,.3,0,.2v-.2h0Z"/>
      <path class="st0" d="M12.7,8.3v.2s-.5,0-.5,0c0,0-.4-.4-.3-.4.1,0,.2.1.4.2s.2,0,.3,0,.2.1.3.1h0s0,0,0,0Z"/>
      <path class="st0" d="M11.3,10.9l-.3.3c0,0-.1,0-.1,0,0-.2.3-.3.4-.3h0Z"/>
      <path class="st0" d="M10.8,11c0,.1-.1.3-.3.3,0-.2.2-.4.3-.3h0Z"/>
      <path class="st0" d="M10.7,9.5h-.1c-.1-.5.2-.5.1,0Z"/>
      <path class="st0" d="M15.9,21s-.4-.1-.3-.2.3.1.3.2Z"/>
      <path class="st0" d="M18.4,16.4c0,0-.2.7-.4.6s.3-.7.4-.6Z"/>
    </g>
  </g>
  <g>
    <path class="st0" d="M2.3,9c.8-.1,1.8-.2,3.1-.2s2.8.4,3.6,1.1c.7.6,1.1,1.5,1.1,2.7s-.3,2.1-1,2.7c-.9.9-2.3,1.4-3.9,1.4s-.9,0-1.3-.1v5.1h-1.6v-12.6ZM4,15.1c.4,0,.8.1,1.4.1,2,0,3.2-1,3.2-2.7s-1.2-2.5-3-2.5-1.3,0-1.5.1v4.9Z"/>
    <path class="st0" d="M18.9,15.6h-4.9v4.6h5.5v1.4h-7.1v-12.7h6.9v1.4h-5.2v4h4.9v1.4Z"/>
    <path class="st0" d="M30.5,21.1c-.6.3-1.8.6-3.4.6-3.6,0-6.3-2.3-6.3-6.4s2.7-6.7,6.6-6.7,2.6.3,3,.6l-.4,1.3c-.6-.3-1.5-.5-2.6-.5-3,0-5,1.9-5,5.2s1.8,5.1,4.9,5.1,2-.2,2.7-.5l.3,1.3Z"/>
  </g>
</svg>