<svg width="176" height="174" xmlns="http://www.w3.org/2000/svg" xmlns:xlink="http://www.w3.org/1999/xlink"><defs><linearGradient x1="50%" y1="100%" x2="50%" y2="0%" id="c"><stop stop-color="#FFF" offset="0%"/><stop stop-color="#F9F8F3" offset="51%"/><stop stop-color="#FFF" offset="100%"/></linearGradient><path id="b" d="M0 141.18V0h164v141.18L82 162z"/><filter x="-7.3%" y="-3.7%" width="114.6%" height="114.8%" filterUnits="objectBoundingBox" id="a"><feOffset dy="6" in="SourceAlpha" result="shadowOffsetOuter1"/><feGaussianBlur stdDeviation="3" in="shadowOffsetOuter1" result="shadowBlurOuter1"/><feColorMatrix values="0 0 0 0 0 0 0 0 0 0 0 0 0 0 0 0 0 0 0.3 0" in="shadowBlurOuter1"/></filter></defs><g fill="none" fill-rule="evenodd"><g fill-rule="nonzero" transform="translate(6)"><use fill="#000" filter="url(#a)" xlink:href="#b"/><use fill="url(#c)" xlink:href="#b"/></g><path d="M6 93h164v-6H6v6zm0 18h164v-6H6v6zm0 9h164v-6H6v6zm0 21.18L28.92 147h118.16l22.92-5.82V141H6v.18zM6 129h164v-6H6v6zm58.37 27h47.26l23.63-6H40.74l23.63 6zM6 84h164v-6H6v6zm0 54h164v-6H6v6zm0-36h164v-6H6v6zm0-72h164v-6H6v6zm0-9h164v-6H6v6zM6 6v6h164V6H6zm0 33h164v-6H6v6zm0 36h164v-6H6v6zm0-9h164v-6H6v6zm0-9h164v-6H6v6zm0-9h164v-6H6v6z" fill-opacity=".5" fill="#FFF" fill-rule="nonzero"/><g opacity=".5" stroke="#B1B2A7" stroke-width=".75"><path d="M160 133v2l-1.95.43"/><path d="M154.04 136.31L88 150.82l-68.04-14.95" stroke-dasharray="4.1"/><path d="M17.95 135.43L16 135v-2"/><path d="M16 129.1V0m144 0v131.05" stroke-dasharray="3.9"/></g><g fill-rule="nonzero"><path d="M23.12 130.334s0-.076.118-.097c.147-.043.288-.101.423-.174a.596.596 0 0 0 .184-.216 1.55 1.55 0 0 0 .087-.401v-6.359a.52.52 0 0 0-.098-.26.4.4 0 0 0-.216-.141h-.282c-.087 0-.13 0-.13-.109 0-.108 0-.086.097-.086h3.11c.24.033.47.11.682.227.201.098.379.239.52.412.14.156.244.34.303.542.066.21.099.43.098.65.003.314-.052.626-.163.92a2.102 2.102 0 0 1-1.213 1.17 2.59 2.59 0 0 1-.932.163h-.357l-.228-.054s-.075 0-.075-.065.065-.098.205-.109a2.405 2.405 0 0 0 1.452-.52c.346-.292.537-.728.52-1.18a2.015 2.015 0 0 0-.195-.91 1.44 1.44 0 0 0-.553-.585 3.098 3.098 0 0 0-1.31-.152.672.672 0 0 0-.26 0 .108.108 0 0 0-.065.108v6.316a.77.77 0 0 0 .119.466.77.77 0 0 0 .411.25l.195.064h.206s.076 0 .076.098c0 .097 0 .086-.13.086H23.26c-.098.022-.14 0-.14-.054zm8.482.011a4.333 4.333 0 0 1-1.084-.466 3.543 3.543 0 0 1-1.202-1.462 4.918 4.918 0 0 1-.455-2.167 3.9 3.9 0 0 1 .292-1.517c.191-.449.467-.857.813-1.202a3.564 3.564 0 0 1 1.213-.791 4.008 4.008 0 0 1 1.539-.292c.438-.003.875.052 1.3.162a3.62 3.62 0 0 1 1.083.444c.27.17.515.377.726.618.442.512.751 1.126.899 1.787.085.355.125.719.119 1.084.01.162.01.325 0 .487a4.81 4.81 0 0 1-.076.53 4.214 4.214 0 0 1-.314 1.084 3.25 3.25 0 0 1-.585.845c-.342.367-.76.656-1.224.845-.49.19-1.012.29-1.539.293h-.086a4.734 4.734 0 0 1-1.42-.282zm2.665-.39c.36-.146.679-.376.931-.672.271-.316.474-.685.596-1.083a4.42 4.42 0 0 0 .206-1.408 4.583 4.583 0 0 0-.325-1.745 3.78 3.78 0 0 0-.932-1.386 3.044 3.044 0 0 0-.91-.661 3.152 3.152 0 0 0-1.17-.195c-.34.015-.676.08-.996.195-.292.099-.563.25-.802.444a2.89 2.89 0 0 0-.888 1.083 3.467 3.467 0 0 0-.282 1.452c0 .557.092 1.11.27 1.636.174.487.422.944.738 1.354.296.376.664.689 1.083.921.393.223.837.339 1.289.336a3.13 3.13 0 0 0 1.192-.271zm9.761-6.63c0-.325-.195-.51-.553-.563h-.206c-.14 0-.216 0-.216-.109 0-.108.054-.119.173-.119H45.1c.076 0 .12 0 .12.108 0 .109 0 .098-.11.12l-.183.065h-.26c-.12 0-.174.173-.184.368v.758a1.603 1.603 0 0 0 0 .174v6.12a.943.943 0 0 1 0 .217.087.087 0 0 1-.087 0 .173.173 0 0 1-.12 0 1.31 1.31 0 0 1-.162-.216l-.076-.12-.119-.173-.216-.293-.13-.162-.434-.585-1.96-2.318-.109-.13-.206-.25-.27-.335-.304-.38-.78-.975-.076-.086-.076-.109-.097-.097a.108.108 0 0 0-.087 0 .076.076 0 0 0-.076.065.704.704 0 0 0 0 .184v4.756a.997.997 0 0 0 0 .173.92.92 0 0 0 .141.52c.092.13.233.217.39.239h.271c.087 0 .12 0 .12.108s0 .087-.142.087h-2.003c-.077 0-.11 0-.11-.076s.055-.109.163-.13h.217a.4.4 0 0 0 .206-.098.737.737 0 0 0 .14-.195c.052-.113.085-.234.098-.357v-5.612a1.43 1.43 0 0 0 0-.347.585.585 0 0 0-.086-.184l-.358-.39a1.755 1.755 0 0 0-.217-.195l-.205-.151a.098.098 0 0 1-.065-.087s0-.087.097-.087h.79a.466.466 0 0 1 .37.195l.433.574c.238.315.552.726.953 1.214l1.376 1.809.975 1.192.758.931.433.564h.065v-.098a.78.78 0 0 0 0-.184 2.362 2.362 0 0 0 0-.293l.065-4.777.055-.26zm2.242-.52l-.173-.065h-.228a.076.076 0 0 1-.065-.076c0-.065.054-.097.152-.097h1.96c.13 0 .196 0 .196.086 0 .087 0 .098-.163.12a.52.52 0 0 0-.27.151.38.38 0 0 0-.098.25.834.834 0 0 0 .076.281c.053.144.122.282.206.412l1.56 2.643.064-.108 1.712-2.828c.059-.08.106-.167.141-.26a.683.683 0 0 0 0-.206.38.38 0 0 0 0-.195.238.238 0 0 0-.163-.108h-.195c-.075 0-.108 0-.108-.087 0-.086 0-.119.098-.119h1.603c.162 0 .25 0 .25.108 0 .109 0 .087-.11.109l-.227.054a.542.542 0 0 0-.238.13c-.157.194-.299.4-.423.618l-2.08 3.25a.368.368 0 0 0 0 .184v2.372a.628.628 0 0 0 .185.488c.16.13.357.206.563.216h.184c.108 0 .173.065.173.141 0 .076-.065.098-.173.098h-2.567c-.076 0-.109 0-.109-.076v-.076h.174l.238-.076a.758.758 0 0 0 .227-.119.53.53 0 0 0 .195-.303c.05-.206.072-.417.065-.629v-1.971a.358.358 0 0 0 0-.163s-.054-.108-.119-.227l-1.96-3.25c-.109-.174-.185-.293-.228-.38a.79.79 0 0 0-.184-.194.498.498 0 0 0-.141-.098zm12.296.195v3.066a.11.11 0 0 0 .076 0h1.852a.78.78 0 0 0 .217 0 .368.368 0 0 0 .13-.13.64.64 0 0 0 .065-.217.52.52 0 0 1 0-.162.108.108 0 0 1 .087 0c.054 0 .075 0 .075.119v.888l.065.704v.065s0 .076-.065.076a.085.085 0 0 1-.151-.076.607.607 0 0 1 0-.216.856.856 0 0 0-.195-.423.726.726 0 0 0-.444-.13h-1.723a.087.087 0 0 0 0 .065v2.416a3.044 3.044 0 0 0 0 .488.802.802 0 0 0 .076.281.26.26 0 0 0 .162.141.88.88 0 0 0 .271 0h1.766a.542.542 0 0 0 .206 0 .9.9 0 0 0 .282-.173 1.09 1.09 0 0 0 .227-.228l.097-.173c.04-.08.073-.164.098-.25 0-.064 0-.097.087-.097.086 0 .086 0 .086.098.006.079.006.159 0 .238a3.25 3.25 0 0 1-.086.347l-.12.433a.628.628 0 0 1-.097.26h-4.561s-.076 0-.076-.065a.087.087 0 0 1 0-.076.747.747 0 0 1 .195 0l.206-.076.195-.108a.336.336 0 0 0 .108-.162 1.1 1.1 0 0 0 .055-.336v-5.211a3.37 3.37 0 0 0 0-.347v-.834a.585.585 0 0 0-.098-.292.39.39 0 0 0-.314-.141h-.238c-.065 0-.098-.033-.098-.098s.054-.097.163-.097h4.528a.108.108 0 0 1 .098 0 .26.26 0 0 1 0 .13v.921a.217.217 0 0 1 0 .075.195.195 0 0 1 0 .065c0 .109-.033.163-.098.163-.054 0-.087 0-.108-.108l-.065-.195a1.7 1.7 0 0 0-.141-.315.78.78 0 0 0-.217-.205.877.877 0 0 0-.325-.109 2.795 2.795 0 0 0-.455 0h-1.256l-.358.011h-.184zm7.377 3.304a.325.325 0 0 0-.065-.151l-1.928-2.828c-.217-.336-.39-.52-.52-.542l-.303-.086h-.13a.087.087 0 0 1 0-.065c0-.055 0-.087.108-.087h2.145c.076 0 .12 0 .12.097 0 .098 0 .13-.142.141h-.14a.282.282 0 0 0-.163.109.325.325 0 0 0-.065.195c.005.07.027.136.065.195a.26.26 0 0 0 .065.086.38.38 0 0 0 0 .087l1.18 1.82.163.227.054.066a.1.1 0 0 0 .076 0l.152-.163.747-1.018.282-.369c.087-.13.173-.238.25-.335l.173-.239.086-.119c.056-.084.107-.17.152-.26a.444.444 0 0 0 0-.184.14.14 0 0 0 0-.109h-.184l-.239-.054c-.065 0-.097 0-.097-.086a.12.12 0 0 1 0-.065.087.087 0 0 1 .076 0h1.744s.087 0 .087.097c0 .098 0 .108-.12.13-.153.065-.301.14-.444.228-.11.071-.211.155-.303.249-.068.1-.144.194-.228.281-.054.076-.119.141-.173.206l-.087.109-1.679 2.166v.065a.4.4 0 0 0 .098.174l.682 1.083c.087.137.174.267.26.39.087.12.152.238.228.336l.162.26.076.108.975 1.452a.9.9 0 0 0 .26.249c.095.051.198.088.303.108h.195c.065 0 .109 0 .109.098a.11.11 0 0 1 0 .076h-2.384c-.065 0-.108 0-.108-.076a.087.087 0 0 1 0-.076.466.466 0 0 1 .184 0 .845.845 0 0 0 .358-.12.27.27 0 0 0 .097-.238.682.682 0 0 0 0-.227 1.81 1.81 0 0 0-.13-.25l-.086-.13c0-.075-.12-.173-.195-.303-.076-.13-.174-.26-.271-.411l-.314-.466-.824-1.322c0-.065-.054-.086-.065-.086a.227.227 0 0 0-.086.065l-.065.075a.52.52 0 0 0-.087.12l-1.083 1.44-.466.607-.271.368-.152.206a1.29 1.29 0 0 1-.086.174.444.444 0 0 0-.055.184.14.14 0 0 0 .055.119.53.53 0 0 0 .205.087h.325s.076 0 .076.086c0 .087 0 .076-.119.076h-1.852c-.087 0-.12 0-.12-.076s.065-.13.217-.173h.261c.11-.062.209-.142.292-.238.108-.109.238-.271.411-.488l.336-.433 1.896-2.514a.195.195 0 0 0 .043-.108zm4.724 4.03s0-.076.119-.097c.143-.043.281-.1.412-.174a.51.51 0 0 0 .184-.216 1.55 1.55 0 0 0 .086-.401v-5.774a2.004 2.004 0 0 1 0-.25 1.18 1.18 0 0 1 0-.194.856.856 0 0 0-.097-.401.433.433 0 0 0-.228-.141h-.27c-.087 0-.13 0-.13-.109 0-.108 0-.086.097-.086h3.098c.24.033.471.11.683.227.202.1.383.24.53.412.133.161.236.345.304.542.065.21.098.43.098.65a2.33 2.33 0 0 1-.174.92 1.983 1.983 0 0 1-.476.705c-.209.202-.456.36-.726.465a2.61 2.61 0 0 1-.943.163h-.357l-.217-.054s-.087 0-.087-.065.076-.098.206-.109a2.416 2.416 0 0 0 1.463-.52c.345-.292.537-.728.52-1.18a2.015 2.015 0 0 0-.195-.91 1.44 1.44 0 0 0-.553-.585 3.142 3.142 0 0 0-1.419-.271.65.65 0 0 0-.25 0 .108.108 0 0 0-.064.108v6.316a.704.704 0 0 0 .13.466.737.737 0 0 0 .4.249l.207.065h.195c.054 0 .075 0 .075.097 0 .098 0 .087-.13.087h-2.372c-.12.141-.12.12-.12.065zm5.513 0s0-.087.12-.108l.238-.076a.585.585 0 0 0 .423-.477 1.202 1.202 0 0 0 0-.184 1.31 1.31 0 0 0 0-.249v-1.138l.097-4.333a.672.672 0 0 0 0-.14v-.304a.53.53 0 0 1 0-.13.628.628 0 0 0-.097-.282.25.25 0 0 0-.184-.13h-.444a.097.097 0 0 1 0-.097c0-.065 0-.109.173-.109h2.827c.25-.004.497.044.726.141a1.68 1.68 0 0 1 .964.997c.09.24.133.492.13.747a1.96 1.96 0 0 1-.704 1.647l-.52.412.206.292 2.448 2.763.358.346c.155.129.342.211.542.239h.227c.065 0 .108 0 .108.086a.065.065 0 0 1 0 .065H82.29a.52.52 0 0 1-.27-.119 1.928 1.928 0 0 1-.325-.336l-.303-.411c-.152-.195-.325-.423-.542-.683-.217-.26-.455-.563-.737-.899l-.509-.617-.325-.423-.119-.162-.13-.12a.314.314 0 0 0-.184 0h-.802a.163.163 0 0 0-.119.065.38.38 0 0 0 0 .141v2.492a2.01 2.01 0 0 0 0 .347c.018.11.075.21.163.281.076.08.174.136.281.163l.314.065a.26.26 0 0 1 .13 0 .065.065 0 0 1 0 .065c0 .065 0 .086-.108.086h-2.383s-.141.141-.141.087zm1.767-4.084c.114.019.232.019.346 0 .553.036 1.1-.12 1.55-.444.365-.307.562-.77.53-1.246a1.625 1.625 0 0 0-.52-1.268 1.993 1.993 0 0 0-1.419-.476 1.148 1.148 0 0 0-.292 0 .303.303 0 0 0-.163.086.498.498 0 0 0-.076.185 2.167 2.167 0 0 0 0 .303v2.643a.152.152 0 0 0 .044.217zm8.081-3.25v3.066h1.94a.802.802 0 0 0 .205 0 .368.368 0 0 0 .13-.13.64.64 0 0 0 .065-.217.303.303 0 0 1 0-.162.087.087 0 0 1 .076 0s.076 0 .076.119v1.657s0 .076-.065.076a.087.087 0 0 1-.087-.054.607.607 0 0 1 0-.217.704.704 0 0 0-.195-.422.726.726 0 0 0-.444-.13h-1.711a.065.065 0 0 0 0 .065v2.416a3.25 3.25 0 0 0 0 .487.802.802 0 0 0 .075.282.293.293 0 0 0 .163.14c.09.014.18.014.27 0h1.767a.542.542 0 0 0 .205 0 1.08 1.08 0 0 0 .607-.574c.04-.08.073-.163.098-.249 0-.065 0-.097.086-.097a.087.087 0 0 1 .098.097c.01.08.01.16 0 .239a3.25 3.25 0 0 1-.076.346l-.13.434a.628.628 0 0 1-.098.26h-4.582s-.076 0-.076-.065a.076.076 0 0 1 0-.076.53.53 0 0 1 .184 0l.206-.076.195-.108a.455.455 0 0 0 .12-.163 1.82 1.82 0 0 0 0-.336v-5.21a3.37 3.37 0 0 0 0-.347v-.834a.585.585 0 0 0-.098-.293.39.39 0 0 0-.314-.14h-.239c-.065 0-.097-.033-.097-.098s.054-.098.162-.098h4.539a.108.108 0 0 1 .098 0 .26.26 0 0 1 0 .13v.921a.693.693 0 0 0 0 .076v.065c0 .108-.033.163-.098.163 0 0-.086 0-.108-.109l-.065-.195a1.7 1.7 0 0 0-.14-.314.78.78 0 0 0-.217-.206.877.877 0 0 0-.325-.108 2.708 2.708 0 0 0-.455 0h-1.604l-.14-.011zm7.779 1.083a.098.098 0 0 1-.076 0 .206.206 0 0 1-.054-.119v-.27a2.058 2.058 0 0 0-.152-.358.51.51 0 0 0-.206-.195 1.733 1.733 0 0 0-.92-.206 1.398 1.398 0 0 0-1.008.368 1.333 1.333 0 0 0-.38.986c.01.32.125.628.326.878.312.36.677.67 1.083.92l.683.466c.348.222.646.514.877.856.187.33.277.705.26 1.084a1.983 1.983 0 0 1-.672 1.614 2.936 2.936 0 0 1-1.917.552c-.144.012-.29.012-.433 0a4.236 4.236 0 0 1-.488-.076l-.282-.065a.097.097 0 0 1-.065 0 1.203 1.203 0 0 1 0-.14l-.065-.564a.238.238 0 0 1 0-.097v-.109a.38.38 0 0 0 0-.14v-.195a1.31 1.31 0 0 1 0-.195c0-.076 0-.109.087-.109s.097 0 .12.13c.028.128.071.251.13.369.046.109.108.21.183.303a1.94 1.94 0 0 0 2.005.412 1.28 1.28 0 0 0 .476-.304 1.538 1.538 0 0 0 .433-1.072 1.7 1.7 0 0 0 0-.401 1.083 1.083 0 0 0-.119-.336 2.86 2.86 0 0 0-.335-.39 3.25 3.25 0 0 0-.488-.4l-.66-.467a9.91 9.91 0 0 1-.716-.541 3 3 0 0 1-.412-.434 1.81 1.81 0 0 1-.357-1.159 2.34 2.34 0 0 1 .14-.845 2.07 2.07 0 0 1 .434-.65c.188-.184.413-.324.661-.411a2.47 2.47 0 0 1 .867-.152h.422l.531.065h.217c.07.011.135.046.184.097a.715.715 0 0 1 0 .282v.152a1.42 1.42 0 0 0 0 .184v.509c.003.05.003.101 0 .152-.206-.065-.239.021-.314.021zm4.875 0a.098.098 0 0 1-.076 0 .206.206 0 0 1-.054-.119v-.27a2.058 2.058 0 0 0-.152-.358.51.51 0 0 0-.206-.195 1.733 1.733 0 0 0-.92-.206 1.398 1.398 0 0 0-1.008.368 1.333 1.333 0 0 0-.38.986c.01.32.125.628.326.878.313.358.678.669 1.083.92l.693.466c.348.222.647.514.878.856.187.33.277.705.26 1.084a1.983 1.983 0 0 1-.672 1.614 2.936 2.936 0 0 1-1.917.552 2.62 2.62 0 0 1-.434 0 4.236 4.236 0 0 1-.487-.076l-.282-.065a.097.097 0 0 1-.065 0 1.202 1.202 0 0 1 0-.14l-.065-.564a.238.238 0 0 1 0-.097v-.109a.38.38 0 0 0 0-.14v-.195a1.31 1.31 0 0 1 0-.195c0-.076 0-.109.087-.109s.097 0 .119.13c.028.128.072.251.13.369.047.109.109.21.184.303.35.388.866.586 1.387.53.208.001.414-.04.606-.118.183-.065.35-.168.488-.304.133-.138.24-.3.314-.476.075-.19.112-.393.108-.596a1.68 1.68 0 0 0 0-.401 1.083 1.083 0 0 0-.119-.336 2.86 2.86 0 0 0-.335-.39 3.965 3.965 0 0 0-.488-.4l-.66-.467a9.91 9.91 0 0 1-.716-.541 3 3 0 0 1-.412-.434 1.81 1.81 0 0 1-.357-1.159 2.34 2.34 0 0 1 .14-.845 2.07 2.07 0 0 1 .434-.65c.188-.184.413-.324.661-.411a2.47 2.47 0 0 1 .867-.152h.422l.531.065h.217c.07.011.135.046.184.097a.715.715 0 0 1 0 .282v.152a1.42 1.42 0 0 0 0 .184v.509c.003.05.003.101 0 .152-.163-.065-.239.021-.314.021zm11.385 5.764a1.398 1.398 0 0 1-.379.216c-.378.16-.77.288-1.17.38a5.07 5.07 0 0 1-1.083.13 4.897 4.897 0 0 1-1.69-.282 3.846 3.846 0 0 1-1.29-.813 3.456 3.456 0 0 1-.812-1.256 4.41 4.41 0 0 1-.292-1.647 4.67 4.67 0 0 1 .26-1.614 3.64 3.64 0 0 1 .834-1.311 4.16 4.16 0 0 1 .737-.66 3.25 3.25 0 0 1 .379-.207c.137-.066.278-.124.422-.173a2.6 2.6 0 0 1 .64-.14 4.56 4.56 0 0 1 .671 0h.477c.164.01.326.032.487.064l.52.13c.195 0 .401.13.629.217.134.057.272.108.411.151a.195.195 0 0 1 .141.065.466.466 0 0 1 0 .217v1.105c0 .098 0 .152-.108.152a.108.108 0 0 1-.087 0 1.647 1.647 0 0 1-.13-.228 1.755 1.755 0 0 0-.151-.26l-.228-.281-.26-.26-.26-.195a3.152 3.152 0 0 0-.77-.38 2.914 2.914 0 0 0-.855-.119 3.54 3.54 0 0 0-1.007.141 3.022 3.022 0 0 0-1.766 1.56 4.04 4.04 0 0 0-.293 1.647c-.002.521.09 1.039.271 1.527.167.464.417.893.737 1.268.304.354.671.648 1.083.866.406.207.855.315 1.31.315.332.002.661-.049.976-.152.302-.085.588-.22.845-.4.085-.067.165-.14.238-.218.082-.092.158-.19.228-.292l.206-.293c.047-.088.09-.178.13-.27.021-.075.05-.148.086-.217a.12.12 0 0 1 .109 0 .108.108 0 0 1 .086.054.347.347 0 0 1 0 .152v.379a1.65 1.65 0 0 0-.076.292.336.336 0 0 0 0 .141l-.065.293a.628.628 0 0 1-.14.206zm3.933.498a4.333 4.333 0 0 1-1.083-.466 3.488 3.488 0 0 1-1.257-1.495 4.918 4.918 0 0 1-.444-2.166 3.9 3.9 0 0 1 .292-1.517 3.575 3.575 0 0 1 2.026-1.994 3.922 3.922 0 0 1 1.528-.292c.438-.003.875.051 1.3.162.383.089.748.239 1.083.445.273.166.518.374.726.617.218.25.404.527.552.823.157.307.276.63.358.965.08.355.12.719.119 1.083a3.683 3.683 0 0 1-.076 1.018 3.8 3.8 0 0 1-.314 1.084 3.25 3.25 0 0 1-.585.845 3.47 3.47 0 0 1-1.224.845c-.49.19-1.012.289-1.538.292h-.087a4.734 4.734 0 0 1-1.376-.249zm2.665-.39c.362-.149.684-.378.942-.672.268-.317.467-.685.585-1.083a4.41 4.41 0 0 0 .206-1.42 4.8 4.8 0 0 0-.314-1.743 3.943 3.943 0 0 0-.942-1.387 2.925 2.925 0 0 0-.975-.65 3.152 3.152 0 0 0-1.17-.195 3.326 3.326 0 0 0-.997.13 3.023 3.023 0 0 0-1.69 1.517 3.304 3.304 0 0 0-.282 1.451 4.8 4.8 0 0 0 .271 1.636c.165.489.41.946.726 1.354.297.376.665.689 1.083.921a2.6 2.6 0 0 0 1.29.336 3.09 3.09 0 0 0 1.245-.195h.022zm3.955-7.465h1.57c.087 0 .13 0 .13.077 0 .076 0 .086-.13.097a.758.758 0 0 0-.585.314l-.087.141v.13a1.18 1.18 0 0 0-.054.184 1.202 1.202 0 0 0 0 .184v3.814a6.988 6.988 0 0 0 0 .726c.034.295.122.582.26.845.132.256.317.481.542.66.221.17.476.293.747.358.355.083.72.12 1.084.108a3.25 3.25 0 0 0 1.083-.151c.28-.1.532-.262.737-.477.091-.087.171-.185.238-.293.065-.12.116-.247.152-.379a4.42 4.42 0 0 0 .075-.476v-4.854a1.083 1.083 0 0 0-.108-.563.77.77 0 0 0-.422-.228h-.282v-.065c0-.065 0-.065.098-.065h1.787c.097 0 .152 0 .152.087a.087.087 0 0 1 0 .076.466.466 0 0 1-.184.054.563.563 0 0 0-.326.12.477.477 0 0 0-.162.292 2.98 2.98 0 0 0-.054.368v4.279a7.264 7.264 0 0 1-.054.78 2.676 2.676 0 0 1-.12.574c-.06.156-.136.305-.227.445-.109.136-.232.26-.368.368a2.524 2.524 0 0 1-.412.282c-.16.07-.327.12-.498.151a4.8 4.8 0 0 1-.629.098h-.693a3.142 3.142 0 0 1-2.362-.791 4.106 4.106 0 0 1-.325-.433 1.972 1.972 0 0 1-.216-.488 3.412 3.412 0 0 1-.098-.39 2.34 2.34 0 0 1 0-.379v-4.42c.01-.25-.026-.5-.108-.737a.4.4 0 0 0-.325-.26h-.271c-.097 0-.152 0-.152-.108s0-.097.13-.097h.195l.271.043zm14.06.835c0-.325-.183-.51-.552-.563h-.205c-.141 0-.206 0-.206-.109 0-.108 0-.119.162-.119h1.874c.076 0 .12 0 .12.108a.12.12 0 0 1-.098.12l-.195.065h-.26c-.108 0-.173.173-.173.368v.758c.003.058.003.116 0 .174v6.12a.943.943 0 0 1 0 .217h-.087a.173.173 0 0 1-.12 0 1.31 1.31 0 0 1-.162-.216.53.53 0 0 0-.075-.12l-.12-.173-.216-.293-.12-.162-.444-.585-1.96-2.318-.109-.13-.206-.25c-.075-.097-.162-.216-.27-.335l-.293-.38-.78-.975-.087-.086-.075-.109-.087-.097a.152.152 0 0 0-.098 0 .065.065 0 0 0-.065.065 1.506 1.506 0 0 0 0 .184v4.756a.997.997 0 0 0 0 .173.92.92 0 0 0 .152.52.53.53 0 0 0 .39.239h.27c.077 0 .12 0 .12.108s0 .087-.152.087h-1.993c-.076 0-.12 0-.12-.076s0-.109.163-.13h.217a.368.368 0 0 0 .206-.098.79.79 0 0 0 .152-.195 1.16 1.16 0 0 0 .086-.357v-5.612a1.083 1.083 0 0 0 0-.347.585.585 0 0 0-.086-.184l-.358-.39a1.213 1.213 0 0 0-.217-.195 1.17 1.17 0 0 0-.205-.151.098.098 0 0 1-.065-.087s0-.087.108-.087h.726a.433.433 0 0 1 .357.195l.444.574c.228.315.542.726.943 1.214l1.452 1.776.985 1.192.748.932.444.563v-.097a1.614 1.614 0 0 1 0-.185v-5.07l.14-.227zm8.863 6.522a1.3 1.3 0 0 1-.369.216 7.453 7.453 0 0 1-1.18.38 4.94 4.94 0 0 1-2.773-.152 3.694 3.694 0 0 1-1.28-.813 3.478 3.478 0 0 1-.823-1.256 4.41 4.41 0 0 1-.292-1.647 4.67 4.67 0 0 1 .26-1.614c.184-.49.468-.936.834-1.311a4.16 4.16 0 0 1 .38-.38 3.012 3.012 0 0 1 .736-.487c.137-.066.278-.124.422-.173.21-.073.429-.12.65-.14a4.29 4.29 0 0 1 .661 0h.488l.476.064.531.13.618.217c.137.06.278.11.422.151a.217.217 0 0 1 .141.065c.01.072.01.145 0 .217v1.105c0 .098 0 .152-.097.152a.152.152 0 0 1-.098 0 1.647 1.647 0 0 1-.13-.228 1.083 1.083 0 0 0-.152-.26l-.227-.281-.26-.26-.26-.195a2.98 2.98 0 0 0-.77-.38 2.892 2.892 0 0 0-.844-.119 3.607 3.607 0 0 0-1.019.141c-.3.099-.581.245-.834.433-.399.275-.72.648-.931 1.084a4.04 4.04 0 0 0-.293 1.646 4.54 4.54 0 0 0 .27 1.528c.173.461.422.89.737 1.267.305.354.672.647 1.084.867a2.87 2.87 0 0 0 1.3.314c.334.002.667-.049.986-.151a2.72 2.72 0 0 0 .834-.401c.085-.066.165-.138.238-.217a3.12 3.12 0 0 0 .239-.292c.072-.093.137-.19.195-.293.056-.083.1-.174.13-.27.021-.075.05-.148.086-.217a.13.13 0 0 1 .12 0s.053 0 .075.054a.347.347 0 0 1 0 .151v.163a2.102 2.102 0 0 1-.054.217c0 .108-.054.195-.076.292v.141l-.054.292a.65.65 0 0 1-.097.25zm2.729-.347v.238c.018.052.04.103.066.152.023.043.056.08.097.108.143.095.306.154.477.174.119 0 .184 0 .184.119a.087.087 0 0 1-.098.097h-2.209a.087.087 0 0 1-.098-.097.097.097 0 0 1 0-.087.78.78 0 0 1 .195-.076.682.682 0 0 0 .498-.53 1.192 1.192 0 0 0 0-.293v-6.067c0-.151-.152-.466-.347-.52h-.314c-.065 0-.097 0-.097-.076 0-.075 0-.108.162-.108h2.178c.065 0 .097 0 .097.076s-.076.13-.216.152a.834.834 0 0 0-.466.26.66.66 0 0 0-.109.249c0 .14 0 .368-.065.704-.065.336 0 .715 0 1.083v4.085c.055.162.065.292.065.357zm3.966-6.89c0 .065-.087.108-.25.12h-.205a.368.368 0 0 0-.163.064.444.444 0 0 0-.13.152 1.083 1.083 0 0 0 0 .39v5.829c.005.17.027.341.065.508.01.105.071.198.162.25.153.054.315.076.477.064h.64c.24.02.484.02.725 0 .176-.019.348-.066.51-.14a.867.867 0 0 0 .346-.271c.105-.12.186-.26.238-.412a.14.14 0 0 1 .13-.14c.044 0 .098 0 .098.086a.867.867 0 0 1 0 .173l-.282 1.008c0 .108-.087.151-.173.151h-4.41c-.064 0-.108 0-.108-.065a.108.108 0 0 1 0-.086h.141l.228-.065.205-.098a.238.238 0 0 0 .13-.14c.01-.098.01-.196 0-.293v-5.948a4.507 4.507 0 0 0-.054-.53.455.455 0 0 0-.108-.282.422.422 0 0 0-.27-.098h-.261c-.076 0-.119 0-.119-.108s0-.087.097-.087h2.167c.141-.119.173-.097.173-.032z" fill="#CE0E2D"/><path d="M104.445 66.558a1.842 1.842 0 1 1-1.82 1.831 1.798 1.798 0 0 1 1.82-1.83zm0 .282a1.55 1.55 0 1 0 0 3.098 1.55 1.55 0 0 0 0-3.098zm-.336 2.61h-.336v-2.047c.195-.013.39-.013.585 0 .224-.016.447.037.64.152a.53.53 0 0 1-.217.92c.184 0 .303.196.346.5.014.172.058.34.13.498h-.357a1.473 1.473 0 0 1-.13-.52.39.39 0 0 0-.444-.358h-.228l.011.856zm0-1.083h.228c.27 0 .509-.097.509-.357s-.141-.357-.51-.357h-.227v.714z" fill="#002E6D"/><path d="M109.927 54.306a11.342 11.342 0 0 0 3.369-8.05 9.252 9.252 0 0 0-1.235-4.68 4.04 4.04 0 0 0-.304-.498 1.31 1.31 0 0 0 .141-.27h-.39a6.62 6.62 0 0 0-.617-.716c-.293-.281-.726-.725-1.084-1.083a11.158 11.158 0 0 0-6.662-2.35 14.43 14.43 0 0 0-6.142 1.375h-.109v-.119a28.99 28.99 0 0 0-3.477-8.667A107.683 107.683 0 0 1 88 19a102.82 102.82 0 0 1-5.308 10.107 28.99 28.99 0 0 0-3.478 8.667v.12h-.119a14.333 14.333 0 0 0-6.132-1.376 11.1 11.1 0 0 0-6.63 2.372c-.388.31-.75.65-1.083 1.018l-.617.759h-.466c0 .065.075.151.14.26l-.357.541a9.923 9.923 0 0 0-1.235 4.691 11.342 11.342 0 0 0 3.37 8.05 14.387 14.387 0 0 0 3.39 2.708l1.278.617a5.33 5.33 0 0 1-.195-1.397 4.853 4.853 0 0 1 .401-1.94 6.5 6.5 0 0 1 2.47-2.903c.296-.181.612-.327.943-.433.438-.148.887-.26 1.343-.336l2.47.38v.194h-2.026l.38.271c.36.27.758.484 1.18.64.78.227 2.86.595 2.86.595v.184h-1.354l2.838 1.701v.4l-3.52 3.435c.103.174.22.34.346.498.314.428.678.817 1.084 1.16l.476.368.087.076-.455.433a5.33 5.33 0 0 1-.867.552 4.453 4.453 0 0 1-1.993.542 3.077 3.077 0 0 1-1.56-.422 5.157 5.157 0 0 1-2.232-3.955 8.526 8.526 0 0 0-1.018 4.074v.444a8.775 8.775 0 0 0 2.307 5.947 7.356 7.356 0 0 0 5.352 2.503c.959 0 1.904-.222 2.763-.65h.086v.097A21.222 21.222 0 0 0 88 76.742a20.735 20.735 0 0 0 5.048-6.825v-.098h.087c.862.427 1.811.65 2.773.65a7.334 7.334 0 0 0 5.341-2.502 8.83 8.83 0 0 0 2.308-5.948v-.444a8.526 8.526 0 0 0-1.019-4.073 5.19 5.19 0 0 1-2.231 3.954 3.066 3.066 0 0 1-1.55.422 4.507 4.507 0 0 1-2.004-.541 5.612 5.612 0 0 1-.855-.553l-.315-.433.076-.054.434-.347a7.193 7.193 0 0 0 1.083-1.16 6.7 6.7 0 0 0 .347-.498l-3.554-3.434v-.4l2.85-1.701h-1.355v-.174s2.08-.368 2.86-.596c.423-.154.82-.37 1.181-.639l.412-.281h-2.091v-.195l2.416-.369c.52.098 1.159.282 1.365.325.334.105.654.25.953.434a6.598 6.598 0 0 1 2.47 2.903 4.68 4.68 0 0 1 .39 1.896c.004.487-.062.972-.195 1.44l1.31-.584a14.636 14.636 0 0 0 3.392-2.579" fill="#FFF"/><path fill="#CE0E2D" d="M68.067 46.42l.66 2.058h2.156l-1.744 1.256.672 2.058-1.744-1.267-1.745 1.268.661-2.059-1.744-1.256h2.156zm39.78 0l.671 2.047h2.156l-1.744 1.267.66 2.058-1.743-1.267-1.744 1.268.671-2.059-1.744-1.267h2.156z"/><path d="M72.747 49.907a7.833 7.833 0 0 0-3.164 3.684 8.2 8.2 0 0 0-.39 1.213v.087l-.076-.054a11.917 11.917 0 0 1-2.047-1.734 9.75 9.75 0 0 1-2.806-6.857 7.887 7.887 0 0 1 .683-3.25l-1.084-1.376a9.143 9.143 0 0 0-1.202 4.626 11.343 11.343 0 0 0 3.39 8.081 13.964 13.964 0 0 0 3.413 2.59l1.343.65a4.528 4.528 0 0 1-.227-1.452c0-.664.136-1.32.4-1.928a6.598 6.598 0 0 1 2.46-2.893c.26-.159.536-.29.823-.39-.39-.249-1.278-.856-1.516-.997m37.201 4.431a11.375 11.375 0 0 0 3.38-8.07 9.252 9.252 0 0 0-1.191-4.626l-1.084 1.375a7.897 7.897 0 0 1 .672 3.25 9.75 9.75 0 0 1-2.806 6.847 11.917 11.917 0 0 1-2.037 1.733l-.075.055v-.087a8.147 8.147 0 0 0-.39-1.224 7.93 7.93 0 0 0-3.25-3.684c-.228.141-1.084.759-1.506.997.284.104.557.238.812.401a6.5 6.5 0 0 1 2.46 2.882c.265.592.399 1.235.39 1.885a5.818 5.818 0 0 1-.206 1.495l1.343-.65a14.322 14.322 0 0 0 3.402-2.579M97.09 39.583c.423-.225.861-.424 1.31-.595a12.805 12.805 0 0 1 4.67-.889 9.663 9.663 0 0 1 5.286 1.733h2.394a9.09 9.09 0 0 0-1.018-.92 11.277 11.277 0 0 0-6.674-2.362 14.55 14.55 0 0 0-6.153 1.387h-.076v-.087a28.903 28.903 0 0 0-3.488-8.667A105.517 105.517 0 0 1 88 19a103.155 103.155 0 0 1-5.34 10.183 28.87 28.87 0 0 0-3.478 8.667v.087h-.065a14.636 14.636 0 0 0-6.154-1.387 11.277 11.277 0 0 0-6.684 2.362c-.357.286-.697.594-1.018.92h2.383a9.685 9.685 0 0 1 5.287-1.733c1.598.003 3.181.305 4.669.888.446.17.88.368 1.3.596l.325.195h.087l1.083.726.13-1.289a25.166 25.166 0 0 1 3.477-9.35c1.225-2.166 2.622-4.538 3.933-7.128v-.119l.065.12c1.3 2.589 2.708 4.907 3.922 7.128a24.982 24.982 0 0 1 3.477 9.349l.184 1.31 1.084-.725h.075l.325-.195M72.357 61.63v.432a8.862 8.862 0 0 0 2.329 5.98 7.442 7.442 0 0 0 5.417 2.514 6.327 6.327 0 0 0 2.74-.64h.055v.055A21.006 21.006 0 0 0 88 76.796a21.006 21.006 0 0 0 5.08-6.88v-.054h.066c.862.43 1.81.655 2.773.661a7.442 7.442 0 0 0 5.417-2.513 8.85 8.85 0 0 0 2.318-5.98v-.433a8.428 8.428 0 0 0-1.083-4.193 5.103 5.103 0 0 1-2.167 4.008 3.033 3.033 0 0 1-1.57.488 4.333 4.333 0 0 1-1.983-.542 5.092 5.092 0 0 1-.823-.52l-1.311.932c.419.347.869.655 1.343.92a5.958 5.958 0 0 0 2.773.727 4.583 4.583 0 0 0 2.319-.64c.303-.174.586-.38.845-.617l.108-.098v.152a7.334 7.334 0 0 1-1.907 4.745 5.85 5.85 0 0 1-4.225 2.015 4.908 4.908 0 0 1-2.773-.888l-.867-.596-.357 1.083v.141c-.054.12-.13.303-.25.542a26.24 26.24 0 0 1-.974 1.83 19.435 19.435 0 0 1-2.665 3.576v.054-.054A19.045 19.045 0 0 1 85.27 71a22.104 22.104 0 0 1-.975-1.83c-.108-.24-.195-.423-.238-.543l-.065-.14-.347-1.084-.823.64a4.918 4.918 0 0 1-2.763.877 5.828 5.828 0 0 1-4.225-2.015 7.41 7.41 0 0 1-1.917-4.658v-.152l.108.097c.262.237.549.444.856.618.695.401 1.483.61 2.286.607a5.958 5.958 0 0 0 2.784-.759 9.956 9.956 0 0 0 1.354-.92l-1.322-.932a5.417 5.417 0 0 1-.812.52 4.452 4.452 0 0 1-1.993.541 3.033 3.033 0 0 1-1.539-.422 5.092 5.092 0 0 1-2.166-4.008 8.472 8.472 0 0 0-1.084 4.192" fill="#CE0E2D"/><path fill="#CE0E2D" d="M86.938 39.085h2.156L88 23.755zm-4.03 13.639c.13 1.09.385 2.163.759 3.196v-3.196h-.759zm1.539 0v4.919c.228.382.49.745.78 1.083v-6.002h-.78zm1.593 0v6.858c.241.22.498.422.768.606v-7.464h-.769zm1.58 0v7.941l.38.173a3.25 3.25 0 0 0 .39-.195v-7.919h-.77zm1.593 0v7.443c.268-.184.525-.383.77-.596v-6.847h-.77zm1.582 0v5.991c.283-.341.54-.703.77-1.083v-4.908h-.77zm2.297 0h-.759v3.11c.355-1.018.594-2.072.715-3.142"/><path d="M83.797 63.178c.232.057.467.1.704.13l1.256-2.979a8.743 8.743 0 0 1-2.166-2.665c-.26.607-1.853 4.214-1.874 4.334a.38.38 0 0 0 .195.368l.476.27s-.411.78-.801.954a4.095 4.095 0 0 1-1.745.412c-.639 0-1.083 0-1.159.466a1.3 1.3 0 0 0 .65 1.31s-.346-.964.282-.964h3.932c.239 0 .499.304.26.845a.997.997 0 0 0 .607-1.192c-.119-.53-.715-.454-.997-.465a4.734 4.734 0 0 1-.769-.174l.531-.866s.368.151.585.216" fill="#002E6D"/><path d="M90.86 44.707s.195 1.008.607 1.008a14.083 14.083 0 0 0 3.033-2.427c.693-.693 2.903-2.708 5.525-2.708h12.003s-.325.986-1.083 1.138c-.758.151-5.622.65-5.622.65h5.427a2.46 2.46 0 0 1-1.376 1.159c-.812.14-4.398.52-4.398.52h4.246a2.08 2.08 0 0 1-1.44 1.235c-1.084.195-4.41.476-4.41.476h4.128a2.676 2.676 0 0 1-1.484 1.181c-.91.195-4.474.564-4.474.564h3.791c-.343.55-.894.94-1.527 1.083-.986.173-3.998.585-3.998.585h3.25a3.52 3.52 0 0 1-1.917 1.246c-1.084.195-3.315.52-3.315.52h2.329a6.5 6.5 0 0 1-1.81 1.083c-.79.238-2.88.607-2.88.607h1.7l-3.098 1.841v.304l3.553 3.466a7.193 7.193 0 0 1-1.495 1.734 8.256 8.256 0 0 1-1.55 1.083l-1.82-4.138c.088-.195.185-.401.26-.607.669-1.877.999-3.858.976-5.85a17.333 17.333 0 0 0-.098-1.94v-.27l-5.806-1.3h-.174l-5.763 1.3v.27a13.77 13.77 0 0 0-.108 1.972c-.029 1.99.305 3.97.986 5.84.075.216.162.422.26.639L81.5 61.109a8.667 8.667 0 0 1-1.55-1.083 7.085 7.085 0 0 1-1.473-1.734l3.543-3.466v-.304l-3.098-1.841h1.7s-2.09-.369-2.881-.607a6.5 6.5 0 0 1-1.81-1.083h2.319s-2.167-.325-3.315-.52a3.564 3.564 0 0 1-1.918-1.246h3.25s-3.011-.412-3.997-.585a2.427 2.427 0 0 1-1.527-1.083h3.802s-3.575-.369-4.474-.564A2.676 2.676 0 0 1 68.5 45.78h4.063s-3.37-.282-4.399-.477a2.102 2.102 0 0 1-1.451-1.235h4.257s-3.586-.379-4.398-.52a2.46 2.46 0 0 1-1.322-1.159h5.525s-4.82-.498-5.612-.65c-.79-.152-1.083-1.137-1.083-1.137h11.993c2.621 0 4.831 2.015 5.525 2.708.887.944 1.9 1.76 3.011 2.427.412 0 .975-.737.975-.737.259-.55.487-1.114.683-1.69a5.103 5.103 0 0 1-.802-.368 1.484 1.484 0 0 1-.466-.52h1.16c.303 0 1.224.227 1.148.693-.076.466-.78 2.676-.78 2.676a8.18 8.18 0 0 0 1.462.151c.726 0 2.026-.151 2.026-.151s-.607-3.835-.672-4.269c-.065-.433-.725-.585-1.289-.585a4.94 4.94 0 0 0-1.083.152c-.108 0-.152.152.087.282a.66.66 0 0 0 .476 0 .618.618 0 0 1-.227.433 2.1 2.1 0 0 1-1.084.195 9.988 9.988 0 0 0-1.159 0 .51.51 0 0 0-.368.26c-.054.098.14.498.14.498s-.346.152-.563-.411c-.214-.41-.144-.91.174-1.246a2.99 2.99 0 0 1 1.776-.152 2.026 2.026 0 0 1 1.084-1.018 4.333 4.333 0 0 1 2.166 0c.451.031.904.031 1.355 0l-.585.986s.476 2.979.628 3.748" fill="#002E6D"/><path d="M89.744 60.708c-.5.35-1.038.645-1.603.878L88 61.65l-.152-.065a8.352 8.352 0 0 1-1.57-.856l-.824 2.167c.818.245 1.67.354 2.524.325h.076c.854.03 1.706-.08 2.524-.325l-.834-2.189zm6.446 3.272c-.6-.01-1.192-.15-1.733-.412-.39-.173-.802-.953-.802-.953l.477-.27a.38.38 0 0 0 .195-.37c0-.097-1.69-3.888-1.896-4.333a8.85 8.85 0 0 1-2.167 2.698l1.268 3c.237-.03.472-.073.704-.13.216-.064.585-.216.585-.216l.53.867c-.25.079-.508.137-.769.173-.281 0-.877-.065-.985.466a.986.986 0 0 0 .596 1.192c-.239-.542 0-.845.26-.845h3.932c.628 0 .282.964.282.964a1.3 1.3 0 0 0 .693-1.311c-.108-.52-.52-.52-1.17-.466M93.146 48.91L88 47.73l-5.146 1.18v1.604c-.026.47-.026.94 0 1.409H93.19v-1.43a15.61 15.61 0 0 0-.076-1.582h.033zm-8.883 2.71l-.412-.304-.401.303.163-.477-.412-.303h.498l.184-.422.163.465h.498l-.4.304.119.433zm-.152-1.875l.151.477-.411-.293-.401.293.162-.477-.411-.282h.498l.152-.476.162.476h.499l-.401.282zm.466-.628h.498l.152-.477.151.477h.499l-.401.303.151.466-.4-.293-.401.293.151-.466-.4-.303zm1.31 2.502l-.4-.303-.401.303.151-.476-.4-.304h.498l.152-.466.151.466h.499l-.401.304.152.476zm0-2.838h.51l.151-.477.152.477h.498l-.4.292.151.477-.4-.292-.412.292.162-.477-.412-.292zm1.582 2.838l-.412-.303-.4.303.151-.476-.4-.304h.498l.151-.466.152.466h.498l-.4.304.162.476zm0-2.416l.152-.465-.401-.293h.498l.152-.477.162.477h.499l-.412.293.152.465-.271-.292-.53.292zm1.647 2.416l-.412-.303-.4.303.162-.476-.412-.304h.51l.14-.466.163.466h.498l-.4.304.15.476zm.108-2.361l-.4.292.151-.477-.4-.292h.497l.152-.477.152.477h.509l-.4.292.15.477-.41-.292zm1.517 2.361l-.401-.303-.4.303.15-.476-.4-.304h.498l.152-.466.152.466h.498l-.4.304.15.476zm.26-1.733l-.401-.293-.4.293.15-.466-.4-.303h.498l.152-.477.152.477h.498l-.4.303.15.466zm1.376 1.733l-.412-.303-.4.303.15-.476-.4-.304h.498l.152-.466.162.466h.499l-.412.304.163.476zm-.044-1.874l.163.477-.412-.293-.4.293.151-.477-.4-.282h.497l.152-.476.163.476h.498l-.412.282zm-53.7 38.133c0-.682 0-.736-.12-.953-.119-.217-.39-.412-.899-.433-.151 0-.227-.055-.227-.163 0-.108.075-.151.368-.151h4.041c.53.01 1.05.16 1.506.433a2.492 2.492 0 0 1 1.083 2.166 2.925 2.925 0 0 1-1.55 2.525l-.28.119v.065c0 .065 0 .065.097.087l.195.065c.158.043.314.098.466.162.464.21.877.516 1.213.9.426.52.65 1.178.628 1.852A3.25 3.25 0 0 1 44.212 97c-.791.823-1.604 1.083-3.315 1.083H37.69c-.173 0-.27 0-.27-.14 0-.141 0-.141.172-.174.225-.017.44-.1.618-.238a.66.66 0 0 0 .227-.303 1.82 1.82 0 0 0 .109-.412 3.997 3.997 0 0 0 0-.65v-6.002l.086-2.286zm1.083 2.525v.823c0 .065.076.238.379.238h.596a2.33 2.33 0 1 0-.12-4.647 1.267 1.267 0 0 0-.595.108.4.4 0 0 0-.184.163.628.628 0 0 0-.076.303v3.012zm0 4.409c0 1.895 0 2.166.249 2.296.449.228.949.336 1.452.314A2.28 2.28 0 0 0 42.966 97c.63-.494.987-1.258.964-2.058 0-1.799-1.408-2.925-3.63-2.925-.487 0-.54 0-.54.368v.282c0 .736-.022 1.44-.022 2.166l-.022-.021zm12.892 3.434A7.01 7.01 0 0 1 49 97.26a6.413 6.413 0 0 1-2.546-5.482 5.58 5.58 0 0 1 5.774-5.709 6.782 6.782 0 0 1 3.575.91 6.077 6.077 0 0 1 2.633 5.211 9.75 9.75 0 0 1-.152 1.517 5.222 5.222 0 0 1-1.354 2.827 5.59 5.59 0 0 1-4.138 1.712h-.184zm4.506-5.58a6.305 6.305 0 0 0-1.896-4.701 4.106 4.106 0 0 0-3.174-1.213 3.965 3.965 0 0 0-2.719.856 4.398 4.398 0 0 0-1.744 3.791c0 3.445 2.307 6.37 5.048 6.37s4.485-1.982 4.485-5.102zm2.264-6.218a.14.14 0 0 1-.108-.119c0-.108.076-.151.25-.151h3c.195 0 .282 0 .282.14 0 .141-.065.152-.239.174a.65.65 0 0 0-.552.606c.065.385.205.753.411 1.084l2.351 3.965a.076.076 0 0 0 .076 0l.141-.195 2.567-4.247c.158-.202.249-.448.26-.704a.444.444 0 0 0-.335-.455H67.2c-.13 0-.163 0-.163-.13a.173.173 0 0 1 .152-.184l1.3.065c.184 0 .91-.065 1.03-.065.118 0 .357 0 .357.162a.206.206 0 0 1-.152.173l-.347.076c-.303 0-.52.336-1.083 1.225l-3.109 4.972a.423.423 0 0 0 0 .27v3.554c0 .661.357.975 1.083 1.084h.271c.163 0 .26.086.26.205 0 .12-.065.152-.26.152H62.78c-.087 0-.163 0-.163-.12 0-.118.076-.118.336-.172.247-.057.481-.156.694-.293.26-.173.39-.596.39-1.397V93.11c0-.206 0-.25-.228-.585l-2.947-4.918c-.314-.51-.39-.694-.617-.856a3.456 3.456 0 0 0-.867-.304zm22.252 2.048c-.108 0-.152-.054-.195-.228a3.532 3.532 0 0 0-.098-.411c-.14-.51-.238-.661-.52-.835a2.72 2.72 0 0 0-1.386-.303 1.94 1.94 0 0 0-2.08 2.026c0 .9.617 1.712 2.058 2.708l1.084.704a3.13 3.13 0 0 1 1.7 2.85c0 2.101-1.386 3.25-3.878 3.25a5.99 5.99 0 0 1-1.43-.174l-.433-.086c-.109 0-.12-.065-.152-.293l-.108-.834c0-.152-.087-.53-.087-.53a3.456 3.456 0 0 1-.076-.586c0-.119 0-.162.13-.162s.152 0 .184.195c.08.366.239.71.466 1.007a2.47 2.47 0 0 0 2.091.791 2.167 2.167 0 0 0 2.275-2.232 2.437 2.437 0 0 0-.25-1.083 5.232 5.232 0 0 0-1.234-1.203l-.986-.693a6.76 6.76 0 0 1-1.7-1.473 2.708 2.708 0 0 1-.543-1.723 2.925 2.925 0 0 1 3.164-3.098c.479.006.957.046 1.43.12h.314c.292 0 .347.14.347.552v.227c0 .26.075 1.084.075 1.278 0 .195-.054.239-.162.239zm11.3 9.034a9.057 9.057 0 0 1-3.392.77c-3.726 0-6.12-2.362-6.12-6.013a5.99 5.99 0 0 1 1.635-4.333 5.016 5.016 0 0 1 2.308-1.57 5.99 5.99 0 0 1 1.971-.272 7.583 7.583 0 0 1 3.164.65l.628.228c.217 0 .26.098.26.422 0 .542 0 1.084.076 1.658v.065c0 .162-.065.227-.152.227-.086 0-.184-.075-.325-.422a4.69 4.69 0 0 0-1.354-1.506 4.095 4.095 0 0 0-2.437-.736 4.333 4.333 0 0 0-2.774.855 4.626 4.626 0 0 0-1.83 4.16c0 3.25 2.34 5.98 5.091 5.98a4.994 4.994 0 0 0 2.73-.845 4.34 4.34 0 0 0 1.203-1.603c.097-.314.151-.39.292-.39s.174.13.174.314a3.055 3.055 0 0 1-.109.574c-.087.304-.162.64-.162.64l-.098.444c-.065.292-.238.476-.78.704zm8.525.716a6.966 6.966 0 0 1-3.64-.986 6.392 6.392 0 0 1-2.557-5.482A5.58 5.58 0 0 1 101 86.07a6.814 6.814 0 0 1 3.575.91 6.088 6.088 0 0 1 2.622 5.211 9.75 9.75 0 0 1-.152 1.517 5.287 5.287 0 0 1-1.343 2.827 5.612 5.612 0 0 1-4.15 1.712h-.097zm4.507-5.58a6.338 6.338 0 0 0-1.885-4.701 4.138 4.138 0 0 0-3.185-1.257 3.976 3.976 0 0 0-2.72.856 4.42 4.42 0 0 0-1.744 3.792c0 3.445 2.319 6.37 5.049 6.37 2.73 0 4.485-1.94 4.485-5.06zm2.708-6.499h3.012c.119 0 .195 0 .195.119s-.054.119-.195.13a1.29 1.29 0 0 0-.889.487 1.365 1.365 0 0 0-.195.401c-.057.179-.09.365-.097.553v5.73a9.8 9.8 0 0 0 0 1.084c.082.885.515 1.7 1.202 2.264.788.547 1.743.8 2.698.715a3.618 3.618 0 0 0 2.806-.953c.563-.564.736-1.225.736-2.676v-6.338c0-.801-.184-1.083-.801-1.191h-.282c-.162 0-.184 0-.184-.141s0-.098.151-.098h2.774c.14 0 .216 0 .216.13s-.075.174-.357.195a.776.776 0 0 0-.715.618c-.05.18-.084.365-.098.552 0 .499-.086 1.918-.097 3.174v3.25c0 1.81-.27 2.525-1.138 3.25-.386.341-.858.57-1.365.661a10.28 10.28 0 0 1-1.993.195A4.648 4.648 0 0 1 110.457 97a3.51 3.51 0 0 1-.812-1.387 3.987 3.987 0 0 1-.195-1.148v-6.522c0-.986-.206-1.43-.65-1.484l-.4-.065c-.163 0-.228 0-.228-.151 0-.152.097-.141.195-.141l.303.065zm12.437.206c0-.196.065-.206.184-.206l4.539.076h4.669c.206 0 .25 0 .25.357.012.104.012.21 0 .314l-.26 1.084a.195.195 0 0 1-.174.151c-.076 0-.12 0-.12-.13v-.347c0-.335 0-.411-.205-.498a4.333 4.333 0 0 0-1.777-.206h-1.679c-.119 0-.184.065-.195.152-.01.087 0 .303 0 .412v9.078c0 .574.271.845.997.975l.314.065c.087 0 .26 0 .26.184s-.065.163-.195.163h-4.019c-.065 0-.12-.076-.12-.163a.162.162 0 0 1 .077-.13h.27l.531-.108a.78.78 0 0 0 .585-.477 9.523 9.523 0 0 0 .12-2.166v-7.584c0-.487-.066-.52-.878-.52h-1.083a4.258 4.258 0 0 0-1.495.217 1.7 1.7 0 0 0-.802.942c-.054.109-.076.12-.141.12-.065 0-.13 0-.13-.087a.39.39 0 0 1 0-.12l.14-.454.13-.672.207-.422zm16.38 2.123c-.098 0-.141-.054-.195-.228a3.153 3.153 0 0 0-.087-.411c-.152-.51-.238-.661-.52-.835a2.74 2.74 0 0 0-1.387-.303 1.95 1.95 0 0 0-2.09 2.026c0 .9.617 1.712 2.058 2.708l1.083.704a3.13 3.13 0 0 1 1.701 2.85c0 2.101-1.387 3.25-3.878 3.25a6.096 6.096 0 0 1-1.43-.174l-.434-.086c-.097 0-.119-.065-.151-.293l-.098-.834c0-.152-.097-.53-.097-.53a5.07 5.07 0 0 1-.076-.586c0-.119 0-.162.14-.162.141 0 .152 0 .185.195.074.367.234.712.466 1.007.527.58 1.3.874 2.08.791a2.167 2.167 0 0 0 2.285-2.232 2.297 2.297 0 0 0-.26-1.083 5.417 5.417 0 0 0-1.224-1.203l-.996-.693a6.662 6.662 0 0 1-1.69-1.473 2.643 2.643 0 0 1-.542-1.723 2.925 2.925 0 0 1 3.163-3.098c.48.006.957.046 1.43.12h.314c.282 0 .347.14.347.552v.227c0 .26.076 1.084.076 1.278a.163.163 0 0 1-.173.239zM44.18 114.052a7.01 7.01 0 0 1-3.652-.986 6.424 6.424 0 0 1-2.545-5.482 5.568 5.568 0 0 1 5.774-5.709 6.782 6.782 0 0 1 3.575.9 6.088 6.088 0 0 1 2.632 5.21 9.588 9.588 0 0 1-.151 1.517 5.254 5.254 0 0 1-1.355 2.838 5.59 5.59 0 0 1-4.149 1.712h-.13zm4.506-5.634a6.294 6.294 0 0 0-1.853-4.69 4.128 4.128 0 0 0-3.25-1.225 4.052 4.052 0 0 0-2.719.856 4.442 4.442 0 0 0-1.733 3.803c0 3.434 2.307 6.37 5.037 6.37s4.518-1.94 4.518-5.114zm9.382-6.424c.13 0 .173.109.195.368v1.734c0 .13-.066.292-.152.292-.087 0-.163-.108-.184-.303a1.44 1.44 0 0 0-.802-1.322 2.232 2.232 0 0 0-.64-.119h-2.718c-.325 0-.358 0-.358.25v4.333c0 .119 0 .195.12.195h2.61a.953.953 0 0 0 .542-.12c.068-.099.12-.208.152-.325.04-.112.069-.228.086-.346 0-.174.054-.25.152-.25.097 0 .162.109.162.304v1.007c.004.42.033.84.087 1.257 0 .195.054.38.054.423 0 .043-.054.195-.162.195-.109 0-.152-.12-.228-.477-.195-.845-.357-.997-1.213-1.008h-2.058a.39.39 0 0 0-.206 0c-.076 0-.098.13-.098.477v3.153a3.077 3.077 0 0 0 .195 1.527c.12.217.434.347.932.38.238 0 .346.075.346.183 0 .109 0 .13-.205.13h-3.51a.097.097 0 0 1-.087-.097c0-.097 0-.14.195-.152.291-.01.568-.125.78-.325a.888.888 0 0 0 .217-.487 5.417 5.417 0 0 0 0-.726v-2.373l.086-5.189v-1.386c0-.585-.303-.889-.79-.9-.304 0-.423-.064-.423-.162s.12-.152.292-.152h6.674l-.043.011zm11.808.423l.13-.347a.195.195 0 0 1 .217-.162.217.217 0 0 1 .216.173l.195.541c.683 1.896 1.452 3.89 2.297 6.013.758 1.96 1.224 3.11 1.343 3.423l.217.564c.099.25.234.483.4.693.146.113.317.188.499.217.27 0 .347.065.347.206a.152.152 0 0 1-.152.151h-3.087c-.174 0-.228 0-.228-.14 0-.141.087-.163.314-.174a.715.715 0 0 0 .64-.77 3.174 3.174 0 0 0-.141-.65l-1.203-3.25c0-.13-.097-.162-.184-.162H68.12a.26.26 0 0 0-.152 0 .282.282 0 0 0-.086.13l-1.257 3.185a2.438 2.438 0 0 0-.184.77.81.81 0 0 0 .195.487c.108.108.14.12.498.195.358.076.325.108.325.217a.163.163 0 0 1-.152.13h-1.3l-1.386.065c-.13 0-.206 0-.206-.152s.076-.195.314-.292c.433-.163.65-.412.92-1.084l3.468-8.179.758-1.798zm.173 1.722h-.076a.162.162 0 0 0-.108.076l-1.452 3.553a.813.813 0 0 0-.075.314c0 .098 0 .141.205.152h2.687c.195 0 .27-.065.27-.195a.303.303 0 0 0 0-.097l-1.353-3.521-.098-.282zm17.009 1.354c0-.086 0-.151-.087-.151a.13.13 0 0 0-.098.076l-.238.498a80.634 80.634 0 0 0-1.592 3.662c-.824 2.047-1.376 3.38-1.68 3.975l-.162.336a.206.206 0 0 1-.141.12c-.087 0-.13 0-.162-.13l-.228-.488a61.232 61.232 0 0 1-1.744-4.041c-.737-1.874-1.192-2.892-1.593-3.683l-.216-.401a.325.325 0 0 0-.098-.109.12.12 0 0 0-.097 0v.293l-.52 6.5v.628a.997.997 0 0 0 .108.575c.13.205.282.26 1.083.39.152 0 .206 0 .206.162 0 .163-.086.163-.249.163h-1.69a7.583 7.583 0 0 0-.758 0h-.26c-.13 0-.163 0-.163-.12 0-.119.076-.13.271-.184a.834.834 0 0 0 .737-.758l.086-.585c0-.174.304-2.882.304-2.882l.422-4.734c.098-1.083.13-1.636.13-2.026v-.162c0-.445.065-.629.228-.629.162 0 .195.109.303.38l.867 2.166c.27.661 3.25 7.41 3.25 7.41s.065.109.097.109c.033 0 .076 0 .109-.109l.411-.986c.34-.78.892-2.036 1.658-3.77.902-2.015 1.567-3.585 1.993-4.712l.108-.271c0-.152.12-.206.206-.206.087 0 .184.098.195.282l.12 2.037.108 1.614.346 6.001c.065 1.17.315 1.604.986 1.712.26 0 .38.108.38.228 0 .119-.087.162-.315.162h-3.206a.152.152 0 0 1-.174-.152c0-.086.065-.13.217-.195.501-.122.857-.567.866-1.083v-.77l-.054-1.17-.27-4.972zm6.435-2.816c-.228 0-.282 0-.282.173v4.333c0 .152 0 .174.13.174h2.242c.845 0 1.084-.109 1.084-.64 0-.238.097-.314.195-.314.097 0 .119.065.119.174v1.332l.097 1.084v.227c0 .076 0 .12-.108.12s-.152-.077-.195-.423a.856.856 0 0 0-.953-.824h-2.579v3.717c0 1.203.141 1.42.813 1.441h.877a9.392 9.392 0 0 0 2.08-.184c.3-.139.564-.347.77-.607.13-.19.226-.403.281-.628 0-.12.065-.152.141-.152.076 0 .13 0 .13.13-.035.3-.092.597-.173.889l-.184.65c-.087.422-.152.476-.434.476h-6.576a.108.108 0 0 1-.119-.108c0-.087 0-.13.347-.195a1.87 1.87 0 0 0 .596-.271c.162-.12.227-.293.238-.748v-5.644s0-3.033-.054-3.25a2.242 2.242 0 0 0-.206-1.083.574.574 0 0 0-.466-.206h-.357a.152.152 0 0 1-.152-.151c0-.087.087-.152.238-.152l3.185.065 3.543-.076a.227.227 0 0 1 .195.25v.162a3.044 3.044 0 0 0 0 .325c-.018.31-.018.621 0 .931a.966.966 0 0 1 0 .228c0 .162-.065.238-.152.238s-.119 0-.162-.162l-.087-.293c-.25-.78-.618-.986-1.712-.986h-1.766l-.584-.021zM101 113.802h-1.625a.108.108 0 0 1-.12-.119c0-.076 0-.13.163-.162l.38-.109a.867.867 0 0 0 .617-.715 20.01 20.01 0 0 0 .12-2.361v-7.432c0-.314-.207-.585-.423-.617l-.434-.076a.948.948 0 0 1-.238 0 .152.152 0 0 1-.076-.141c0-.12.108-.162.26-.162h.358l1.83.064h1.994a2.697 2.697 0 0 1 2.752 2.817 3.044 3.044 0 0 1-1.084 2.481l-.78.618s1.019 2.069 1.603 3.054c.39.661 1.084 1.636 1.084 1.636l.281.369c.301.278.679.46 1.084.52l.325.076c.14 0 .173.064.173.14 0 .076 0 .12-.216.13h-1.984a1.083 1.083 0 0 1-.91-.725l-.336-.575a32.028 32.028 0 0 1-1.083-2.069c-.477-.986-.694-1.451-.867-1.863l-.097-.195a.553.553 0 0 0-.553-.282h-1.397c-.315 0-.206.098-.206.325v2.958a8.2 8.2 0 0 0 .065 1.289.943.943 0 0 0 .671.671l.466.087c.195 0 .239.065.239.174 0 .108 0 .13-.152.13h-1.809l-.076.064zm.683-6.359c0 .228.14.293.65.293 2.014 0 3.12-.91 3.12-2.524a2.61 2.61 0 0 0-2.915-2.633c-.715 0-.823.12-.823.9l-.032 3.964zm10.714 4.54c0 .866.065 1.083.303 1.3.214.142.46.23.715.26.184 0 .27.086.27.184a.14.14 0 0 1-.15.151h-3.392a.152.152 0 0 1-.151-.151c0-.109.065-.174.368-.239a1.08 1.08 0 0 0 .66-.53c.163-.347.163-.52.174-3.001V103.9a5.19 5.19 0 0 0-.054-.758c0-.423-.238-.716-.51-.78l-.476-.098c-.108 0-.14 0-.14-.12 0-.118.064-.162.249-.162h3.239c.119 0 .14 0 .14.12 0 .119-.086.184-.325.227a1.202 1.202 0 0 0-.693.39.877.877 0 0 0-.162.368c-.1.921-.14 1.848-.12 2.774v4.008l.055 2.112zm12.111 1.354a9.24 9.24 0 0 1-3.39.758c-3.716 0-6.121-2.35-6.121-6.002a6.034 6.034 0 0 1 1.635-4.333 5.07 5.07 0 0 1 2.308-1.56 5.72 5.72 0 0 1 1.972-.27 7.583 7.583 0 0 1 3.163.65l.628.227c.217 0 .26.097.26.411 0 .542 0 1.084.076 1.669v.065c0 .162-.065.216-.151.216-.087 0-.185-.065-.326-.411a4.572 4.572 0 0 0-1.354-1.506 4.073 4.073 0 0 0-2.437-.737 4.333 4.333 0 0 0-2.773.856 4.615 4.615 0 0 0-1.831 4.16c0 3.25 2.34 5.98 5.091 5.98a4.972 4.972 0 0 0 2.73-.845c.525-.43.938-.98 1.203-1.603.097-.314.151-.39.292-.39s.174.13.174.314a3.25 3.25 0 0 1-.109.574c-.086.293-.162.64-.162.64l-.098.432c-.065.293-.238.477-.78.705zm7.432-10.92l.13-.347a.195.195 0 0 1 .217-.162c.108 0 .162.054.216.173l.195.541a229.77 229.77 0 0 0 2.297 6.013c.758 1.96 1.224 3.11 1.354 3.423l.206.564c.1.25.234.483.4.693.146.113.317.188.5.217.27 0 .346.065.346.206a.152.152 0 0 1-.152.151h-3.066c-.173 0-.227 0-.227-.14 0-.141.086-.163.314-.174a.726.726 0 0 0 .65-.77 3.543 3.543 0 0 0-.152-.65l-1.202-3.25c0-.13-.098-.162-.184-.162h-3.575a.26.26 0 0 0-.152 0 .282.282 0 0 0-.087.13l-1.256 3.185a2.437 2.437 0 0 0-.184.77c.009.18.077.35.195.487.108.108.13.12.498.195.368.076.325.108.325.217a.162.162 0 0 1-.152.13h-1.3l-1.386.065c-.13 0-.206 0-.206-.152s.076-.195.314-.292c.433-.163.65-.412.92-1.084l3.467-8.179.737-1.798zm.173 1.722h-.075a.162.162 0 0 0-.109.076l-1.451 3.553a.812.812 0 0 0-.076.314c0 .098 0 .141.206.152h2.686c.195 0 .271-.065.271-.195a.303.303 0 0 0 0-.097l-1.354-3.521-.098-.282zm4.907-1.224h.174c.195 0 .369-.065.369-.26s-.098-.27-.369-.27h-.173v.53zm0 .834h-.27v-1.506c.144-.013.29-.013.433 0a.823.823 0 0 1 .477.12.368.368 0 0 1 .14.314.39.39 0 0 1-.302.368c.13 0 .227.14.26.368a.845.845 0 0 0 .097.369h-.26a1.257 1.257 0 0 1-.097-.38.292.292 0 0 0-.325-.27h-.174l.022.617zm.25-1.939a1.16 1.16 0 0 0 0 2.308 1.083 1.083 0 0 0 1.083-1.149 1.083 1.083 0 0 0-1.083-1.159zm0-.206a1.365 1.365 0 1 1-1.354 1.354c0-.743.6-1.348 1.343-1.354h.011z" fill="#002E6D"/></g></g></svg>