<?xml version="1.0" encoding="UTF-8"?>
<svg id="Layer_1" xmlns="http://www.w3.org/2000/svg" version="1.1" viewBox="0 0 650 719">
  <!-- Generator: Adobe Illustrator 29.6.0, SVG Export Plug-In . SVG Version: 2.1.1 Build 207)  -->
  <defs>
    <style>
      .st0 {
        fill: #3a2a17;
      }

      .st1 {
        fill: #693d27;
      }

      .st2 {
        fill: #2f251d;
      }

      .st3 {
        fill: #fbca09;
      }

      .st4 {
        fill: #df2240;
      }

      .st5 {
        fill: #2779b1;
      }

      .st6 {
        fill: #f2f2f2;
      }

      .st7 {
        fill: #f8c90c;
      }

      .st8 {
        fill: #f6c80e;
      }

      .st9 {
        fill: #2e2a29;
      }

      .st10 {
        fill: #ebc41c;
      }

      .st11 {
        fill: #f4c710;
      }

      .st12 {
        fill: #2e221d;
      }

      .st13 {
        fill: #2e2722;
      }

      .st14 {
        fill: #fdfdfd;
      }
    </style>
  </defs>
  <path class="st13" d="M329.1,0c7.6,25.5,19.5,49.4,33.6,71.9,21.5,34.3,41.1,60.4,57.4,98.6,13.8,32.5,23.1,66.2,26,101.5,1.1.2,2,0,3-.5,4.1-2.2,11.9-10,16.7-13.3,29.2-20.4,71-34.5,106.3-24.2v2c-.6-.2-2.3.3-3.4,0-1.8-.5-3.1-2-5.1-2.1s-1.3,2.2-2,2.1c-1.4,0-6.8-5-6.5,0-4.1-.3-23.7.9-27,2,.5-4.5-6-1.3-6,2-23.5,4.8-49.2,16.6-66,34-3,1.1-5.9,4-8.5,6s-5.6,7.8-7.5,3c0-.3,0-.7,0-1-.5-4.7-.1-10.8-2-15-2.7-60-31.7-115.6-63-165-1-1.5-2-3.4-3-5-13.5-21.5-28.3-42.4-38.8-65.6-2-4.4-2.8-9.6-5.6-13.3-1.5,0-8,16.2-9.3,18.7-2.6,4.9-8.5,16.1-12.2,19.3s-4.6,2.2-5,2.7c-1.1,1.2-3.6,5.8-3,7.3l2,1c-5.6,9.7-23.9,36.8-26,45-.9.4-1.7,1-2,2s.1.7,0,1c-2.9,1.1-2.9,5-4,7s-2.8,4-4,6c-2.7,4.7-7,9.5-8,15-1,1.2-1.3,2.1-2,3-2.3,3.1-5.6,5.7-6,10-10.5,8.6-29.5,74.3-31.9,89.6s-1.2,31.8-4.1,40.4c-1,0-2.1,0-2.9-.5s-4.1-2.8-5.1-3.5c-36.6-28.3-64.3-48.1-114.4-39.9-2.6.4-5,1.4-7.6,1.9l12,5,6,3-4,2c-4.8-1.5-10.5-2.5-15.2-4.1s-1-3.5-6.5-1.6-4,5-4.2,5.7h-3c-.1-.4-.7-1.3-1-2-.5-1.2.9-3.2-3.3-2s-.7,1.5-1,1.6c-2,.9-5.5.7-5.7,4.3-5.8,3.5-13.2,11.1-18,16-2.8.4-5.6,3.2-6,6-12.2,12.3-20.9,28.9-24,46s-2.6,22.4-1.7,31.2.4,4.9,1.7,6.8c2.8,42.3,40,87.1,74.7,108.8,3.2,2,17.3,10.9,20.2,9.1s0-10.5,0-13.4c.7-31.5,9.4-65.7,42.9-76.2s28.3-1,43.2,1.7c.7-2.4-2.5-2.6-3-4,3.7,1,3.1,1.3,5,2l-3,4,7-2c1.9.6,6.6.6,9,1s1.6,2.1,3,0h1c0,.6,0,1.4,0,2,0,1.1-.2,4.8,0,5,.3.3,2.3-.3,3.2,0,1.6.6-.4,1.7,4.8,2,0,1.2.2,3.2,1,4-1.9,0-3.9-.9-2.6,2.1s12.5,17.5,14.1,18.9c5.2,5,6.7-1.7,10.3-3.7s4.7-1.1,5.3-1.9.2-13.5-.1-14.4c-.7-2.1-5,.5-4-3,3.2-1.5,5-4.8,4-8.3s-2-.6-2-.7c-.7-1.2,1.6-4.9-2-4,1-.8,3.9-3.3,4.1-4.5.4-3.1.5-8.2-3.1-8.5s-5.6-.3-7,0c.2-.8-.3-2.7,0-3s3.1.5,2-3c8.5,1.5,7.6-3.9,9-10-.7-.2-2.8.2-3,0s.4-2.2-.1-2.8-1.7,0-1.9-.2c-.3-.3,1.3-4.6,0-6,.6,0,1.4-.2,2,0s0,1.5,2,1c.1-.6-.2-1.5,0-2,.4-1,1.5-1.4,0-3,1.1-.2,2.4-1,3-1,6.6-.5,4.5,1.7,5,2,.8,3-1.9,1.5-2.8,2.2s0,1.5-.2,1.8c-.7,1.6-1.3,1.8-1,4,.7,5.3,3.5,2.9,4,3,9.2,2,20.9,8.5,24-5-1.7.1-9.4-3.6-9.8-4.2-3.4-5.8,6.2,0,7.3.1,2.9.5,6.4-.2,9.4,0,1.6,1.4-9.1,10-.5,10.1s14.9-3.7,15.8-4.2c1.8-1.1,5.3-6.7,2-7.7s-6.2.2-8.9-.2-3.1-.8-1.5-2c5.7,0,11.4.3,17-1,1.1,1.1-4.5,9.2-.5,8s15.4-8.2,14.5-11.5-4.4.4-4.7.5c-8.4,2-6-3.1-8.3-4.5s-6.1-.5-6.5-.4c-4.6.4-5.5,4.1-7.3,4.9-7.1,3.3-17.8,1.7-25.5,2-1.9-2.6-4.7-3-7.2-5-7.3-5.8-11.4-15.1-16.8-20.7s-4-1.7-4.5-2.5,0-2.5-.5-3.4c-1.5-2.3-7.3-5.5-9.7-7.3,4.3-.6,1.6-.6-1-1s-.7,0-1,0c-.9-2.1,0-4.1,0-6,.9-37,4.5-71.1,18-106,.8-2.1,2.8-5.1,4-8,2.7-6.4,5.3-12.9,8.3-19.2s10.8-17.9,11.7-22.8l18-28c4.1-1.1,3.3,2.8,4,6-27.3,45.9-46.6,82.8-54,137-.2,1.8-2,7-2,8.5v36c0,.3,2.8,4.5,4,3.5.1.3-.1.8,0,1,.8,1.4,4.5,4.7,6,6,7,10,20.8,28.9,34.3,27.8.7,0,9.3-2.5,9.6-2.9.5-.6-.2-3.3.6-4.9s6.3-4.9,7.6-6.4c6.9-8,7.4-10.6,2-19.6s-6.7-7.4-12-12-13.9-13.4-16-11.5.5,4.2-3.4,3.5-5.9-3.9-6.6-4.7c-5.3-7.3-.2-13.5,4-19.3,7.5-5.7,17.4-2.1,26-2,8.7.1,4.3-1.1,9-4.5s10.6-1,12.5-6.5c.3-16,2-32.1,2.5-48l2-18.5c.2-4.2-.2-8.4,0-12.5.7-14,1.5-28,2-42h1c.7,6.6,4.6,12.9,3,20-.2,6,.1,12,0,18-1.6,6.2-1.3,14.5-1,21-1.7,1-1,3.8-1,5.5,0,7.8,0,15.7,0,23.5l-2,17.5v19.4c.5.4,1.8,0,2,.1.7.4,1.5,1.8,2,2-4.8.3.2,1,2,3-.8,0-1.7,0-2,1-9.5-1.8-17.2-4.4-24,5,7-2.3,5.9,10.1.6,9s-3.9-7.6-7.3-8.7-13.3-2.1-15.9-2.1c-6.6,0-12.5,5.9-12.5,12.4s.9,6.3,1.1,6.5c1.6,1.7,3.4-4.8,4.6-5.9s2.9-1.7,4.4-2.7.8-2.2,1.8-2.4c3.8-1,20.5,2.9,22.1,7.7,2.7,8.4-7.7,6.8-12.8,4.8s-3.1-7.9-10-5l17.5,15.5.5-4c1-1,9.4,2.5,10.9,3.6,3.9,2.6,8.4,13,9.7,13.4,3.4,1,7.6-6.6,10.8-6s1.8,8.2,7.5,5.5,3.3-5.2,6.3-4.4,3.8,7.9,5.2,7.9c2.6-1.9,5.6-7.4,8.9-7s5.2,8.7,10.5,7c.6-.5-2.3-8.8-3-10,.2-.7.9-1.4,1-2h1c-.2,2.4,2.7,2.7,3.3,4.2,3.6,8.3,0,21.1.9,30,.4,3.8,5.7,8.9,9.5,9.5,8.5,1.4,11.7-6.5,17.2-10.8s.9.2,1.7-.3,1.6-5.2,2.3.3c-.2.5.4,2.3-.3,3.7s-7.7,8-8.7,8.8c-6.1,4.9-13.2,4.5-20.3,1.4s-.3-1.8-1.2-2-1.3,5.5-6.8,4.9c-2.2-.3-5.7-5-7.2-6.8-3.8,2.3-6,5.9-8.3,9.5l8.8,7.5c.2.4.6.9,1,1,5.6,1.4,4.7-1.8,5-2s3.4-.8,3.6-.8c1.3.2,1.2,2.5,1.4,2.8,0,.6-.1,1.4,0,2l-3,.5c1,1.8,2.8,1.1,4,1.5s2.7.7,4,1,4.2,2.6,6,0c1.2.2,1.2-.3,2,1s-.6,1.8.6,2.1,3.8-.3,5.4,0c0-.7,0-1.3,0-2s0-1.3,0-2c3,0,1.1,3.5,5,1-1.3,6.2,7.6.8,11,4-24.1,6.5-53-9.7-71.6-23.8-1.5-.1-15.1,9.7-18.3,11.3-18.4,9.3-40.6,12.3-61,9.5-1.8,45.7,1.6,89.7,26.4,129.1.6,1,.4,2.6.6,2.9s.7.1,2,2h-2c-.2-.5.2-1.8,0-2s-2.2.2-3,0c-8.1-12.8-12.1-20.4-19-34,1.3-5.5-3.3-6.5-2-12-.8-.3-1.9,1.7-2,2l-4-25c-3.4-.7-7.2,1.6-9.4,4.1-9.3,10.9,0,33.5,1.3,46.5,1.2,12.2-1,26.1-7.9,36.4-.6-.4-3.4.7-4-1,1-2.4,6.7-18.3,6-19-12.3-.8-20,13.4-14,24v1.4c-.9,1.1-2.4,0-2,1.6h5c.3.3.7.6,1,1s-.3,1.5,0,1.9,2.8,0,3.9.1.7,0,1,0c-.6,3,1.5,1.9,3.5,2s6.9-.5,8.9,0,.6,3.5,2.6,2-.4-3.1,4-1.9v4c9.1-2,0,7,0,11-.3.5-.7,1.4-1,2s-1.7,1.2-1,3c1.9-.2,4.2.3,6,0v7c-2.3-.7-2.9-2.9-7-3s-1.8,0-3,1-.7.6-1,1c-.9-.7-2-.7-3-1s-.7,0-1,0c-3.9-.8-5.6-3.3-5,3-.7-.2-2.1.1-3,0s-1.3-.8-2-1c4.6-3.4,11.8-8.1,15-13-.2,4.6,4.2,1.3,1-2,.7-1.4,3.5-8,.5-8h-15c-.5,0-8-4.9-8.6-5.4-1.5-1.3-1.5-3.1-1.9-3.6s-1.4.3-2.3-1.2c-7.2-11.3-.7-25.8,11.1-30.6s7.1-1.1,7.9-2.1c3.7-5.1-5.9-31.6-6.5-38.7s1.9-10.5.5-15.4-9.5-14.1-11.6-16.4c-20.4-23.5-61.2-34.3-86-11-15.9,14.9-20.3,44.1-20.1,65,0,6.2,1.9,14.3,3.1,20.5-2.7,2.4-35.4-19.4-39.9-22.6-31.9-23-60.1-54.7-68.6-94.4-1.4-6.6-1.6-13.5-3.5-20,.5-8.1-.7-17,0-25,1.2-13.8,9-34.2,17-46s4.9-6.8,6-8c46.4-54.3,112.8-53.2,168.9-14.4,2.1,1.5,12.7,10.9,14.1,9.4,3.2-34.7,11.4-68,25.8-99.7,27.3-59.8,72.5-110.3,95.1-172.3h2ZM293.1,283c6.5.2,4-5.3-1-5l1,5ZM314.9,313.2c-.2-.3-1.7-.5-2.2-1.2-1.7-2.4-2.4-5.5-4.2-7.9s-8.6-9.3-12.4-8.1c14.2,11.5,16.4,24.6,3,38,2.9-.6,6.9,1.7,9.3,1.1s0-6.9,4.6-5.1c-.6,18.2,8.7-.7,12,2s1.7,7,2.6,7c1.9-1,4.7-.7,6.4-1.6,3-1.5,1.9-6.6,5.5-5.5s1.8,19.7,12.1,3.1c1-.2,6.9,5.3,8.4,6.4s1.2,2.3,2.5.5c3.5-6.9.8-11.8-4-16.9-3.5.4-2.8,5.8-6,5.9-5.5.1-5.5-9.1-9-9.1s-3.6,5.8-7.1,6.1-5.4-6.5-8.1-7-5.2,5.8-7.9,6c-2.4.4-2.6-4.8-4.1-5.1-3.3-.7-5.2,3.2-8.3,3.1-1.3-4.3,8.9-8.3,6.8-11.8ZM328.3,312.8c-2.9-1.7-1.8-11.8-11.1-.2,2.7,3.4,1.8,9.5,6.9,6.9s1-4.3,4.4-3.6,5.3,11.9,11.1,5.1c1.9-2.2.5-5.7,5.7-4.1s4.6,7.4,7.1,7,3.2-9.3,5.6-7c-.6,2,4.7,8.4,6,7,1.1-4.2-7.7-13.8-10.7-14.9s-2.2,1.4-3.9,2.7c-7.7,5.9-7.8-2.7-11.9-2.8s-6,5.7-9.4,3.8ZM337.6,341c-3.9-.2,0,8.1,4,8,.6-2-2.4-7.9-4-8ZM245.1,539c.5-4.2-1.5-4.2-1,0h1Z"/>
  <path class="st13" d="M439.1,560c27.8.3,46.3-19.6,51-46,25.6,8.3,45.3,37.4,44,64.5-3,62.3-72.2,90.4-120.9,53.9-4.7-3.5-9.5-9.6-13.6-12.4s-1-1.4-2.5-1c-9.7,26.2-21.3,52.6-39,74.5s-17.7,17.2-27,25.5h-3c-5.9-6-13.6-10-20-15.5-24.4-21.2-36.5-52.2-50.5-80.5-33.3,38.1-86.7,41.7-119.4.4-20.6-26-24.3-56.4-2-82.9,9.4-11.2,19.9-16.1,34.3-18.5,1.8.6,2.6,8.3,3.4,10.6,5.3,14,16.3,20.4,29.2,26.3-.1,0-1.2.8-2.4,1-2.6.4-5.2-1.4-4.6,2-2.6-.9-4.9-1-8-3l1.5-3c-1.6.6-8.8-3.5-9.3-4.2-1.3-2.1,2-4.8-4.2-3.8-4.7-5.5-7.6-11.9-11.6-17.9-1.3-.4-6,1.6-7.6,2.2-18,7.6-30.2,32.9-28.8,51.7.4,5.9,2.1,9.8,4,15,21.1,58.8,92.2,61.4,126.4,12.9.9-.8,2.4-1.4,3.4-.8,1.6.9,11.2,28.7,13.3,33.2,10.3,22.9,23.5,44.1,43.9,59.1,5.7,4.2,7.4,6.9,14.5,3.6,10.5-4.8,28-29.4,34.2-39.7,11.4-19.1,18-40.5,27.7-60.3,1.1-.3,13.1,13.4,15.5,15.5,42.3,37.8,107.7,18.8,115.8-39.1,3.4-24.5-10.1-48.4-31.3-60.3-5.9,8.9-7.7,18.9-15.6,27s-6.6,5.7-7,6c-7.5,5.1-17.3,8-26,9l.5-4c-1.4.9-9.2,2.8-8.5-1Z"/>
  <path class="st13" d="M409.1,551c-.3,0-.7,0-1,0v-1c.8,0,1.1.1,1,1Z"/>
  <path class="st13" d="M591,241l-1,.5c-.5,3.7,1.6,3.4,3,.5,26.1,12,40.3,34,50,60.5l7,26.5v21c-2,6.9-1.8,14.1-3.3,21.2-9.9,48.3-47.7,80.1-88.4,103.6-2.3,1.3-16.3,9.2-17.3,8.2,7.7-40-4.4-94.1-55.5-90-22.9,1.8-52.3,22.8-60.7,44.3s-1,9-1.8,13.2c-2.1,9.9-5.2,19.8-5.9,30.1-1,13.8,4.1,7.7,11.5,14.5,7.6,7,9.8,23.8,1,30.1-1.5,1.1-3.4.8-3.5.9s.3,1.5-.2,1.8c-4.8,3.1-10,4.9-15.8,4.2-1.1,1.1,5.2,16.6,7.2,17.8s2.9.5,4.8,1.2c-1.4.9-5.4,1.1-7,1s-.7,0-1,0c1-4-2.5-3.3-5.4-4.1l-.6,2.1c-1-.1-2,0-3,0,0,0-.9-1-1-1,.5-6.9-.1-4-3-5s-.9-1.4-1-2c.7.1,1.7,1.3,2,1,.2-.8-.3-2.6,0-3,.5-.9,1.4,2.1,2-4,0-.7,0-1.3,0-2l2,1c.6-3.9-.6-3-4-3v-2c.5,0,4-1.8,8-2h1c.3,0,.7,0,1,0,1.8-.2,13.5-1.5,14-2s-1.6-4,3-3c-2.7-3.8,2.9-3.7,3.1-6.5s-2-2.3-2-3.1c-.1-1.3,1.9-8.9-2-8.4,0-1,0-2,0-3s0-2,0-3l-3,1c-3-2.7-3.7-4-8-4s-2.7-.2-2.9,0-1.1,6.8-1.1,7.9c-1.7-1-1-3.8-1-5.5-.2-15.7,1.1-25.4,4-40.5,3.1.8,1.9-2.3,2-5s0-.7,0-1c3,.6,1.9-1.5,2-3.5,0-3,.1-6.1,0-9.1s1-4-2-3.5c0-.7.1-1.4,0-2-.4-2.7,1.5-4.2,3-6,2.2-2.7,4.8-5.3,7-8s1.2-1.1,2-2,1.3-2.1,2-3c1.3-1.6,3.1-2.2,4.6-4.9s2.2-1.3-.1-3.1l-6.5,7c-.3,0-.7,0-1,0-2.3,0-4.8.2-7,0-6-.6-5.2-2.6-6-3v-3c3.4,1.5,5.2,3.3,10.3,1.8s1.3-4.8,1.7-6.8,2.7-1.3,2-3c.8.5,4.1,2.7,4.6,2.7,1,0,5.8-.5,6.7-.7s.7-2.6,2.7-2c-.1.3.1.7,0,1s-1-.1-1,.5l1,.5c4,.4,3.7-5.7,4-6,1-1.1,11,2.8,12-4s0-1.4,0-2c3.5,0,4.5.9,4-3,.4.3,2.4-.3,3,0,.9.4,3,5.1,3-.5l-1-.5c.3-.2.4-1.1,1.7-1.8s2.9,0,3.3-.2c-.7,2.6,1.7,1.7,2,2s-.5,1.7.7,2c3,.8,12.1-1.2,16.8-1,8.4.4,18.6,2.9,25.8,7.2,26.1,15.6,30.2,49,30.7,76.8.8.9,8-3.4,9.4-4.2,44.1-25.7,80.8-60.8,84.6-115.3,2.8-39.9-17.7-89.9-56-106.5,0-1.3,0-2.7,0-4,.4-.1.7-.6,1-1,.8.3,1.4.7,2,1ZM410.1,542l-3,.5c.9,1.1,1.5,1.8,3,1.5v-2ZM411.6,543v1c.6-.3.6-.7,0-1Z"/>
  <path class="st12" d="M589,240c-.3.4-.6.9-1,1-2.9,1-3.7.4-5,4-.1-.2-.9-1-1-1,.7-8.7-4.2-2.1-4.7-2-1.6.4-3.6-.1-5.3,0-1.1-3.9,4.9-.3,4-3.5s-3.8-2.4-4-2.5v-2c5.5,1.6,11.8,3.8,17,6Z"/>
  <path class="st9" d="M593,242c-1.3,3-3.5,3.2-3-.5l1-.5c.7.3,1.3.7,2,1Z"/>
  <path class="st2" d="M214.2,578c1.3,0,2.7,0,4,0,0-2.8-.1-6.7-2-9s-14-3.9-18.3-5.3-1.6-1.7-1.7-1.7c-.7-3.3,2-1.5,4.6-2s2.3-1,2.4-1c4.9,0,11.3,1,17,1s2,0,3,0c-2.9,5.9,0,5.6,5,6s1.3,0,2,0c0,.7,0,1.3,0,2-4.8,2.8-5.9,6.1,1,6s5.2-5.4,5-10c-1.7-.3-.7,1.2-1,2h-2c-1,0-2,0-3,0,.1-5.8-.9-3.1-2-4s-1.3-1.3-2-2c-1.4-1.3-2.6-1.3-2-4,.4-.3.6-.7,1-1,.6.2,1.4.9,2,1l5.5,5c1.5-1.4-1.2-4.5-2.5-5-.6-6.3,1.1-3.8,5-3-5.3,2.9,5.4,9.4,1,0,1,.3,2.1.3,3,1,1.5,7.7,5.8,10.3,13,12-.7.9-1.7,3.6-3,4.5,0,.7,1.4.7,2,1.5-4.2-.4-2.4.1-3,2.5s-3.2,7-1,9,2.2-.6,3-1.5c-.2,1.9.2,4,0,6,3,.9,1.1-2.6,4-2-7.7,15.5-15,29.1-31.3,37.2-32.2,16-73.1-2.7-77.6-39.2-.4-3-.4-10.1,0-13s2.9-11.1,3.5-13,7.7-10.1,8.9-10.1c2.3,0,6.3,9.6,8.1,12,12.1,16.8,29,18.4,48.4,18.1ZM218.9,585.7c-4.4,1.9-25.3-.6-30.9-1.9-15.3-3.6-20-10.5-28.9-22.1s-1.6-2.6-2.8-1.7-3.4,14.4-3.5,16.5c-.6,27.2,22,47.9,48.9,45.5,14.3-1.3,37.8-14.5,42-28.9s-.5-2.1-3.3-3.3-3.1-3-3.2-3.2c-1.4-1.9-2.7-6.3-3-6.5-.6-.5-12.3,3.5-14.2,4.1s-.8,1.5-1.1,1.6ZM246.1,568c-.4-1.9-3.7-3.2-5.5-3-2.1,3.8.9,3,3.5,3,0,.7,0,1.3,0,2-4.2-.4-6.3-2.9-7,2.5l5,.5c-.3.5.2,3.4,0,4.5,4.1,1.4,4.8-6.1,4-9.5Z"/>
  <path class="st13" d="M224.1,556c-.6,2.7.6,2.7,2,4h-3c-1,0-2,0-3,0-.3-3.4,3-3.2,4-4Z"/>
  <path class="st2" d="M241.1,540c3.2,3.3-1.2,6.6-1,2,.3-.4.7-1.4,1-2Z"/>
  <path class="st2" d="M400.1,484c-1.1,4.9-2.6,12.7-2,17.5,1.1,8.7,8.5,14.2,17,14.5-.8-4.4-2.1-7.2-2-12s.8-7.6,1.1-7.9,2.1,0,2.9,0c-1.3,8.6,3.5,15.9,5,24-5.3.9-7.5,1.2-13-.5l-14-8.5c-.6,3.3-8.1,10.1-6.6,13s2.6,2.1,3.6,3,2.4,3,2.6,3.1c1.4.1,3.2-1.1,4.9-1.1s2.2,1,2.4,1.1v1l-1,1c-.3-.2-1.4.1-2,0s-.7-1.6-2-.5c-2.3,2-.6,8,3,6.5.3.4,1.9.7,2,2-.3.4.2,2.2,0,3-.3.3-1.3-.9-2-1-5.2-1-13.6,1.7-13,8,.9.9,8.4-1.9,10-2.5s4.6-1,4-3.5c2.9,1,3.5-1.9,3,5-3.2-.7-15.4,1.9-14,7.5,5.2,3.1,11.3-4.7,14-5.5s.5,2,1,0,0-.8,0-1c1,0,2-.1,3,0v1c-4.3.9-6.3,8.1-12,8-.4,1.8,1.7.7,2,1s.9,5.8,2,0c.8-.2,3.7-.9,4-1v3c-1.5,1-4.4,1.3-4,4,2.1-.5,4,2,5.5,2,3.8,0,8.3-12.4,9.5-16,1.6,0,5.6-.1,7-1,.8.3,1.4.8,2,1,0,1.7-.1,3.4,0,5h-1c-1.4-7.8-9.1.6-7,3s2.2-.2,3,0c1.6.4,3.1,1.4,5,1,.2,1,2.1,4.6,3,5v8s3-2,3-2c0,0,1.4.3,2,1s-.6,1.3.7,2c3.1,1.7,9.8,2.8,13.3,3s1.3,0,2,0c3.6,0,7.8,0,11-2,.3,0,.7,0,1,0,4.4-.5,8.1-2.1,12-4,9.6-4.6,14.9-10,21.4-18.1,1.7-2.2,3.5-6.3,5.1-8s2.2.1,2.5,0c1.4,3.4,5.8,8,7,11,9.7,24.6-.9,55.7-26.7,64.8-18.4,6.5-32.7,3.7-49.3-4.8-.6-3.9.5-3.1,4-3,28.6,13.3,69.6-.4,68-36.5s-2.2-15.8-3.5-17.5-1.1-1.3-2.5-.6-5.8,7-8,9c-15.6,14.3-34.1,19.3-54.8,14.8s-12-4.6-14.7-4.4-3.4,4.7-4.5,7c-.6.1-1.6-.2-2,0,.4-5.7-3.4-3.5-4,.5s1.4.2,2,1.5c-.5,2.1.4,5.6,0,8h4c.1.3-.1.7,0,1,.2.5-.4,1.8.2,2.8s4.5,1.5,3.8,4.2c-6.8,2-4.6-4.9-10-6-7.7-10.1-7.7-14.7-12.5-26s-7.2,2-7.5,5.6,6,12.2.9,12.1-6.4-3.3-7.4-1.6-2.3,11-3.4,14.6c-.5,1.7-1.8,2.8-2.1,3.4.1-4.9,1.2-6-4-7,.5-2,0-6.6,0-9,4.7-1.3,3.3,5.5,4,8,2.8.9,2.4-2.8,2.1-4.6s-3.8-3.4-2.1-7.8l-4-3.7c-1.4-11.2-8.3-23.3-11-34,2.3-.5,2.7.2,3.7,2h1.3c3.5,9.5,7,19.1,9,29,2,1.5,3-9.4,3.3-10.2,2.5-8.6,5.6-9.3,1.6-19.1s-8-13-9.9-14.6c0-1,0-2,0-3,.3,0,.7-.9,1-1,3.3-1,4.9-2.6,8-3s2.2-.1,3,0c-.7,2.5-5.8,3.7-6,4,.2-.2-.2-1-.5-1-1.1,0,0,1.5.5,1-.5.8.8,3.8,1.1,5,4.8,0,14.7-7.7,4.9-9,.4-1.7,0-2.6-1-4s-2.8-2.9-3-3c1.2,0,1.3-2.3,1-3,6.2.2,6.6-7.2,8-11s1.2,0,1-1c-1-.2-3.6.3-4,0s0-2.3,0-3,0-.7,0-1c5,.8,3.1-.6,4.4-2.6s.9-2,1.6-3.4c1.9-4,4.5-7.8,6-12h2ZM383.6,519v1c.6-.3.6-.7,0-1ZM391.9,534.2c-2.9-1.2-8.9,6.8-7.8,9.8,1.5-.8,9.5-3.7,9.8-4.1,1-1.6-1-5.2-2-5.6ZM422.8,566.3c-.7-.8-6.3-4.6-6.7-1.8,1,3.8,3.8,7.2,8,6.5,0-1.7-.2-3.4-1.3-4.7Z"/>
  <path class="st2" d="M408.1,550l.6-2.1c2.9.8,6.4,0,5.4,4.1-1.4,0-3.2-1.1-5-1,0-.9-.2-.9-1-1Z"/>
  <path class="st13" d="M424.1,552c1.4.6,3,0,5,1.5,3.3,2.5,1.3,5.6,7,6.5v1.3c-1.9,1.2-3,2.7-4,4.7s-1.9,3.8-2,4c.6-6-.8-3.2-3-4s-2.8-4-3-5,.1-2.3,0-4,0-3.3,0-5Z"/>
  <path class="st2" d="M439.1,560c-.6,3.8,7.2,1.9,8.5,1l-.5,4c-3.2.4-5.4,1-9,1s-.5-.9-4,0-1.4,0-2,0c1-2,2.1-3.5,4-4.7v-1.3c.9.1,2.1,0,3,0Z"/>
  <path class="st3" d="M398.1,192c-6.4,1.1,1.5,5.8,1.7,6.3.8,1.8-.9,4.4,2.3,3.7,5.8,16.9,9.2,32.4,12,50,1.5,3.1-1.9,4.2-2,4.7-.9,3.6,1.5,3.3,1.7,3.6.8,1.9-.9,4.3,2.3,3.7,1,8.5,4.5,31.8,0,38.3-.8,1.2-3.2,2-4.6,3.7-3.3,4-5.6,7.9-8.5,12s-6.4,9.1-9,14c-5.6,4.3-8.8,12.2-17.2,10.8s-9.1-5.8-9.5-9.5c-1-8.9,2.7-21.7-.9-30-.7-1.6-3.6-1.8-3.3-4.2v-1c.3,0,.7,0,1,0,1.9-.5,6.5-.7,6-2.5s-2.4-5.7-3.1-6.9-6.7-7.5-5.8-8.6c4.4-.3,17.9-9.7,8.5-11-8.8-1.3-19.6-.6-27.5-5,1.4-3.4-1.9-3.8-2.1-5.4-1-8.8.9-19.5,0-28.6l-2,10v-22c0-12.8.4-25.8,0-38.5,0-1.9,1-4-2-3.5-.5-21.9-1.5-43.7-2-65.5-.3-11.5-.1-23.1.5-34.5,8.3,14.2,18.3,27.1,26.9,41.1,15,24.4,26.4,48.1,36.6,74.9Z"/>
  <path class="st3" d="M320.1,76c3-.6,1.9,1.5,2,3.5.2,6.2.3,13.4,0,19.5s-.9,5.1-1,7c-.5,7.8-.7,15.9-1,24-.5,14-1.3,28-2,42-2.7-1.8-1.9-1-2,1.5-.5,9.8.3,19.7,0,29.5-.5,16-2.1,32-2.5,48-1.9,5.5-8.1,3.4-12.5,6.5s-.3,4.6-9,4.5c-5.7-2.5-16.4-2.8-22.5-2.1s-2.8,3.2-3.5,4.1c-4.2,5.8-9.3,12-4,19.3s5.5,4.6,6.6,4.7c3.9.7,1.8-2.2,3.4-3.5s13.9,9.7,16,11.5c-.3,2.5,3,1.5,1,4h3s-2,3-2,3c3.5.2,7.2,0,6,4.3s-4,2.4-2,4.7,3.8-5.2,6-4c5.5,8.9,5,11.5-2,19.6s-7.1,5.4-7.6,6.4c-.8,1.6-.1,4.3-.6,4.9s-8.9,2.8-9.6,2.9c-13.5,1.2-27.3-17.7-34.3-27.8s.1-1-.3-1.7-3.2-2.1-3.7-4.3c3.6-.3,3-2.2,0-2,0,.6-.1,1.4,0,2-.7,0-1.3,0-2,0-.1-.2.1-.7,0-1-1-1.9-1.8-3.1-2-5.5-1.4-13.3,1.1-28.9,0-42.5,7.4-54.2,26.7-91.1,54-137,9.2-15.4,19.1-30.2,28-46ZM248.1,308c-1.1-1.1-3.1.9-2,2s3.1-.9,2-2Z"/>
  <path class="st8" d="M66.2,252c.3.7.9,1.6,1,2,.4,1.1.3,2.1,1,4s.2,1.5,1,2c.2,2.2,1.2,3.7,1,6.4s-2.2,4.5-3,6.6c-2.6.3-3.7,2.9-5,4-11.5,9.1-17.5,16.5-25.4,29.1s-2.3,5.7-2.6,5.9-1.8-.3-2,0,.2,2.2,0,3,0,.7,0,1c-5.2-1.1-3.5,4.9-4,8-1.3,7.7-4.3,17.8-4,25.5,1.2,36.1,27.6,75.8,56.5,96.5s6.6,5,10.5,5c.6-26.3,7.6-53.1,32.3-66.2,7.9-4.2,20.2-9,29.2-9.8,4.4-.4,9.1.2,13.5,0,1.1,3.1,6.1,3.7,8.9,5.6,5.1,3.5,3.5,5.4,11.1,7.4.5,1.4,3.6,1.6,3,4-14.9-2.6-28.2-6.4-43.2-1.7-33.5,10.5-42.1,44.7-42.9,76.2s2.2,11.9,0,13.4-16.9-7-20.2-9.1c-34.7-21.7-71.8-66.5-74.7-108.8s.6-25.5,0-38c3.1-17.1,11.7-33.7,24-46s4.3-4.2,6-6c4.8-4.9,12.2-12.5,18-16s7.3-2.8,10-4Z"/>
  <path class="st6" d="M400.1,369c.8-.2,1.6,0,2-1,.4.4,5.6.3,5,6-.4.2-.9,1.4-1,2-.5,3.1.9,5.6,1,8s0,2.7,0,4c0,8-.3,16-1,24s0,1.3,0,2c-2.9,30.9-13.6,65.4-33,90-5.6,7.1-13.6,15-20.5,21s-19.8,15.4-23.1,15.8c-5.8.6-31.3-18.9-36.3-23.7s-1.4-1.4-2-2c-3.7-3.8-10-10.8-13-15s-1.9-1.9-2-2c-.2-.3,0-1.8-.6-2.9-24.8-39.4-28.2-83.4-26.4-129.1,20.4,2.8,42.6-.2,61-9.5,3.2-1.6,16.8-11.5,18.3-11.3,18.6,14.1,47.5,30.3,71.6,23.8ZM256.1,376.5v33.5h142v-35c-19,2.9-39.8-2.7-56.3-12.2-4.7-2.7-10.8-6.8-14.2-10.8-14.3,17-36.9,21.4-58,23s-12.7-1-13.5,1.5ZM381.1,471c2,2.2,2,1.7,3.1-.4,7.4-14.9,11.1-36.1,11.9-52.6h-138c.7,18.3,6.1,36.2,13,53l1-49h7v60.5c0,.6-1.3,1-.3,3.2s10,15,12.3,17.8c4.5,5.7,29.4,29.1,35.5,29.1s11.6-5.9,12.8-6.8c5.3-3.8,13.9-11.6,18.6-16.4s14.6-16.9,15-19-2.5-.3-2.1-1.9v-67.1c.4-1.5,1,.5,1.1.5v66c5.6-3.7,7.8-10.8,9-17Z"/>
  <path class="st11" d="M372.1,97c-6,4,1.5,2.6,2,3,2.2,1.8-3.9,2-2,4s2.6-1.3,3-2c31.3,49.4,60.3,105,63,165,.1,2.5-.4,14.4,0,15s1.4,0,2,0c0,.3,0,.7,0,1,.2,2.2-.5,2.5,2,3.7v1.3c-2.3,1.2-15.6,9.4-17,8,2-59.5-20.2-116.8-48.8-167.7-14.1-25.1-32.9-47.9-44.9-74.1s-2.2-12-6.2-9.3-2.3,7.8-3,9.5c-9.2,21.6-22.5,41.7-34,61.5l-18,28c.2-1,0-2.8,0-4-.7,0-3.7-1.7-4-2s-1.9-5.3-3.9-3.9-2,4.2-2.1,5.9c-1.6-.4-2.8,1.7-4,3,1-5.5,5.3-10.3,8-15-1.5,6.3,3.2,3.1,4,4s-.3,2.3,0,3.2c.6,1.6,1.7-.4,2,4.8,3.6,0,1.1-1.4,2.3-3.7s2.1-.4,2.5-3-.5-6.6-.8-9.3.6-6-2-4-.4,2.8-2,3c-.1-.2,0-.6,0-1-.7-4.6,1.6-3.7,2-4.7s-.1-1.9,0-2.3,0-.7,0-1l2,1c.2-.9-.2-2.2,0-3,2.1-8.2,20.4-35.3,26-45s5.5-6.6,6-11c3.7-3.2,9.6-14.5,12.2-19.3s7.8-18.7,9.3-18.7c2.8,3.8,3.6,8.9,5.6,13.3,10.6,23.3,25.3,44.1,38.8,65.6ZM276.1,116c-1.1-1.1-3.1.9-2,2s3.1-.9,2-2Z"/>
  <path class="st2" d="M288.1,116c11.5-19.8,24.8-39.9,34-61.5s2.6-9.2,3-9.5c4-2.8,5.3,7.4,6.2,9.3,12,26.2,30.8,48.9,44.9,74.1,28.6,50.9,50.8,108.2,48.8,167.7,1.4,1.4,14.7-6.7,17-8,5.1-2.7,9.1-5,14-8,23.6-14.3,63.6-21.3,91.2-30.3s15.5-4.6,21.5-7.5c1.3-.6,2.8-1.8,3.3-3.2-.5-.7-14.9-2.9-17-3-.3-5,5.1,0,6.5,0s0-2.2,2-2.1,3.3,1.6,5.1,2.1,2.8-.2,3.4,0,3.9,2.3,4,2.5c.9,3.2-5.1-.4-4,3.5,1.7-.1,3.7.3,5.3,0s5.4-6.6,4.7,2c-6.6-1.7-14.8,3.7-20.8,5.7-13.7,4.5-27.6,9.4-41.4,13.6-27.6,8.5-43.8,11.3-69.7,25.3-15.4,8.4-34,17.3-44.1,31.4-1.7.3-2.2-.8-3-2,2.8-4.1,5.2-8,8.5-12s3.8-2.5,4.6-3.7c4.4-6.5,1-29.7,0-38.3-.5-4.1-1.3-8-2-12-2.8-17.6-6.2-33.1-12-50-1.2-3.5-2.7-6.6-4-10-10.1-26.8-21.6-50.5-36.6-74.9-8.6-13.9-18.6-26.9-26.9-41.1-.6,11.4-.8,23.1-.5,34.5.6,21.8,1.6,43.6,2,65.5.3,12.2.8,24.3,1,36.5,0,1.7-.6,4.4,1,5.5v22c2,4.8-.4,21.3,2.2,23.8s1.5,0,1.8.2c7.9,4.4,18.7,3.7,27.5,5,9.4,1.3-4.1,10.7-8.5,11-.9,1.1,4.9,7.1,5.8,8.6s2.8,5.7,3.1,6.9c.5,1.8-4.1,2-6,2.5,0-1-1-2.4-1-3s0-.7,0-1,1.1-.7.6-3c-2-9.1-6-.9-11.6-4,.6-.9.8-2.8,1-3s1.5.3,1.8-.1c1.6-1.9-4.3-7.5-3.8-7.9,4.3,1.1,10.2,1,13-3-11.3-1.5-22.7-3.8-33.3-8.2-1.5-.6-3.1-1-3.7-2.8,1.6.2,3.4,0,5,0v-2c-2,0-4-.2-6,0-1.8-2-6.8-2.7-2-3,1,.3,6.7,1.3,7,1l-1-100.6c.3-1.8-1-3.9-1-5.5-.4-18.2.5-36.4,0-54.5-.2-7.1-.9-14.3-1-21.5s0-6.7,0-10c-3.9-1.1-1.1,5-2,6s-2.3-.3-3,0c-2,.8-2.1,2.5-3,4-8.9,15.8-18.8,30.6-28,46-.7-3.2.1-7.1-4-6ZM366.1,295c.7-1.4-.6-2.7-1-2-.7,1.4.6,2.7,1,2Z"/>
  <path class="st1" d="M582,244c0,0,.9.8,1,1,1.1,1.9,1,5.8,1,8-.9,0-1.4,2.9-2.4,4.1-8.7,10-40.2,18.5-53.5,21.4s-38.9,4.3-51,9-11.3,10-16.3,12.7-13.1,5.3-20.7,5.8l4,2c-2.4,8.8-14.9,12.1-23,13,9.9,6.6-4.2,11.7-10,14.5l5,.5c1.4,1.4-2.3,6.9-3.8,8s-9.9,4.5-10.2,5c-1.6,2.1,3.4,2.8,4.1,3.7,2.5,3.2-2.2,6.6-3.1,9.3-4.7,0-2.4,1.4-3,2-4.5,4.6-11,3.9-12-3,3.2-.5,4.9-.8,4-4.5s-5.1-6.4-5.5-6.5c-3.9-1,1.8,6.3,1.5,7.5s-3.8,1.5-4.6,2.5.5,2.9.6,4,0,1.3,0,2h-6c-.8-1.3-.8-.8-2-1-1.8-.3-4.1.2-6,0-1.3-.3-2.7-.6-4-1-.2-.7-.8-1.4-1-2s0-1.4,0-2c.2.2,1.4,0,2,0s2.1,0,3,0,4.9-.4,5.1-1.6c.4-2.5-3-6.9-5.6-7.4s.8,3.2-1.5,4.5c-2.5,1-5.3.6-7.7-.4l-.3,2.8c-.3.2.6,3.4-5,2l-1-1-8.8-7.5c2.3-3.6,4.5-7.2,8.3-9.5,1.4,1.9,5,6.6,7.2,6.8,5.5.7,6-5,6.8-4.9s0,1.4,1.2,2c7.1,3.1,14.1,3.4,20.3-1.4s8.4-8.2,8.7-8.8c.7-1.4,0-3.2.3-3.7s6.8-10.4,8-12c10.1-14.1,28.6-23,44.1-31.4,25.9-14,42.1-16.8,69.7-25.3,13.8-4.3,27.6-9.1,41.4-13.6s14.2-7.4,20.8-5.7ZM572,256c-1.4-.7-2.7.6-2,1,1.4.7,2.7-.6,2-1ZM568,257c-29.3,8.7-58.6,17.1-89,21.5,1.3,1.9,2.2,1.3,4,1.1,23.9-2.6,58.3-10.6,80.7-19.4s5-.6,4.2-3.2Z"/>
  <path class="st12" d="M93.2,270c13.5,2.4,30.6,10.5,45.8,13.7,10.1,2.2,25.4,2.9,34.3,5.7,8.2,2.6,15.6,12.7,28.5,16.5s14.9,2.5,15.4,3.1c3.8,3.6-7.9-.7-7,3.5s22.2,6.8,24,8.5c2.9,2.8-5.7,1.7-6,2-.6,3.6,1.5,5.4,4.1,7.4s11.2,5.8,11.9,6.6c3.2,3.3-7.1.5-6,3.5l9,7.5c-.6,0-1.9.8-3,1-9.4,1.5-18.3,4.1-28,4-.5,3.6,5.1,6.5,8,7,.5,2.2-1.3,2.3-3,3-10.8,4.5-22.8,10.8-34.6,12.9s-6.4-.7-7.4,1.6,5,6.1,7.4,6.7c9.9,2.5,28.2-11.1,37.6-14.2.2-.3-.7-3.4-1-4,1.1-2.4,2-1.8,4-2,0,2.9,6.8,7.6,9,8,1.1,3.5-1.9,2.8-2,3-2.3.3-4.6-3-6.3-2.8s-14.9,7.7-18,9-14.4,5.9-17.7,5.8-7.5-3.2-6,1c-7.5-2-6-4-11.1-7.4s-7.9-2.5-8.9-5.6,1-2.6,1-3c5.6,4.5,9.9,3,16.2,1.7,11.2-2.2,21.5-7.1,31.8-11.7.6-.8-4.9-7.8-6.3-7.8-8.8,3.2-17.3,6.9-26.2,9.8-3.9,1.3-9.1,1.7-12.5,3-1.4-.4-2-1.5-2-3,4.8-.8,34.6-9.4,35.1-12.6s-4.3-7.7-7.6-7.5-11.4,4.9-15,6.1-7.6,2.8-10.5,3v-3c2.3-.7,19.8-8,20.5-9l-4.5-5c8.3.9,4.8,4.7,6,6s3.8.2,4,0,0-3.1,0-4c-.6-.2-2.1.5-2-.5-.3-2.2.4-1.3,2-1.5,0,.7,0,1.3,0,2,6.7,2,13.5,2.6,20.5,2s13-2.5,13.5-3.1c1.8-2.1-3.8-5.4-5.5-6-8.2,1.4-16.2,3.8-24.4,5,.5-4-7.2-1.4-9.3-1.4-4.2,0-4.7-.8-9.7.4-15.9,3.6-27.4,9.1-45,10v-4c11,0,26.6-3.1,37.2-6s5.1-4.2,2.7-6.4-8-5.1-8.5-5.1c-1.7-.2-20.5,4.9-25.1,5.5s-13.8,1-20.4,1.1-2.7-.1-4,0c-1.9.2-2.3-.7-2,2-1-.4-2.9,0-5-1s-7.8-3.7-10-5c-5.6-3.4-4.9-8.4-7-13s-.7-.7-1-1c-.3-.3-.7-.7-1-1-3.1-3-6.7-5.2-10-8,.4-1.8-1.7-12.2-2-15s.2-2.7,0-4c3.6-.5,6,2.8,8.8,3.7,5.1,1.8,16.4,4.4,21.8,5.1s23.5,2,24.4,1.1l-2.1-7.9c-14.5-2.8-30.1-7-43.6-12.9s-3.5-1.4-4.3-3.2c1.7.2,5.3-.5,8,0ZM175.9,295.3c-3.4-4.1-30.2-4.7-36.7-7.3,5.8,18.8,23.2,11.3,38,12,.2-.2-.8-4.1-1.3-4.7ZM144.4,302.7c-.7-.6-1.1-2.5-2.2-3.3-4.9-4-21.5-1.9-28.5-2.5-9.6-.8-18.1-5.2-27.6-5.9-1,7.6,3,14.9,10.7,16.8,4.5,1.1,15.9,2.1,20.8,2.2s31.5-1.6,32.5-3c1.7-2.4-4.7-3.5-5.7-4.3ZM193.2,310c2.4-2.9-9.7-7.6-11.7-7.8s-4.5,1.6-6.8,1.7-17.3-.5-18.4,1.1c-3.1,4.4,12.6,8.9,15.6,9s20.7-3.2,21.4-4ZM208.2,320c-3.4-13.4-13.5-6.6-22.8-4.3s-9.5,2-14.2,2.3c-.6,2.3.4,1.6,1.3,2.3s4.9,3.7,5.2,3.8c10.1,1.2,20.7-2.9,30.5-4.1ZM164.2,320c1.3-1.7-9.2-7.7-10.5-8-4.5-.9-11.1,1.8-15.9,2-12.5.7-26.2,0-38.5-1-.7,15.8,26.6,13.9,37.5,13s26.7-4.9,27.5-6ZM182.2,329.9c.2.3,5.4,1.9,6.4,2.1,5.6,1.3,15.1.8,20.8-.3s12.4-4.1,12.7-5.3c-2.2-10.2-15.5-3.1-22.7-1.7s-16.6,1.3-17.2,2.3-.1,2.6,0,2.9ZM235.9,344.2c-.2-.3-4.7-4.2-5.2-4.3-2-.2-10.8,3.6-14.1,4s-7.7-.2-11.4,0c.9,8.2,29.8,4.2,31,3s0-2.3-.3-2.8Z"/>
  <path class="st1" d="M70.2,254c.2-.7,3.9-5.6,4.2-5.7,5.5-1.9,5.3,1.2,6.5,1.6,4.7,1.6,10.4,2.6,15.2,4.1,23.6,7.2,47.4,12.1,71.2,19.3,21.8,6.6,43.8,28.6,60.8,32.7s.7,0,1,0c.3.3.6.7,1,1,2.4,1.8,8.2,5,9.7,7.3s0,2.6.5,3.4,3.4,1.4,4.5,2.5c5.3,5.6,9.5,14.9,16.8,20.7s5.4,2.4,7.2,5c7.7-.3,18.4,1.3,25.5-2s2.7-4.5,7.3-4.9,6.2.3,6.5.4c2.3,1.4,0,6.5,8.3,4.5s3.5-4.9,4.7-.5-11.7,10.6-14.5,11.5c-4,1.2,1.6-6.9.5-8-5.6,1.3-11.3,1-17,1-1.6,1.2,0,1.8,1.5,2,2.7.3,6.4-.6,8.9.2s-.2,6.6-2,7.7-14.7,4.2-15.8,4.2c-8.6,0,2.1-8.6.5-10.1-3-.3-6.5.5-9.4,0s-10.7-6-7.3-.1,8.1,4.3,9.8,4.2c-3.1,13.5-14.7,7-24,5-.8-1.7-2-2.9-4-3-.3-2.2.3-2.4,1-4,1.7,0,8,.4,8-1.5s-4.2-2.1-5-2.5,1.6-2.5-5-2l-9-7.5c-1.1-3,9.2-.2,6-3.5s-9.7-4.9-11.9-6.6-4.7-3.8-4.1-7.4c.2-.3,8.9.9,6-2s-22.8-3-24-8.5,10.8.2,7-3.5-12.7-2.3-15.4-3.1c-12.9-3.8-20.3-13.9-28.5-16.5-8.8-2.8-24.1-3.5-34.3-5.7-15.1-3.3-32.3-11.3-45.8-13.7-4.5-3.5-12.4-4.5-17-7s-3.5-6.2-4.2-6.8-1.4,0-1.8-.2c.1-.6-.2-1.5,0-2ZM176.2,282c-17-3.6-34.5-5.6-51.2-10.3-14.5-4.1-28.2-11.4-42.8-14.7-.5,2.8.7,1.6,2.2,2.2,24.5,10,51.1,19.5,77.3,23.7s11.1,1.3,12.9,1.1,2.9-.7,1.5-2Z"/>
  <path class="st2" d="M68.2,254c-.4,3.1.7,1.5,2,2s1.2-.4,1.8.2,1.7,5.5,4.2,6.8c1.2,3.1-1.9,2.9-2,3.5-.2,1,1.5.2,2,.5-2.6,1.1-2.2,3-2,5.5-.1.5-.6.6-1,.5s-.8-1.9-1-.5c-.6,1.2.8,1.1,1,1.5,1.8,2.5,3.4,6,5,8v1c-.6-.1-1.5.2-2,0s-2.3-2.1-4-3-1.7-.6-3-1-3.3-2.9-3,.5l1,.5c-17.7,12.8-30.3,34.8-34,56-.4,2.2-.7,3.5-1,6s-.9,1.3-1.1,3.4c-.2,3.1-.6,8.3,1.1,10.6,0,1.3,0,2.7,0,4s-.3,2.5,1,3c0,.3,0,.7,0,1,0,1.7.6,4.3,1,6,.9,3.9,3.3,7.6,4,10s0,1.4,0,2c-.6.1-1.7-.2-2,0v-3s-2,0-2,0v3s2,0,2,0c-.2.2-2.4,3.6-2,4h4c0-1,0-2,0-3,8.2,18.1,20.2,34.4,35,47.5,1.4,1.3,10.9,9.7,12,8.5.8-39.2,30.8-67.4,69-70l-7.5-9c-4.2-2-10.2-2.8-13.8-5.9s-2.4-5.5-4.2-7.1-4.6-1.7-6.6-2.9c-.4-2.4-3.9-5.3-6-6l3-2c.4.2,2.2-.5,2.8.2s-.3,2.2.8,2.8c3.2,1.8,9.7,2,13.3,2v4c-.3,0-.7,0-1,0-.4-.9-1.4-4.7-3-3s1.7,2.5,2,3-.2,2,.5,3,5.8,6,6.2,6c1.5.2,3-.7,4.6-.7,6.2.2,18-1.5,24.7-3.4v3c-.6,0-1.4,0-2,0s-1.3-1.7-2-1,.2,1.7,0,2c-1.9,2.3-14.9,2.4-15,4.5,3.8,6.8,10.2,6.7,17,5.5,0,1.5.6,2.6,2,3-5.9,2.2-2.8,3.2-3,5s-1.1,2.8-1,3c-4.4.3-9.1-.4-13.5,0-9,.8-21.3,5.6-29.2,9.8-24.7,13.1-31.8,39.9-32.3,66.2-3.9,0-7.4-2.8-10.5-5-29-20.8-55.3-60.4-56.5-96.5-.3-7.6,2.7-17.7,4-25.5,1.5-2.3,3.2-5.3,4-8s0-.7,0-1l2-3c.3-.2,1.6-4.4,2.6-5.9,7.9-12.5,13.9-19.9,25.4-29.1-.4,2.2,5.4-1.7,5.6-2,.9-.9-.6-1.9-.6-2,.7-2.1,2.6-3.5,3-6.6s-.8-4.2-1-6.4,2.9-2.4-1-2c-.7-1.9-.6-2.9-1-4h1ZM72.2,267v-4h-1v4h1Z"/>
  <path class="st8" d="M266.1,138c.3.3,3.3,2,4,2,0,1.2.2,3,0,4-.9,4.9-9,17.1-11.7,22.8s-5.6,12.8-8.3,19.2c-4,.7-4.6,4.2-4,8-13.5,34.9-17.1,69-18,106-3.9-1.5-7.7-3.1-11.3-5.2s-4.9-2.8-6.7-3.8c-.5-2.8,1.2-2.5,2-5,2.9-8.6,2.4-29.7,4.1-40.4,2.4-15.3,21.4-81,31.9-89.6s1.5.4,1.9-.1-.1-2.3.2-3.1c1-2.2,5.5-2.6,3.9-6.8.7-.9,1-1.8,2-3s2.4-3.4,4-3c0,.3,0,.7,0,1,0,1,0,2,0,3h6c.4-1-1-1.9-1-2,0-1.2.8-2.7,1-4Z"/>
  <path class="st6" d="M324.1,261c.6.1,1.2.8,3,1,.6,1.8,2.2,2.1,3.7,2.8,10.5,4.4,22,6.7,33.3,8.2-2.8,4-8.7,4.1-13,3-.5.4,5.4,5.9,3.8,7.9s-1.7,0-1.8.1l-9-2c-.7.6,2.8,4.6-.5,4-10.2-1.7-18.7-15.7-32-15.1-7.3.3-3.2,2.6-2.8,5.7s-1,2.5-.3,4.3c2.2,5.2,11.9,5.6,16.5,4,0-1.7.7-2.1-1.3-1.8-6.5,1.2-1.3-2.4,2.8-2.3s10.5,6.4,14.1,7.9,9,3.4,9.4,3.1,1.2-3.7,2-5c5.7,3.1,9.6-5.1,11.6,4,.5,2.3-.6,2.8-.6,3l-8-1c-1.2,1,5.5,7.1,6,8s3.5,9.5,3,10c-5.4,1.7-6.2-6.6-10.5-7s-6.4,5.1-8.9,7c-1.4,0-2.1-7.1-5.2-7.9s-4.3,3.5-6.3,4.4c-5.7,2.7-6.5-5.4-7.5-5.5-3.3-.6-7.4,7-10.8,6s-5.8-10.8-9.7-13.4-10-4.5-10.9-3.6l-.5,4-17.5-15.5c6.9-2.8,6.3,3.6,10,5s15.5,3.6,12.8-4.8-18.3-8.7-22.1-7.7-1.1,1.9-1.8,2.4c-1.4,1-3.1,1.4-4.4,2.7s-3,7.6-4.6,5.9-1.1-5.6-1.1-6.5c0-6.5,5.9-12.4,12.5-12.4s13.6,1.4,15.9,2.1c3.4,1.2,5.8,8.4,7.3,8.7,5.3,1.1,6.4-11.2-.6-9,6.8-9.4,14.5-6.8,24-5Z"/>
  <path class="st11" d="M555,236c2.1.1,16.5,2.3,17,3-.4,1.4-2,2.6-3.3,3.2-6,2.9-15,5.3-21.5,7.5-27.5,9-67.6,16-91.2,30.3-8.3.1-2.3-2.1-.4-4.4s.2-1.5.4-1.6c16.8-17.4,42.5-29.2,66-34s4-1.4,6-2c3.3-1.1,22.9-2.3,27-2Z"/>
  <path class="st11" d="M204.2,282c.5,2.7-.6,2-3,2-31.7-18.9-71.9-23.8-107-35l-12-5c2.6-.5,5-1.5,7.6-1.9,50-8.2,77.8,11.6,114.4,39.9Z"/>
  <path class="st11" d="M230.1,516c6.9-10.3,9.1-24.1,7.9-36.4-1.3-13-10.6-35.6-1.3-46.5s6-4.9,9.4-4.1l4,25c0,.2,1.8,2.5-.5,2.8s-3.5-2.4-3.4,2.7,4.8,17.1,5.7,24.1.9,10.5-.2,14.6c-2,7.3-12.2,22.3-21,19.8s-.6-2-.7-2Z"/>
  <path class="st2" d="M256.1,486c.8,2.2,5.2,10.1,6.6,11.9,3.2,4.4,7.9,7.3,13.4,7.1.4-.3-2.5-6.2-3-7,.8.2,2.7-.2,3,0s-.2,1.5,0,2c1.5,4.3,3.6,1.9,4,8s0,1.3,0,2c-1.2.2-3,1.1-4,1-3.1-.2-7.2-4.7-11-4-.4.4,1.1,10.5,1.4,11,1.7,2.5,5.9-.3,7.6,0s1.9,2,3.5,2.1c2.6.1,2.6-8.2,2.5-10.1.6,0,1.3,0,2,0,.1.1,1.1,0,1.6.4,1.7,1.7,4.8,7.1,7.4,4.6.6.6,1.4,1.4,2,2-.2,6.2-5.9,5.5-5.1,11.5s4.4,8.2,6.1,7.5c.1,1.3,2.1,5,2,7-1-.1-5.5,1.1-7,1,.3-.5.8-2.3,1-3s.8-.4.8-.8c.1-.8-.8-1.1-.8-1.2-.9-5.8.1-8.3-6.5-7s-5.8,5.6-7.7,8.4-2.2,1.3-2.5,1.9-4.3,10.3-4.4,11.2c-.6,5.3,1.4,8,3,12.5h-1.3c-1.1-2.3-1.3-2.6-3.6-1,0-.3,0-.7,0-1,0-.8,1.6-2.5,1-4-2.7-.5-2,.6-2,3-.8-.6-1.8-1.9-2-2-1-2.2,3.7-2,2-4s-5.7,0-6,0c-1.8-.2-2.9-.8-4-1l-2-4c4.9,1.2,2.6,4,10,2s5.6-3.8,3-7.3-2-.6-2-.7c-.2-.3.2-1.9-.5-2.9-1.4-2.2-7.3-3.2-8.5-.6-1.6,3.7,6.6,3.2,9,3.5,0,1.4-.8,2.7-1,4-2.8-.6-6.9-3.7-9.7-3.8s-2.6,1.5-4.3,1.8-4.1-.2-6,0c-.7-1.8.7-2.3,1-3,3.9,3.3,6.5-5.1,8-7.2s7.9-6.1,1.7-5.5-4.2,4.5-6.5,8.5-1.9,1.9-2.2,2.3c0-4,9.1-13,0-11v-4c-4.5-1.2-3.7,1.7-4,1.9-2,1.6-1.8-1.8-2.6-2-2-.5-6.4,0-8.9,0s-4,1-3.5-2c4.8.6,32.7,2.2,35,.6,3.9-2.7-2.3-11.5-2.8-14.3s.5-15.4-3.2-12.3.2,1.5,0,2c-3,.6-1.9-1.5-2-3.5-.1-3,0-6.1,0-9.1s-1-4,2-3.5ZM290.1,518l-9-6c-1,9.2,3.1,18.3,9,6ZM276.1,521c-7.2.8-3.2,4.2,1,6l-1-6ZM271.9,527.3l-3.7-1.3c-2.6,3.7,5.3,9.6,7,8s-3.5-4.9-3.2-6.7ZM270.1,542c4-4.7-5.4-10.2-7.7-7.8-4.1,4.2,4.2,7.4,7.7,7.8ZM294.1,540c-1.1-1.1-3.1.9-2,2s3.1-.9,2-2Z"/>
  <path class="st11" d="M329.1,152c0,1.6,1.3,3.6,1,5.5l1,100.6c-.3.3-6-.7-7-1s-1.3-1.6-2-2c0-12.3,0-24.7,0-37s0-15.7,0-23.5c0-1.7-.6-4.4,1-5.5,0,1.1-.7,3.3,1,3,.1-8-.1-16,0-24s-.2-12,0-18c.2-9.4,1.9-19.7,1-29.5l2-22.5c.6,17.7,1.2,36.4,2,54Z"/>
  <path class="st2" d="M201.2,284c2.6,1.5,6,5.2,9,7s4.6,2.7,6.7,3.8c3.6,2,7.5,3.7,11.3,5.2,0,1.9-.9,3.9,0,6-17-4.1-38.9-26.1-60.8-32.7-23.8-7.2-47.5-12.1-71.2-19.3l4-2-6-3c35.1,11.2,75.2,16.1,107,35Z"/>
  <path class="st6" d="M314.9,313.2c2.1,3.5-8.1,7.6-6.8,11.8,3.1,0,5-3.8,8.3-3.1s1.7,5.5,4.1,5.1c2.7-.1,5.7-6.3,7.9-6s3.8,7.4,8.1,7,3.9-6.1,7.1-6.1,3.5,9.2,9,9.1,2.4-5.5,6-5.9c4.8,5.1,7.5,10,4,16.9-1.3,1.8-1.4.2-2.5-.5-1.5-1.1-7.4-6.6-8.4-6.4-10.3,16.6-8.2-1.9-12.1-3.1s-2.5,4-5.5,5.5-4.5.6-6.4,1.6c-.9,0-2.3-6.8-2.6-7-3.2-2.7-12.6,16.2-12-2-4.6-1.8-2.6,4.6-4.6,5.1s-6.5-1.7-9.3-1.1c13.4-13.4,11.2-26.5-3-38,3.8-1.2,10.2,5,12.4,8.1s2.4,5.5,4.2,7.9,2.1.9,2.2,1.2Z"/>
  <path class="st10" d="M218.1,520c-6-10.6,1.7-24.8,14-24,.8.7-5,16.6-6,19s-1.5,1.6-2,3-2,4-.4,5.1c2.4,1.7,11,1.4,13.4-1.1.3,0,.7,0,1,0,9.5-2,14.4-11.8,18-20s-.2-1.8,0-2c3.8-3.1,3,11,3.2,12.3.6,2.8,6.7,11.6,2.8,14.3s-30.2,0-35-.6-.7,0-1,0l-4-2c-.3-.4-.7-.7-1-1-.7-.9-2.8-2.6-3-3Z"/>
  <path class="st1" d="M241.1,378c3.6.3,3.4,5.4,3.1,8.5s-3.1,3.6-4.1,4.5c-7.4,6.4-13.8,11.6-24,11s-3.2-1.4-4.8-2-2.9.2-3.2,0,0-3.9,0-5c11.4-3.4,24-9.2,33-17Z"/>
  <path class="st6" d="M328.3,312.8c3.3,1.9,6.2-3.9,9.4-3.8s4.1,8.7,11.9,2.8c1.7-1.3,1.1-3.7,3.9-2.7s11.7,10.6,10.7,14.9c-1.3,1.5-6.6-5-6-7-2.4-2.3-2.8,6.5-5.6,7s-6.1-6.7-7.1-7c-5.2-1.6-3.8,1.9-5.7,4.1-5.8,6.7-7-4.2-11.1-5.1s-2.4,2.5-4.4,3.6c-5.1,2.7-4.2-3.4-6.9-6.9,9.3-11.6,8.2-1.5,11.1.2Z"/>
  <path class="st1" d="M234.1,375c-.3.3.2,2.2,0,3-2.3.5-9,6-12,7.5s-13.4,5.1-13.9,5.6,0,1.3-.1,1.8h-4c-2.4-.4-7.1-.4-9-1s-.7-1.3-3-2v-3c3.3.1,14-4.3,17.7-5.8s17-8.9,18-9c1.7-.2,4,3.2,6.3,2.8Z"/>
  <path class="st10" d="M217.2,406c.2.2,1.7.2,2.5,1,3.4,3.2,5,5.9,10.5,6s2.9-.7,4-1c4-1.1,6.5-3.1,10-5,.3.9.7,13.6.1,14.4s-3.6.9-5.3,1.9c-3.6,2.1-5.1,8.7-10.3,3.7s-13.4-17.3-14.1-18.9c-1.3-3,.7-2,2.6-2.1Z"/>
  <path class="st0" d="M250.1,454c0-.3,1.2-2.3,2-2-1.3,5.5,3.3,6.5,2,12-.4-.7-1-2.2-2-2,.1,7.4,1.4,17.1,4,24-3-.6-1.9,1.5-2,3.5,0,3-.1,6.1,0,9.1s-1,4,2,3.5c-3.6,8.2-8.5,18-18,20,.8-3.8-6.7-1.4-10-2s-.9.1-1,0,.5-1.4-1-2-1.4.1-2,0c.5-1.4,1.7-2.3,2-3,.6,1.7,3.4.6,4,1s-.4,1.7.7,2c8.8,2.4,19.1-12.5,21-19.8s.7-10.3.2-14.6c-.9-7-5.6-18.1-5.7-24.1s2.2-2.6,3.4-2.7c2.3-.3.5-2.6.5-2.8Z"/>
  <path class="st1" d="M244.1,349c1.5,1.6.4,2,0,3l-2,1c-.5-.2-1.4,0-2,0,1.3,1.3-.4,5.6,0,6-.5,0-.9,1-1,1-.8.2-4,0-4,1.5,0,2.3,3.7.7,5,.5s1.4,0,2,0c.2.2,2.3-.2,3,0-1.4,6.1-.5,11.5-9,10s-9-5.1-9-8c1.6-.2,3.4.1,5,0,1.3-6.5-3.4-3.2-8-4s-8.5-3.4-8-7c9.6,0,18.6-2.5,28-4Z"/>
  <path class="st0" d="M323.1,72c.7-.3,2.7.3,3,0,.9-1-1.9-7.1,2-6,0,3.3,0,6.7,0,10-1.7,6.6-1.2,15.1-1,22l-2,22.5c1,9.8-.7,20.2-1,29.5,1.6-7.1-2.3-13.4-3-20s.6-16.3,0-24c.1-1.9.9-4.3,1-7,2.3-8.5.4-18.2,1-27Z"/>
  <path class="st10" d="M254.1,464c6.9,13.6,10.9,21.2,19,34s3.4,6.6,3,7c-5.5.2-10.3-2.7-13.4-7.1s-5.7-9.7-6.6-11.9c-2.6-6.9-3.8-16.6-4-24,1-.2,1.6,1.3,2,2Z"/>
  <path class="st12" d="M241.1,378c-9,7.8-21.6,13.6-33,17,0-.6,0-1.4,0-2s-.3-1.4.1-1.8,11.5-4.4,13.9-5.6,9.7-7,12-7.5,5.4-.1,7,0Z"/>
  <path class="st2" d="M227.1,406c.1.5,1,1.2,1,2-1.2-.2-2.7.1-4,0-.5-2.7.6-2,3-2Z"/>
  <path class="st2" d="M240.1,391c3.6-.9,1.3,2.8,2,4-3.8,3-10.3,8.1-15,9s-6.4-.4-7,0c-2,1.5,3.8,3.8,4,4s-.5,1.7.7,2c3.2.8,6.2-2.1,5.3,3-5.5-.1-7.1-2.9-10.5-6s-2.3-.7-2.5-1c-.8-.8-1-2.8-1-4,10.2.6,16.6-4.6,24-11Z"/>
  <path class="st3" d="M270.1,122c0,.4-.1.8,0,1,.7,1.6,2.4,1,4,1,.3,2.7,1.2,6.9.8,9.3s-2.3,2.5-2.5,3c-1.1,2.3,1.3,3.8-2.3,3.7-.3-5.2-1.3-3.2-2-4.8s.2-2.9,0-3.2c-.8-.9-5.5,2.3-4-4,1.2-2,3.1-4.4,4-6h2Z"/>
  <path class="st1" d="M242.1,395c0,0,1.7-.4,2,.7,1,3.5-.8,6.8-4,8.3l-8,5c-1.7-.8-2.4-.7-4-1,0-.8-.9-1.5-1-2s.1-1.4,0-2c4.7-.9,11.2-6,15-9Z"/>
  <path class="st10" d="M240.1,307c-1.2,1-4-3.2-4-3.5v-36c0-1.5,1.8-6.7,2-8.5,1.1,13.6-1.4,29.2,0,42.5s1,3.5,2,5.5Z"/>
  <path class="st12" d="M360.1,358l.3-2.8c2.4,1,5.2,1.4,7.7.4,2.3-1.4-1.9-5.2,1.5-4.5s6,4.9,5.6,7.4-4,1.5-5.1,1.6c-.1-1.5-2.9-1.5-3,0-.6,0-1.8.2-2,0s-.1-2.6-1.4-2.8-3.4.7-3.6.8Z"/>
  <path class="st10" d="M456.1,274c-.1.1,0,1.1-.4,1.6-1.9,2.3-7.9,4.5.4,4.4-4.9,3-8.9,5.3-14,8v-1.3c-2.5-1.2-1.8-1.5-2-3.7,2,4.8,5.4-1.2,7.5-3s5.5-5,8.5-6Z"/>
  <path class="st0" d="M403.1,318c.8,1.2,1.3,2.3,3,2-1.2,1.6-7.7,11.3-8,12-.7-5.5-2-.4-2.3-.3-.8.5-1.6.2-1.7.3,2.6-4.9,5.9-9.4,9-14Z"/>
  <path class="st12" d="M384.1,364c0-1.2-1.5-2.9-.6-4s4.2-1,4.6-2.5-5.3-8.4-1.5-7.5,5.4,6.1,5.5,6.5c.9,3.7-.8,4-4,4.5,1,6.9,7.5,7.6,12,3l2-1c.2,1.1-.3,4.7,0,5-.4,1-1.2.8-2,1-3.4-3.2-12.3,2.2-11-4-3.8,2.5-1.9-1-5-1Z"/>
  <path class="st10" d="M322.1,255c-.2-.2-1.5.3-1.9-.1v-19.4c-.1,0,1.9-17.5,1.9-17.5,0,12.3,0,24.7,0,37Z"/>
  <path class="st10" d="M300.1,308c-2.2-1.2-3.4,7-6,4s1.9-4.4,2-4.7c1.2-4.4-2.5-4.1-6-4.3l2-3h-3c2-2.5-1.2-1.5-1-4,5.3,4.6,7.8,5.1,12,12Z"/>
  <path class="st10" d="M8.2,362c-1.2-1.9-1.4-4.6-1.7-6.8-.9-8.8.1-22.6,1.7-31.2.6,12.5-.8,25.6,0,38Z"/>
  <path class="st10" d="M318.1,172c-.2,4.1.2,8.3,0,12.5l-2,18.5c.3-9.8-.5-19.7,0-29.5s-.7-3.3,2-1.5Z"/>
  <path class="st0" d="M240.1,404c-1,3.5,3.3.9,4,3-3.5,1.9-6,3.9-10,5,.3-1.5-.7-2.4-2-3l8-5Z"/>
  <path class="st10" d="M212.2,286c-.8,2.5-2.5,2.2-2,5-3-1.8-6.4-5.5-9-7,2.4,0,3.5.7,3-2,1,.7,4,2.8,5.1,3.5s1.9.6,2.9.5Z"/>
  <path class="st0" d="M306.1,56c-.5,4.4-4.1,7.6-6,11l-2-1c-.6-1.5,1.9-6.1,3-7.3s4.5-2.2,5-2.7Z"/>
  <path class="st9" d="M363.1,294c0,.3,0,.7,0,1-1.4.5-.8,2-1,3s0,.7,0,1c0,.6-.8,1.3-1,2-.5-.9-7.2-7-6-8l8,1Z"/>
  <path class="st10" d="M292.1,262c-8.6-.1-18.5-3.7-26,2,.6-.9,1.1-3.8,3.5-4.1,6.2-.8,16.8-.5,22.5,2.1Z"/>
  <path class="st10" d="M324.1,168c-.1,8,.1,16,0,24-1.7.3-.9-1.9-1-3-.3-6.5-.6-14.8,1-21Z"/>
  <path class="st0" d="M56.2,256c.2-3.7,3.6-3.5,5.7-4.3s.4-1.4,1-1.6c4.2-1.2,2.8.8,3.3,2-2.7,1.2-7.7,2.6-10,4Z"/>
  <path class="st10" d="M321.1,130h-1c.3-8.1.5-16.2,1-24,.6,7.7-.8,16.4,0,24Z"/>
  <path class="st1" d="M337.6,341c1.6,0,4.6,6,4,8-4,.1-7.9-8.1-4-8Z"/>
  <path class="st10" d="M440.1,282c-.6,0-1.9.2-2,0-.4-.6.1-12.5,0-15,1.9,4.2,1.5,10.3,2,15Z"/>
  <path class="st12" d="M249.1,354c.1-.3-.4-1.3.2-1.8s3.6.8,2.8-2.2c.8.4,5,1,5,2.5s-6.3,1.6-8,1.5Z"/>
  <path class="st0" d="M522,240c0-3.3,6.5-6.5,6-2-2,.6-2.2,1.2-6,2Z"/>
  <path class="st6" d="M293.1,283l-1-5c5-.3,7.5,5.2,1,5Z"/>
  <path class="st10" d="M250.1,186c-1.2,2.9-3.2,5.9-4,8-.6-3.8,0-7.3,4-8Z"/>
  <path class="st9" d="M326.1,260c2-.1,4,0,6,0v2c-1.6,0-3.4.2-5,0s-2.4-.9-3-1c.3-1,1.2-.9,2-1Z"/>
  <path class="st9" d="M192.2,387v3c-.3-.1-.7.1-1,0-1.9-.7-1.3-1-5-2-1.5-4.2,4.9-1,6-1Z"/>
  <path class="st10" d="M38.2,272c-1.7,1.8-4.3,4.3-6,6,.4-2.8,3.2-5.6,6-6Z"/>
  <path class="st12" d="M195.2,392l-7,2,3-4c.3.1.7-.1,1,0,2.3.7,2.8,2,3,2Z"/>
  <path class="st12" d="M384.1,366c0,.7,0,1.3,0,2-1.7-.2-4,.4-5.4,0s-.3-1.7-.6-2.1h6Z"/>
  <path class="st11" d="M254.1,146c1.5,4.2-2.9,4.7-3.9,6.8s.2,2.4-.2,3.1-1.7,0-1.9.1c.4-4.3,3.7-6.9,6-10Z"/>
  <path class="st12" d="M252.1,361c-.5-.1-3.3,2.3-4-3,2,0,3.2,1.3,4,3Z"/>
  <path class="st10" d="M375.1,102c-.4.7-1.8,3.3-3,2-1.9-2,4.2-2.2,2-4s-8,1-2-3c1,1.6,2,3.5,3,5Z"/>
  <path class="st2" d="M221.1,523h-5c-.4-1.6,1.1-.5,2-1.6v-1.4c.2.4,2.2,2.1,3,3Z"/>
  <path class="st12" d="M240.1,359c.2.2,1.4-.4,1.9.2s0,2.6.1,2.8c-.6,0-1.4-.1-2,0l-1-2c.1,0,.5-.9,1-1Z"/>
  <path class="st12" d="M365.1,362c.2.6.8,1.3,1,2-1.2-.4-3,.3-4-1.5l3-.5Z"/>
  <path class="st10" d="M272.1,115c-.2.4.3,1.5,0,2.3s-2.7.1-2,4.7h-2c1.1-2,1.1-5.9,4-7Z"/>
  <path class="st12" d="M376.1,365c-1.8,2.6-4.6.3-6,0,1.9.2,4.2-.3,6,0Z"/>
  <path class="st12" d="M244.1,352c-.2.5.1,1.4,0,2-2.1.5-1.9-1-2-1l2-1Z"/>
  <path class="st10" d="M274.1,112c-.2.8.1,2.1,0,3l-2-1c.3-1,1.1-1.6,2-2Z"/>
  <path class="st0" d="M70.2,254c-.2.5.1,1.4,0,2-1.3-.5-2.4,1.1-2-2h2Z"/>
  <path class="st12" d="M207.2,393c-1.4,2.1-2.4,0-3,0h3Z"/>
  <path class="st10" d="M242.1,308c-.1-.6,0-1.4,0-2,3-.2,3.6,1.7,0,2,.5,2.3,3.1,3.4,3.7,4.3s.2,1.5.3,1.7c-1.5-1.3-5.2-4.6-6-6,.7,0,1.3,0,2,0Z"/>
  <path class="st2" d="M229.1,306c2.6.4,5.3.4,1,1-.4-.3-.7-.7-1-1Z"/>
  <path class="st12" d="M355.1,360c-.4,0-.8-.6-1-1l1,1Z"/>
  <path class="st2" d="M363.1,299h-1c0-.3,0-.7,0-1h1v1Z"/>
  <path class="st8" d="M480.1,550c7.9-8.1,9.7-18.1,15.6-27,21.2,11.9,34.7,35.8,31.3,60.3-8.1,57.9-73.6,77-115.8,39.1-2.4-2.1-14.4-15.8-15.5-15.5-9.7,19.8-16.3,41.2-27.7,60.3-6.2,10.4-23.6,34.9-34.2,39.7-7.2,3.3-8.9.5-14.5-3.6-20.4-15-33.7-36.2-43.9-59.1s-11.7-32.3-13.3-33.2-2.6,0-3.4.8c-34.2,48.5-105.3,45.9-126.4-12.9.3-1.2-.8-4.7.7-5s2.7,1.1,2.3-1.9c-4.7.9-2.2-1.8-3.3-3.7s-3.4-2.9-3.7-4.3c-1.4-18.9,10.8-44.1,28.8-51.7s6.3-2.6,7.6-2.2c4,6,7,12.4,11.6,17.9s7.7,8.2,12,11,5.4,2.1,8,3,.5,1.4,1.7,1.7c4.2,1.3,15.8,2.2,18.3,5.3-.3,3.1,1.4,6.4-2,7.7v1.3c-19.4.3-36.4-1.2-48.4-18.1-1.7-2.4-5.7-12-8.1-12s-8.4,8.6-8.9,10.1-3.4,11.8-3.5,13c-1.6-2.4-1,1.6-1,2.5,0,3.7,0,7.4,0,11l1-.5c4.5,36.5,45.4,55.2,77.6,39.2s23.7-21.6,31.3-37.2,2.4-5.3,3.6-8,.2-2.8,1.9-2c4.9,2.4,2.3,9.4,1.5,13l12-2c.6,3.4,1.9,6.7,3,10s.7,2,1,3c.9,2.7,2.3,5.6,3,8s.6,2.5,1,4,.7,3.3,1,5,0,1.7,1,2c.3,1.5.7,2,1,3s.2,3,1,3l1,2c1.7,9.5,7.2,17.1,12,25s8.7,14.4,14.5,21c2.3,2.7,13.1,13.8,16,13.7s12.5-10.9,14.5-13.2c6.4-7.4,11.3-16,16-24.5s1.3-.9,1-2c2.2-.3,2.4-5.9,3-7s.8-.6,1-1c3.7-7.2,5.9-12.6,9-20s3.3-8.3,5-13,1.5-1.8,2.1-3.4c1.2-3.6,2.1-12.4,3.4-14.6s5.5,1.6,7.4,1.6c5.1.1-1.1-9.1-.9-12.1s4.6-12.2,7.5-5.6c4.8,11.3,4.8,15.9,12.5,26,7.6,9.9,10.8,13.2,22,19,16.6,8.5,30.9,11.3,49.3,4.8,25.8-9.1,36.4-40.2,26.7-64.8l2-3c-.2.9,3,5.3,4,4,2.3-3.1-3.7-5.7-4-6.7-.3-1.4.2-4.9,0-5.3-1.8-2.3-1.9,1.8-2.1,1.9-2.2,1.6-3.2-4.4-5.4-3.9s-.9,1.8-1.5,2-1.2-1.3-2.5,0-3.4,5.8-5.1,8c-6.5,8.1-11.8,13.5-21.4,18.1-3.7-.3-11.5,0-12,4-.3,0-.7,0-1,0-2.1.2-10.5-.4-11,0s0,1.4,0,2c-.7,0-1.3,0-2,0l-1.5-4c-.8,2.4-1.4,2.2-4.1,2.1s-2.1-1.6-3.2-2.1c-2.2-.9-4,1.7-3.2-3.4l4-4.7c3.6,0,5.8-.6,9-1,8.7-1,18.5-3.9,26-9,4,5.9,7.8-1.3,7-6ZM456.1,572c-1.1-1.1-3.1.9-2,2s3.1-.9,2-2ZM410.1,608c-.7,0-1.3,0-2,0-.3,2.1,0,2.3,2,2,0-.7,0-1.3,0-2,2.5-.1,4.7,1,4-2h-4c0,.7,0,1.3,0,2ZM414.1,610h-2v4h2v-4Z"/>
  <path class="st10" d="M128.2,584c.3,1.4,3.6,4,3.7,4.3,1.1,1.9-1.4,4.6,3.3,3.7.5,3-.7,1.6-2.3,1.9s-.4,3.9-.7,5c-1.9-5.2-3.6-9.1-4-15Z"/>
  <path class="st10" d="M480.1,550c.8,4.7-3,11.9-7,6,.4-.3,6.5-5.5,7-6Z"/>
  <path class="st2" d="M176.2,548c6.2-1,2.9,1.7,4.2,3.8s7.6,4.8,9.3,4.2l-1.5,3c-4.3-2.8-8.6-6.9-12-11Z"/>
  <path class="st8" d="M588,245c38.3,16.5,58.7,66.6,56,106.5-3.8,54.5-40.5,89.7-84.6,115.3-1.3.8-8.6,5-9.4,4.2-.5-27.8-4.6-61.2-30.7-76.8s-17.4-6.8-25.8-7.2c-4.7-.2-13.8,1.8-16.8,1s-.5-1.9-.7-2c3.1-6.2,9.3-6.6,13.9-9.6,7.3-4.7,4.6-7.5,16.6-6.4,24.3,2.3,52.5,35.5,52.5,59.5v18.5c7.4-2.5,15.5-8.8,21.5-14,5.9-5.1,12.4-12.1,17.5-18s15.1-17.3,15-22c7.6-9.4,11.4-22.3,14-34s2.2-23.3,0-32c-4.6-18.5-8.4-28.5-20.4-43.1-1.4-1.7.7-3.9-2.6-1.9.4-4.7-5.8-6.3-8-8s-.7-.7-1-1-.5-1.9-1.3-2.7c-1.9-1.7-9-6.4-9.5-8-1.3-4.3,3.8-8.3,4.4-13.3s-.6-2.5-.6-3,0-1.3,0-2Z"/>
  <path class="st12" d="M588,247c0,.5.8,1.2.6,3-.6,5-5.7,9-4.4,13.3s7.7,6.4,9.5,8,.9,2.3,1.3,2.7h-6c-.3-.8-1-2.8-1.1-2.9-.2-.2-4.1.5-4.4.8-1.4,1.5-2.2,6.5-4,9s-3.7,2.5-4.7,4.3c-2,3.6-1.1,8.1-2.9,12.1-2.8,6.5-10.3,8.7-12.3,11.7s-1.1,7.2-2.7,10.3c-3,5.8-9.7,6.8-13.4,9.6s-3.4,5.4-4.4,7.1c-1,.1-2.1-.2-3,0l1-6c-9.5.3-19-.2-28.2-2.3s-20.2-7.7-22.3-7.7-13.3,6.5-9.9,9,5.2,3.3,6.4,3.9l.9,2.4-.9.6c-2.7-1.2-7.4-2.1-10.3-3.8-11.2,6.3-13.1,5.3-.7,12.3,5.2,2.9,34.2,14.3,38,11.5,2.7-.5,2,.6,2,3-9.2,5.5-1.4,5,4.5,7,11.6,4,17.7,10.5,27.5,17,0,.3,0,.8,0,1,.7,2,7.9,8.7,9.8,11.7,7.3,11.4,11.7,27.9,11.2,41.3.9,1,13.5-9.2,15-10.5,2.3-2,13.2-12.6,14-14.5s-.1-.7,0-1c.7-1.7,3.8-2.8,4-3,1.3,0,2.8.5,3,2-4.5-.8-3.6,2.8-3,6-5.1,5.9-11.6,12.9-17.5,18-6,5.2-14.1,11.5-21.5,14v-18.5c0-24-28.1-57.2-52.5-59.5-12-1.1-9.3,1.7-16.6,6.4s-10.8,3.4-13.9,9.6c-.3-.3-2.7.6-2-2,.2,0,1-3.2.9-3.4-.3-1.4-10.7-3.8-13.2-4.8-8.8-3.6-16.3-8.3-24.1-13.7-4.8,4.5-5.3,5.1-1.2,10,6,7.1,19.2,9.4,27.3,13.2s.2,1.6.3,1.7c.6,3.9-.5,3.1-4,3-.1-.9.3-1.2-.6-2.1-2.9-2.7-12.8-4.8-17.3-7.5s-10.8-11.3-13.9-9.3-2.8,5.1-2.8,5.4c0,2.7,16.9,15.7,20,16.7,5.4,1.8,9.5,0,14.7-1.2-1,6.8-11,2.9-12,4s0,6.4-4,6v-1c.1-.3-.1-.7,0-1s1.1-.4,1-1.5c-.1-2.1-11.6-8.6-14.2-10.6s-5.4-7.2-9.2-7-3.6,2.1-5.6,2-4.4-2.5-6-4c5,.5,10.2-1.8,11-7-3.6.2-7.3-.1-11,0,2.4-5.5,5.9-1.6,11-2,0,.6,0,1.4,0,2,3.7-.2,7.2,1.1,4-4,.4-.1,4.8-4.6,4.8-5.6,0-3.5-3-1.4-4.3-1.6-5.3-.6-15.9-3.4-17.5,3.2-2.8-.8-1.5-2-5-2,.9-2.7,5.6-6.1,3.1-9.3s-5.7-1.5-4.1-3.7,8.4-3.5,10.2-5,5.1-6.6,3.8-8l-5-.5c5.8-2.8,19.9-7.9,10-14.5,8-.9,20.6-4.2,23-13l-4-2c7.6-.5,14-2.1,20.7-5.8s12.6-11.3,16.3-12.7c12.1-4.7,36.7-5.8,51-9s44.8-11.4,53.5-21.4,1.5-4.1,2.4-4.1,1.1,1.3,2,1c.5-2.9-1.5-7.8,2-7ZM580,265c-.7-.8-11.2,5.3-13.3,6.2-16,6.7-31.5,8.1-46.7,13.3-3.4,1.2-4.7,1.4-4,5.5,21.2-.9,61.6,4.7,64-25ZM511,287c-1.3-1.2-15.7,2.5-18.6,2.9-8.5,1.2-16.1-1.8-20.4,9.1,13.3,2.5,34.4,4,39-12ZM569,288c-8.3,1.6-18.4,5.1-26.6,5.9-7.8.8-23.5-1.5-29.7.3s-9.9,8.6-9.7,9.3c.7,1.1,1.9,1.5,3,2,7.3,3.2,37.1,3.9,45.3,2.3,7.5-1.5,19.2-11,17.7-19.8ZM465.8,302.2c-1.9.5-6.2,3.1-3.7,5.2s16.1,4.4,18.5,4.5c5.3.2,11.8-2.7,15.4-6.5l-25.5-3.5c-1.6-.2-3.2-.2-4.7.3ZM481.1,315c-4.3-1.4-9.1-.5-13.3-1.2s-17-6.3-17.7-5.8-.3,2.4-1,3.3c-1.4,1.8-5.3,3.4-5.1,6.7,7.7.7,17.8,5.5,25.4,5.1,3.7-.2,13-3,11.5-8ZM554,311c-7,.3-15.6,2.1-22.5,2.1s-14-.6-17.9-1.1-10.2-5-16.8-1.9-1,1.5-2,2.2c-2,1.3-5.8.9-4.8,4.2s17.7,7,20.4,7.7c15.1,3.6,39.7,6.2,43.6-13.2ZM443.7,320.4c-5-1.7-15.7,1.8-12.5,6.5s23.6,6.3,27.4,6.2,15.2-4.2,10.9-7.2-11-1.4-14.8-2-8.1-2.5-11-3.5ZM457.1,336c-5.1,0-10.2-1.2-15.2-2.3s-12.1-4.7-14.8-2.3c-5.5,4.7,1.1,5.9,5.1,7.1,6.2,1.8,22.6,5.9,25-2.5ZM447.1,344c-5.7-.2-11.6-1.2-17.2-2.3s-10.1-5.9-11.8,4.2c7.8.7,25.8,8,29-2ZM495.7,357.4c-8.8-3-17.7-4.7-26.4-9.2s-6.9-8-12.2-4.6c-11.1,7.1,5.8,13.9,12.1,16.7,9.2,4.1,26.9,11.3,32.8-.3-2.6.8-6-2.5-6.3-2.7ZM414.8,352.2c.6,1,0,2.7.7,3.7,1.1,1.7,13.4,2.1,15.9,1.9,3.5-.3,15.1-4.5,7.1-5.9s-10.6-.4-15.7-1.3-9.7-5.3-10.8-.3c.2.8,2.3,1.1,2.7,1.8ZM488.1,370c-10.6-1.9-22.4-6.5-32-11.4s-6.3-5.2-7.4-5.2-6.2,4.2-6.4,5.3c-.3,1.7,8.4,8.6,10.2,9.6,2.8,1.6,19.8,8.3,22.5,8.6s7.3-.7,9-1.6,4.6-3.8,4.2-5.3Z"/>
  <path class="st11" d="M418.1,434c.1.6,0,1.3,0,2,.5,4.7.1,11.1,0,16s0,.7,0,1c-2.1,1.2-1.6,3.2-2,5-2.9,15.2-4.2,24.8-4,40.5s-.6,4.4,1,5.5c0,4.8,1.2,7.6,2,12-8.5-.3-16-5.7-17-14.5s.9-12.6,2-17.5c1.8-7.9,5.9-16.8,8.6-24.5-3.3-8-2.4,1.1-6.6,1.5-.6-5.5.7-4.4,2-9,2.7-9.5,4.6-19.1,5-29,4.6.2,8.3,7.3,9,11Z"/>
  <path class="st1" d="M464.1,387c0,0,.2-1.5-.3-1.7-8.1-3.8-21.3-6.1-27.3-13.2s-3.7-5.4,1.2-10c7.8,5.4,15.3,10.1,24.1,13.7,2.5,1,12.9,3.4,13.2,4.8s-.8,3.3-.9,3.4c-.4.2-2.3-.3-3.3.2s-1.4,1.5-1.7,1.8-1.6.3-2,1c-.6-.3-2.6.3-3,0Z"/>
  <path class="st1" d="M460.1,392c-5.2,1.3-9.3,3-14.7,1.2s-20-14-20-16.7,2.6-5.2,2.8-5.4c3.1-2,10.5,7.2,13.9,9.3s14.4,4.8,17.3,7.5.5,1.1.6,2.1,0,1.5,0,2Z"/>
  <path class="st1" d="M416.1,383c2,0,3.7-1.9,5.6-2,3.8-.2,6.7,5.1,9.2,7s14.1,8.5,14.2,10.6-1,1.3-1,1.5c-2-.7-1.7,1.7-2.7,2s-5.6.8-6.7.7-3.8-2.2-4.6-2.7c-3-2.1-13-13.1-14-13v-4Z"/>
  <path class="st1" d="M410.1,400c0-3.6-.4-7.5.5-11,5.2,4.9,10.9,11.3,17.5,14-.4,2,2.7,5.5-1.7,6.8s-6.9-.3-10.3-1.8-4-2.1-6-3c0-1.7,0-3.3,0-5Z"/>
  <path class="st11" d="M425.1,500c.8.7,1,2.3,3,2,0,1,0,2,0,3,.6,6.3,2.1,9.6-2,15-1.3.1-2.8-.2-4,0-1.5-8.1-6.3-15.4-5-24,4.2,0,5,1.3,8,4Z"/>
  <path class="st11" d="M416.1,411c.8.4,0,2.4,6,3-1.1,3.3,6.1,2.8,7,0,.3,0,.7,0,1,0,.9,0,1.7,0,2,1-.7.9-1.2,2.1-2,3-1.9-.3-2.3,0-2,2-2.2,2.7-4.8,5.3-7,8-2.4-4.9-5.8-9.8-11-12-.3-2.2,0-4.7,0-7,1.6,1.2,4.6,1.3,6,2Z"/>
  <path class="st12" d="M407.1,384c6.6-1.7,5.4,3.5,6,4,1.4,1.3,2.8-1,3-1,1,0,11,10.9,14,13,.7,1.7-1.9,2.5-2,3-6.6-2.7-12.3-9.1-17.5-14-.9,3.5-.5,7.4-.5,11l-2,4c-.6-5,1.3-11.3-1-16,0-1.3,0-2.7,0-4Z"/>
  <path class="st2" d="M428.1,505c4-.6,1.9,7.1,2,8.4s2.2,0,2,3.1-5.8,2.7-3.1,6.5c-4.6-1-2.5,2.5-3,3s-12.2,1.8-14,2v-2c6.9-.8,9.3.1,14-6s2.6-8.7,2-15Z"/>
  <path class="st0" d="M421.1,428c-1.5,1.8-3.4,3.3-3,6-.7-3.7-4.4-10.8-9-11-.4,9.9-2.3,19.5-5,29,.2-2.7-.4-5.8,0-8.5s2-3.8,2-4v-17.5c0-.2,3.5-2.3,4-2,.8,2.8,2.9,4.8,6,4,.5-2.4-5.2-5.2-5.7-6.3s-.2-1.1-.3-1.7c5.2,2.2,8.6,7.1,11,12Z"/>
  <path class="st9" d="M588,241c0,1.3,0,2.7,0,4s0,1.3,0,2c-3.6-.9-1.5,4.1-2,7-.9.3-1.7-1-2-1,0-2.2.1-6.1-1-8,1.3-3.6,2.1-3,5-4Z"/>
  <path class="st0" d="M418.1,436c3-.6,1.9,1.5,2,3.5.1,3,0,6.1,0,9.1s1,4-2,3.5c.1-4.9.5-11.3,0-16Z"/>
  <path class="st10" d="M432.1,415c-.3-1-1.1-.9-2-1l6.5-7c2.3,1.8,1,1.5.1,3.1-1.6,2.7-3.3,3.3-4.6,4.9Z"/>
  <path class="st12" d="M416.1,408v3c-1.4-.7-4.4-.8-6-2,0-1.2,0-2.7,0-4,2,.9,4,2.1,6,3Z"/>
  <path class="st10" d="M429.1,414c-.9,2.8-8.1,3.3-7,0,2.2.2,4.7,0,7,0Z"/>
  <path class="st0" d="M418.1,453c-.1,2.7,1.1,5.8-2,5,.4-1.8,0-3.8,2-5Z"/>
  <path class="st12" d="M469.1,386l1,.5c0,5.6-2.1.9-3,.5.4-.7,1.6-.7,2-1Z"/>
  <path class="st2" d="M428.1,502c-2,.3-2.2-1.3-3-2l3-1c0,1,0,2,0,3Z"/>
  <path class="st10" d="M430.1,418c-.8.9-1.6,1.5-2,2-.3-1.9,0-2.3,2-2Z"/>
  <path class="st1" d="M444.1,402l-1-.5c0-.6,1-.4,1-.5v1Z"/>
  <path class="st7" d="M218.9,585.7c.2-.1.3-1.4,1.1-1.6,1.9-.6,13.6-4.5,14.2-4.1s1.6,4.7,3,6.5,3,3.1,3.2,3.2c2.8,1.2,4.7-1.5,3.3,3.3-4.3,14.4-27.8,27.6-42,28.9-26.9,2.4-49.5-18.3-48.9-45.5s2.7-15.9,3.5-16.5c1.2-.9,2.2.9,2.8,1.7,8.9,11.6,13.6,18.4,28.9,22.1s26.5,3.9,30.9,1.9Z"/>
  <path class="st12" d="M267.1,565c2.3-1.6,2.6-1.3,3.6,1h1.3c1,2.7,2.2,6.3,3.8,8.7s.8,2.9,2.2,1.3,1.5-7.2,2.2-9.3,1.7-2.3,1.8-2.7c-1.1,2.7,1.7,5,2,6s0,.7,0,1c-.9,1.2-5.2,3.8-4,5s2.5-1.1,3-2c-.4,2.7-.7,5.3-1,8-5.3-.8-6.1,8.4-1,7,0,.7,0,1.4,0,2-1.1.7-5.8.2-5,2.5s1.5.3,1.7.8c1,2.1,4.2,7,4.3,7.5.4,2.2-.8,6.3,0,9.5s3.8,2.7,3.8,3.4-.3,2.9-.3,4.1c0,1.8,1.8,3.7-1.6,3.2-.3-1-.7-1.5-1-3s0-1.7-1-2c-.3-1.7-.5-3.3-1-5l-1-4c-.7-2.4-2.1-5.3-3-8l-1-3c-1.1-3.3-2.5-6.6-3-10l-12,2c.8-3.6,3.4-10.6-1.5-13s-1.6,1.2-1.9,2c-1.2,2.7-2.2,5.3-3.6,8-2.9-.6-1,2.9-4,2,.1-1.9-.2-4.1,0-6s1.4-5.5,2-6,1.8.2,2,0c.5-.7-.4-9,0-11,.6,0,1.4,0,2,0,1.7,0,.5.7,4,0s1.9,0,2,0-.2,1.3.3,1.7c1,.7,3.3.6,3.6,1.9s-1.3,3-.9,3.4,2.7-.3,3,0c1.9,1.8-1.7,2.9-2,4l4-.6c-.2-1.7.3-3.8,0-5.4s-.8-1.6-1-2c-.3-.7-1.8-1.6-2-3Z"/>
  <path class="st1" d="M240.1,553c.9,2.3,2.9,5.3,5.3,6.2,4.5,1.8,13.7-1,14.7,4.8l-4,1c-.6,0-1.4,0-2,0-1.3.1-1.2,0-2,1-7.2-1.7-11.5-4.3-13-12,.3-.4.6-.7,1-1Z"/>
  <path class="st10" d="M251.1,572c1.1,1.5,1.3,2.1,1,4-.6.5-1.9,4.9-2,6-.8,1-1.2,3.2-3,1.5s.3-6.2,1-9-1.2-2.9,3-2.5Z"/>
  <path class="st10" d="M235.1,566c-1,3.1-1.9,5.5-4,8-6.9,0-5.8-3.2-1-6s2.3-.8,3-2h2Z"/>
  <path class="st1" d="M226.1,560c.7.7,1.5,1.5,2,2v4c-4.9-.4-7.9-.1-5-6h3Z"/>
  <path class="st0" d="M254.1,565c-.4,2,.5,10.3,0,11s-1.7-.2-2,0c.3-1.9,0-2.5-1-4s-2-.8-2-1.5c1.2-.9,2.3-3.6,3-4.5s.7-.9,2-1Z"/>
  <path class="st12" d="M246.1,568c.8,3.4,0,10.9-4,9.5.2-1-.3-4,0-4.5.5-.7,2,2,2-3s0-1.3,0-2c.7,0,1.3,0,2,0Z"/>
  <path class="st1" d="M244.1,570c0,5-1.5,2.3-2,3l-5-.5c.7-5.4,2.9-2.9,7-2.5Z"/>
  <path class="st1" d="M230.1,556c1.3.5,4,3.6,2.5,5l-5.5-5c.9.1,2.3-.2,3,0Z"/>
  <path class="st0" d="M235.1,566c.3-.8-.7-2.3,1-2,.2,4.6.4,9.9-5,10,2.1-2.5,3-4.9,4-8Z"/>
  <path class="st10" d="M216.2,569c1.9,2.3,2,6.2,2,9-1.3,0-2.7,0-4,0v-1.3c3.4-1.2,1.7-4.6,2-7.7Z"/>
  <path class="st10" d="M145.2,571c-.4,2.9-.4,10,0,13l-1,.5c0-3.7,0-7.4,0-11s-.6-4.9,1-2.5Z"/>
  <path class="st1" d="M246.1,568c-.7,0-1.3,0-2,0-2.6,0-5.6.8-3.5-3,1.8-.1,5.1,1.1,5.5,3Z"/>
  <path class="st1" d="M236.1,553c4.4,9.4-6.3,2.9-1,0,.3,0,.7,0,1,0Z"/>
  <path class="st0" d="M228.1,562c1.1.9,2.1-1.8,2,4,1,0,2,0,3,0-.7,1.2-2,1.4-3,2,0-.7,0-1.3,0-2-.7,0-1.3,0-2,0v-4Z"/>
  <path class="st2" d="M243.1,552c3.4,5.6,11.5,4.9,17,7s2.1,1.5,3,2l-1,4c-.1,0-1.6,0-2,0v-1c-1.1-5.7-10.2-3-14.7-4.8s-4.3-3.9-5.3-6.2c1.2-1,1.4-1,3-1Z"/>
  <path class="st1" d="M264.1,550c-.2,1.3.1,2.7,0,4-7.4,2-5.1-.8-10-2s-2.8.2-4,0v-4c1.8-.3,3-1.8,4.3-1.8,2.7,0,6.9,3.2,9.7,3.8Z"/>
  <path class="st10" d="M246.1,543c.2-.4,1.5-1,2.2-2.3,2.3-4,1.6-8.1,6.5-8.5s-1,4.5-1.7,5.5c-1.4,2.1-4,10.6-8,7.2.3-.6.7-1.5,1-2Z"/>
  <path class="st1" d="M250.1,555c1.2.4,4.4.8,6,1s2.2.8,4,1l1,1.5-1,.5c-5.5-2.1-13.6-1.4-17-7,4.1,0,4.7,2.3,7,3Z"/>
  <path class="st12" d="M254.1,552l2,4c-1.6-.2-4.8-.6-6-1v-3c1.2.2,2.9-.3,4,0Z"/>
  <path class="st2" d="M226.1,526c-1.1-.1-3.3.4-3.9-.1s0-1.7,0-1.9l4,2Z"/>
  <path class="st2" d="M245.1,539h-1c-.5-4.2,1.5-4.2,1,0Z"/>
  <path class="st9" d="M374.1,508c.5,1.5-1.1,2.5,2.5,2.1s.2-5.3,9.5-3.1c-.3.3-.6.7-1,1l-.5-1c-1.6,1-3.1.7-2.5,3-5,3.1-2.3,2.5-4,5s-1.3-.2-1.7.3-.1,2.2-.4,2.5c-.6.7-2.9-.1-3.9.2-.5-1.3,1.4-6.6-1.5-6s-6.5,6.7-6.8,7.3c-1.9,4.3,2.3,9.8,5.3,4.7l2,2c-.9,1.2.9,3.5,1,4s0,1.3,0,2c-6,.9-5.6-1.7-6.7-2-5-1.5-3.5,2.4-3.3,5s0,1.3,0,2c0,1.9-.1,7.1,0,8-1.2-1.3-4.1-3.1-4,.5s4.6,12.1,5.5,15.6c1.6,6.2,7.1,35.2,3.5,39s-1.8,0-2-1.5c-1.7-14.7-1.8-26-6.5-40.5s-3.2-13.6-6.4-8.4c2.8,13.5,7.4,28.3,8.8,42s-.8,12.2.3,15.7,7.6-.9,9.1-2.3,3.6-5.7,3.7-6c5.2,1,4.1,2.1,4,7-1.7,4.7-3.1,8.4-5,13l-1-2.5c.6,2.1-3.9,6.1-6,4.5.5-1.4,2.5-8.5,2-9-10.2-1.2-7.3,9.3-16,11.5s-9.8-.5-13.3.7-2,2.8-3,3.5-6.5,2.2-7.3,2.3-7.6-1.7-8.4-2c.1-2.6-1.8-5.7-4-7-5.6-3.3-5.9.8-6.6,1-3.3.9-4.1-3.6-8.4-2-.3-.2-1.6-.2-2.5-.9-1.6-1.3-1.9-4.1-4.2-4.9s-5.5-.2-5,3.1,4.8,13.4,5.5,15.4c1.3,3.1,5.5,11.5,7.2,14.3.7,2.1-1.7,4.9-4,5-4.8-7.9-10.3-15.5-12-25s.1-2,0-3c-1.1-.2-.9,1-1,1-.8,0-.8-2.4-1-3,3.4.5,1.6-1.5,1.6-3.2s.3-3.7.3-4.1c0-.7-3.5-2.3-3.8-3.4-.9-3.2.4-7.3,0-9.5s-3.3-5.4-4.3-7.5-1.4,0-1.7-.8c-.8-2.3,4-1.8,5-2.5.6,6,5.5,18.7,13,18-.4-15.4,3.5-31.5,8.5-46s4-6.6,4.3-8.8-1-5.8-3.9-3.8-6.6,15.6-7.2,17.8c-3.2,11.2-3.9,24.1-4.7,35.8-1.9.3-2.7-.8-3-2.5-1.2-6.6,2.4-27.6,4.4-34.5s10.5-19.2,2-18.9-8.9,18-10.4,22c-.3-1-3.1-3.3-2-6,2.6-7.6,3.3-12.6,7-20,1.5.1,6-1.1,7-1,1.7.2,5,3.3,8,2-1-4.3,4.3-13.1-2-14v5c-6.9,1.1-3-2.9-3.3-7.3-.4-7.7-5.2,1.4-4.8,7.3-1.6.7-6-7-6.1-7.5-.8-6,4.8-5.3,5.1-11.5,5,4.8,30.6,24.3,36.3,23.7s19.7-12.8,23.1-15.8c6.9-6,14.9-13.8,20.5-21,.4,1.3.6,2.7,1,4ZM358.1,527c-5.4-.3-.4,12.7-7,7l-1,9c6.5-.6,7.8-10.5,8-16ZM317.1,554v-14c-3.2-.7-1.8,3.4-2.7,5.8-1.6,3.9-3.1-1-3.2-3.4s2.8-6.2-2.1-6.4c-.3,6.9-.8,17.1,8,18ZM339.1,551c4.6-.7,6.6-5.9,6-10-4.2,2.9-7.2,4.1-6,10ZM331.3,543.1c-1.9,1.1,0,10.3-2.7,10.8-4.5.9-.5-11.1-5-12s-2.5,16.4,3.2,17.9,9.3-12.9,8.3-16.9c-1.2.2-2.9-.4-3.8.2ZM348,552.1c-1.1-.7-3-.7-2.9,1.4,0,5.3,3.1,12.4,3.9,18.1s.9,9.3,1.1,12.9c.4,8.5.2,17.2-1,25.5-1.3,1.6-1.8-.1-2-1.5-1.2-9.2,0-21.1-1-31s-3.1-21.2-4.6-21.6c-7.6-1.7-2,9.8-1.5,13.7,1.2,10.9,1.1,22.1,1.1,32.9,0,5.3.1,10.6,0,15.9,11.6,6.4,15.8-5.1,16.1-14.8s-1-19.1-2.3-26.8-5.7-24-6.8-24.7ZM308.1,589.5c-.8,7.3.6,16,0,23.5-1.5.3-2.3-.3-2.8-1.7-3.7-9.6,1.1-29.7,3.9-39.7s8.4-20.1.4-13.6-8.5,21.5-9.2,24.8c-1.3,6.2-3,19.7-2.1,25.7,1.1,7.4,11.9,15.5,17,7.1s-.3-23.8,0-28c.5-8.3,2.9-17.7,3-26s.5-2.8-1-2.5c-2.7,9.3-7.9,21-9,30.5ZM329.1,565.5v54.5l-3-2.5c-.8-14.4,1.1-29.8,0-44s-1.4-13.5-4-10.5c-.1,12.6-7.9,52,1.2,60.7s10.7.9,12.3-3.7c2.7-7.8,2.4-31.7,1.4-40.5-.6-5.9-2.1-11.7-3-17.5-2-.2-4.7,1.5-5,3.5Z"/>
  <path class="st7" d="M436.1,614c-8.3-3.8-13.8-10.7-20-17-.1-.3.1-.7,0-1-.6-1.4-2.7-3.1-2.7-4.5s2.1-4.3,2.7-5.5c1.1-2.4,2.5-6.9,4.5-7s11,3.6,14.7,4.4c20.7,4.5,39.3-.6,54.8-14.8,2.2-2,6.6-8.4,8-9s1.5-.7,2.5.6,3.4,14.7,3.5,17.5c1.6,36.1-39.3,49.8-68,36.5Z"/>
  <path class="st6" d="M362.1,545c.2,1.3.8,2.1,1,3,2.7,10.7,9.6,22.8,11,34s0,5.5,0,8,.5,7,0,9-3.3,5.6-3.7,6c-1.5,1.4-8.1,5.6-9.1,2.3s.2-11.3-.3-15.7c-1.4-13.7-6-28.5-8.8-42,3.2-5.1,5.4,5.3,6.4,8.4,4.7,14.5,4.8,25.8,6.5,40.5.2,1.4.6,2.9,2,1.5,3.6-3.8-1.9-32.8-3.5-39-.9-3.5-5.4-13.5-5.5-15.6,0-3.5,2.8-1.7,4-.5Z"/>
  <path class="st10" d="M372.1,535c1.9,1.7,8.8,12,9.9,14.6,4,9.8.9,10.5-1.6,19.1-.2.8-1.2,11.8-3.3,10.2-2-9.9-5.5-19.5-9-29-1.6-4.4-2.7-9.4-6-13,0-.7,0-1.3,0-2l1.5-3c1.6,1.7,7.9,2.5,8.5,3Z"/>
  <path class="st10" d="M392.1,527c-1-1-3.1-2.2-3.6-3-1.5-2.9,5.9-9.7,6.6-13l14,8.5c5.5,1.7,7.7,1.4,13,.5s2.7.1,4,0c-4.7,6.1-7.1,5.2-14,6s-13.3.8-20,1Z"/>
  <path class="st10" d="M398.1,484c-1.5,4.2-4.1,8-6,12-2.4.5-5.4,3.5-6,6s0,.7,0,1c-2.6.8-5.5,1.8-8,3h-1v-2c.1-.3.8-.6,1-1l2-3c3.6-3.2,8.3-10.5,10.8-14.7,4.3-7.4,6.2-15.9,11.2-22.3.4,6.6-1.6,14.4-4,21Z"/>
  <path class="st1" d="M409.1,551c1.8,0,3.6,1,5,1s.7,0,1,0c-1.2,3.6-5.7,16.1-9.5,16s-3.4-2.5-5.5-2c-.4-2.7,2.5-3,4-4,2.2-1.5,6.1-3.2,7-6.5-2.4-1.5-5.4,2.8-7,3.5s-3.2.8-4,1-1.4,0-2,0c-.3-.3-2.4.8-2-1,5.7,0,7.6-7.1,12-8s.7,0,1,0Z"/>
  <path class="st0" d="M436.1,614c-3.5,0-4.5-.9-4,3-11.2-5.8-14.4-9.1-22-19,5.4,1.1,3.2,8,10,6,.8-2.8-3.1-3.3-3.8-4.2s0-2.3-.2-2.8c6.2,6.3,11.7,13.2,20,17Z"/>
  <path class="st0" d="M400.1,484h-2c2.4-6.6,4.4-14.4,4-21s0-1.3,0-2c4.2-.4,3.3-9.5,6.6-1.5-2.8,7.7-6.8,16.6-8.6,24.5Z"/>
  <path class="st1" d="M380.1,521c.2.1,2.9,2.8,3,3,.4,2.1-.2,3.1-2,4-3.1.4-4.7,2-8,3l-1-1c0-.5-1.9-2.8-1-4s1.4.4,1.8-.1c1.6-1.6-1.1-9.4,7.1-4.9Z"/>
  <path class="st1" d="M389.1,507c-1.4,3.8-1.8,11.2-8,11,0-.2-2.9-1.6-3-3,1.7-2.5-1-1.9,4-5s1.8-.9,3-2,.7-.7,1-1c.8.2,2.1-.1,3,0Z"/>
  <path class="st1" d="M400.1,542c.1.6.5,1.8,1,2,.5,2.5-2.4,2.8-4,3.5s-9.1,3.5-10,2.5c-.6-6.3,7.8-9,13-8Z"/>
  <path class="st10" d="M501.1,546c.6-.2.9-1.9,1.5-2,2.3-.5,3.2,5.5,5.4,3.9s.2-4.2,2.1-1.9-.3,3.8,0,5.3,6.3,3.6,4,6.7-4.2-3.1-4-4l-2,3c-1.2-3-5.6-7.6-7-11Z"/>
  <path class="st1" d="M404.1,549c0,0,1,.9,1,1,0,.2,0,.8,0,1h-1c-2.7.8-8.8,8.6-14,5.5-1.4-5.6,10.8-8.2,14-7.5Z"/>
  <path class="st1" d="M384.1,528c9.8,1.2-.2,9-4.9,9-.2-1.2-1.6-4.2-1.1-5s5.3-1.5,6-4Z"/>
  <path class="st1" d="M391.9,534.2c1,.4,3,4.1,2,5.6s-8.3,3.4-9.8,4.1c-1.2-3,4.8-11,7.8-9.8Z"/>
  <path class="st12" d="M378.1,515c0,1.4,2.9,2.8,3,3,.3.7.2,3-1,3-8.2-4.5-5.6,3.3-7.1,4.9s-1.7,0-1.8.1l-2-2c.8-1.4,1.6-5.6,3-6s3.2.5,3.9-.2,0-1.7.4-2.5,1.6-.3,1.7-.3Z"/>
  <path class="st12" d="M374.1,582l4,3.7c-1.7,4.4,1.8,6.3,2.1,7.8s.7,5.5-2.1,4.6c-.7-2.5.7-9.3-4-8,0-2.5.3-5.6,0-8Z"/>
  <path class="st0" d="M412.1,526v2c-.3,0-.7,0-1,0s-.7,0-1,0c-3.9.2-7.5,2.1-8,2s-1-1.1-2.4-1.1-3.5,1.2-4.9,1.1-1.9-2.3-2.6-3.1c6.7-.2,13.3-.2,20-1Z"/>
  <path class="st10" d="M422.8,566.3c1.1,1.3,1.4,3.1,1.3,4.7-4.2.8-7-2.7-8-6.5.4-2.8,6,1,6.7,1.8Z"/>
  <path class="st0" d="M368.1,550h-1.3c-1-1.8-1.4-2.5-3.7-2-.2-.9-.8-1.7-1-3s0-6.1,0-8c3.3,3.6,4.4,8.6,6,13Z"/>
  <path class="st10" d="M401.1,532c.3.2.6.7,1,1s.8,2.5,2,3c-.6,6.1-1.5,3.1-2,4-.1-1.3-1.7-1.6-2-2-1.6-2-2.8-3.6-1-6,.6.1,1.7-.2,2,0Z"/>
  <path class="st1" d="M423.1,557c-2,0-3.2,1.3-4,3-.8-.2-2.8.3-3,0-2.1-2.4,5.6-10.8,7-3Z"/>
  <path class="st0" d="M362.1,535c-.1-2.6-1.7-6.5,3.3-5s.6,2.9,6.7,2c0,1,0,2,0,3-.6-.5-6.9-1.4-8.5-3l-1.5,3Z"/>
  <path class="st0" d="M386.1,503c0,.7-.1,2.9,0,3,.4.3,3-.2,4,0,.2,1-1,.9-1,1-.9-.1-2.2.2-3,0-9.3-2.2-5.7,2.6-9.5,3.1s-2-.6-2.5-2.1c2,.3,2.9-1.5,4-2,2.5-1.2,5.4-2.2,8-3Z"/>
  <path class="st10" d="M438.1,566l-4,4.7c-.8,5.1,1,2.5,3.2,3.4s0,1.9,3.2,2.1,3.2.3,4.1-2.1l1.5,4c-3.6-.2-10.3-1.3-13.3-3s-.5-1.8-.7-2l2-7c3.5-.9,2.9,0,4,0Z"/>
  <path class="st0" d="M416.1,586c-.6,1.2-2.7,5.1-2.7,5.5,0,1.4,2.1,3.1,2.7,4.5h-4c.4-2.4-.5-5.9,0-8s1.6-1.8,2-2,1.4.1,2,0Z"/>
  <path class="st12" d="M404.1,559c1.6-.7,4.6-5,7-3.5-.9,3.3-4.8,5-7,6.5v-3Z"/>
  <path class="st10" d="M472.1,572c-3.9,1.9-7.6,3.5-12,4,.5-4,8.3-4.3,12-4Z"/>
  <path class="st1" d="M427.1,566c2.2.8,3.6-2,3,4,0,.3,0,1.9,0,2l-3,2v-8Z"/>
  <path class="st12" d="M423.1,557h1c.1,1.7,0,3.8,0,4-1.9.4-3.4-.6-5-1,.8-1.7,2-2.9,4-3Z"/>
  <path class="st0" d="M392.1,496c-.7,1.4-.3,1.3-1.6,3.4s.7,3.3-4.4,2.6c.6-2.5,3.6-5.5,6-6Z"/>
  <path class="st10" d="M459.1,576c-3.2,1.9-7.4,1.9-11,2,0-.6-.2-1.9,0-2,.5-.4,8.9.2,11,0Z"/>
  <path class="st0" d="M434.1,566l-2,7c-.6-.7-1.9-.9-2-1s0-1.7,0-2,1.7-3.3,2-4c.6,0,1.4.1,2,0Z"/>
  <path class="st0" d="M399.1,532c-1.8,2.4-.6,4,1,6-3.6,1.5-5.3-4.5-3-6.5s1.7.5,2,.5Z"/>
  <path class="st1" d="M412.1,588c-.5-1.2-2.3,1.4-2-1.5.5-4.1,4.3-6.2,4-.5-.4.2-2,1.8-2,2Z"/>
  <path class="st12" d="M384.1,528c-.8-.1-2.2-.1-3,0,1.8-.9,2.4-1.9,2-4,1,1.4,1.4,2.3,1,4Z"/>
  <path class="st12" d="M400.1,560c-1.1,5.8-1.8.2-2,0,.6,0,1.4.1,2,0Z"/>
  <path class="st12" d="M373.1,531c-.3,0-.7,1-1,1,0-.7,0-1.4,0-2l1,1Z"/>
  <path class="st0" d="M402.1,532v1c-.4-.3-.7-.8-1-1l1-1v1Z"/>
  <path class="st13" d="M404.1,551h1c-.5,2-.9,0-1,0Z"/>
  <path class="st12" d="M378.1,532c-.5.5-1.6-.9-.5-1s.7.8.5,1Z"/>
  <path class="st12" d="M383.6,519c.6.3.6.7,0,1v-1Z"/>
  <path class="st2" d="M402.1,532c3.4,0,4.6-.9,4,3l-2-1c0,.7,0,1.3,0,2-1.2-.5-1.5-2.6-2-3v-1Z"/>
  <path class="st2" d="M410.1,542v2c-1.5.3-2.1-.4-3-1.5l3-.5Z"/>
  <path class="st2" d="M411.6,543c.6.3.6.7,0,1v-1Z"/>
  <path class="st2" d="M410.1,528c.3,0,.7,0,1,0h-1Z"/>
  <path class="st10" d="M336.1,176c3-.6,1.9,1.5,2,3.5.4,12.8,0,25.8,0,38.5-1.7-1-1-3.8-1-5.5-.2-12.2-.7-24.3-1-36.5Z"/>
  <path class="st10" d="M338.1,240l2-10c.8,9-1.1,19.8,0,28.6.2,1.6,3.5,2.1,2.1,5.4-.3-.1-1.3.3-1.8-.2-2.7-2.5-.3-19-2.2-23.8Z"/>
  <path class="st10" d="M416.1,264c-3.2.6-1.5-1.8-2.3-3.7s-2.6,0-1.7-3.6,3.5-1.5,2-4.7c.6,4,1.5,7.9,2,12Z"/>
  <path class="st10" d="M398.1,192c1.3,3.4,2.8,6.5,4,10-3.2.6-1.4-1.9-2.3-3.7s-8.1-5.2-1.7-6.3Z"/>
  <path class="st13" d="M364.1,298c-.3,0-.7,0-1,0h-1c.2-1-.4-2.5,1-3,0,.6,1.1,2,1,3Z"/>
  <path class="st10" d="M322.1,99c.3-6.1.2-13.4,0-19.5s1-4-2-3.5c.9-1.5,1-3.2,3-4-.6,8.8,1.3,18.5-1,27Z"/>
  <path class="st10" d="M248.1,308c1.1,1.1-.9,3.1-2,2s.9-3.1,2-2Z"/>
  <path class="st10" d="M32.2,316c-.8,2.7-2.5,5.7-4,8,.5-3.1-1.2-9.1,4-8Z"/>
  <path class="st0" d="M67.2,273c0,0,1.5,1.1.6,2s-6,4.1-5.6,2c1.3-1.1,2.4-3.7,5-4Z"/>
  <path class="st10" d="M34.2,312l-2,3c.2-.8-.3-2.7,0-3s1.7.2,2,0Z"/>
  <path class="st0" d="M68.2,258c3.9-.4,1,1.6,1,2-.8-.5-.7-1.3-1-2Z"/>
  <path class="st4" d="M372.1,422c0,0-.7-2-1-.5v67.1c-.5,1.6,2.1,1.4,2,1.9-.5,2.1-12.7,16.6-15,19-4.7,4.8-13.3,12.6-18.6,16.4s-12.1,6.8-12.8,6.8c-6.1,0-30.9-23.4-35.5-29.1s-11.1-15.2-12.3-17.8.3-2.6.3-3.2v-60.5h-7s-1,49-1,49c-6.9-16.8-12.3-34.7-13-53h138c-.8,16.5-4.5,37.7-11.9,52.6-1.1,2.1-1,2.7-3.1.4,2.2-11.3.5-21.3,0-32.5s.6-16,0-16.5-7.5,0-9,0ZM300.1,422h-9v73.5c0,4.6,5.4,9.8,9,12.5v-86ZM320.1,422h-7v98.5c0,.5,5.7,6.2,7,5.5v-104ZM340.1,422h-8c-.7,3.9.9,7.8,1,11.5,1,27.3-2.2,57.3,0,84,0,1.1,1.1,7.5,1.5,7.5,2.7,0,5.5-5.5,5.5-7.5v-95.5ZM359.1,422h-7v90c1.7-.8,7-6.2,7-7.5v-82.5Z"/>
  <path class="st5" d="M256.1,376.5c.8-2.5,10.6-1.3,13.5-1.5,21.1-1.6,43.7-6,58-23,3.4,4,9.5,8.1,14.2,10.8,16.5,9.5,37.2,15.1,56.3,12.2v35h-142v-33.5ZM329.1,360c-2.5-2-.9,5.3-6,3,2,1.2,1.8,5.8,2,6s5.2-1.6,7,0c-1.6-2.8-.7-3.7,1-6-3.6.9-3.6-2.7-4-3ZM311.1,370c-2.3-2.1-1.9,2.8-2,2.9-.4.4-6.2-.6-3.9,2.1s3.2-.5,2,4c2.9-1.1,3.7-.9,6,1,.1-1.4-.3-3,0-4.4s3,0,2-2.6c-5.8,1.4-3.5-2.5-4-3ZM348.1,371c-2.5-2-.8,5.3-6,3,0,3,3.3,1.9,2,6,1.5-1.3,5.8.2,6,0s0-4.8,2-6c-3.6.9-3.6-2.7-4-3ZM294.1,379c-.3-.3-4.4.3-4-3-.8-.6-1.6,2.2-2.3,2.8s-2.5,0-2.7.3c-.9.9,1.5,2.7,1.7,3.7s-1,2.1-.7,2.3,5.3-1.5,7,0c-2.7-5.1.7-3.6,1-4s0-1.9,0-2ZM373.1,381c-2.9,1.2-4.2-3.1-4.5-3-1.3.7-1.2,4.1-5.5,3.5,5,1.2,1.4,4.9,2,5.5,1.7-1.6,6.7.3,7,0s-1.8-4.4,1-6ZM268.1,379c-2.5-2-.9,5.3-6,3,2.8,2.9,3.6,1.4,2,6,1.7-2.1,6.6.4,7,0s-2.2-4,1-6c-3.6.9-3.6-2.7-4-3ZM389.1,380c-1.9-1.6-2.6,4.2-6,3,1.4,1.9,2.4,3.4,2,6,2.9-2.4,3.1-2.4,6,0-.4-2.6.6-4,2-6-3.7.9-3.6-2.7-4-3ZM316.1,395c-2.6-2.1-.8,4.7-5,3-.4,1.7,1.2,2.2,1.5,3.5s-.8,2.2-.5,2.5,4.5-1.3,6,0c-1.2-4.5,1.8-3.8,2-4,1.7-2.2-1.9-1.8-2.9-2.5s-.9-2.4-1.1-2.5ZM344.1,398c-2.7.2-4.9,0-5-3-.8-.6-1.6,2.3-2.3,2.8s-2.5.1-2.7.3c-.4.4,2.7,5.1,1,7,2.7-2.4,3.7-2,7-1-2.3-4.3-.3-3.3,2-6ZM366.1,396c-1.9-1.6-2.6,4.2-6,3,1.4,1.9,2.4,3.5,2,6,1.5-1.3,5.8.2,6,0s0-4.8,2-6c-3.7.9-3.6-2.7-4-3ZM272.1,401c-3.6.3-3.5-1.2-4.5-4-1.7,2.5-2.4,3.8-5.5,4.5,3.9,2.1,2.6,1.5,2,5.5,3.5-2.7,3.6-1,7,0-1.6-2.8-.7-3.7,1-6ZM293.3,399.8c-.7-.4-.7-2.8-2.2-2.8.6,3.5-5.9,2.5-4,5s3.7-1.1,1,4c3.3-1,4.3-1.4,7,1-.4-3,.2-4.7,2-7-1.2,0-2.7.4-3.8-.2ZM389.1,397c-2.5-2-.9,5.3-6,3,0,1.6,2.6,1.7,2.9,2.1s-1.4,2.7-.9,3.9c1.7-2.1,6.6.4,7,0s-2.2-4,1-6c-3.6.9-3.6-2.7-4-3Z"/>
  <path class="st14" d="M372.1,422c1.5,0,8.7-.3,9,0,.6.6-.2,13.9,0,16.5.5,11.2,2.3,21.2,0,32.5s-3.4,13.3-9,17v-66Z"/>
  <path class="st13" d="M407.1,388c2.3,4.7.4,10.9,1,16l2-4c0,1.7,0,3.3,0,5s0,2.8,0,4c0,2.3-.3,4.8,0,7s0,1,.3,1.7c.5,1.1,6.2,3.8,5.7,6.3-3.1.8-5.2-1.2-6-4-.5-.3-4,1.8-4,2v17.5c0,.2-1.7,2.3-2,4-.4,2.7.2,5.7,0,8.5-1.3,4.6-2.6,3.5-2,9s0,1.3,0,2c-5,6.4-6.9,14.9-11.2,22.3s-7.2,11.5-10.8,14.7-1.5-.3-1.9.1.1,2.4-.1,2.9-.9.7-1,1-2.6.9,0,2h1c-1,.5-2,2.3-4,2-.4-1.3-.6-2.7-1-4,19.4-24.6,30.1-59.1,33-90l3,1.5c-.9-1.9.3-3.6-3-3.5.7-8,1.1-16,1-24Z"/>
  <path class="st13" d="M403.1,362c3.5,0,2.2,1.2,5,2,0,.3,0,.7,0,1,0,.7-.1,2.8,0,3s1.4,0,2,0c2,.2,13.9.4,15,0,3.2,5.1-.2,3.8-4,4,.1-.6,0-1.3,0-2-5.1.4-8.6-3.5-11,2s-.8,1-1,2c-.6.1-1.6-.2-2,0,.6-5.7-4.6-5.6-5-6s.2-3.9,0-5l-2,1c.6-.6-1.7-2,3-2Z"/>
  <path class="st13" d="M406.1,376c2-.5,2.1,1.1,3,2s.6.7,1,1c1.6,1.5,3.5,3.9,6,4v4c-.2,0-1.6,2.3-3,1s.6-5.7-6-4c0-2.4-1.5-4.9-1-8Z"/>
  <path class="st9" d="M278.1,500c3,4.2,9.3,11.2,13,15-2.6,2.5-5.7-2.9-7.4-4.6s-1.4-.3-1.6-.4c-.2-.2.6-2.7-2-2-.4-6.1-2.5-3.7-4-8h2Z"/>
  <path class="st12" d="M409.1,374c-.2,1.2.1,2.7,0,4-.9-.9-1-2.5-3-2,0-.6.6-1.8,1-2s1.4.1,2,0Z"/>
  <path class="st12" d="M406.1,414c0-.7,0-1.3,0-2,3.3-.1,2,1.6,3,3.5l-3-1.5Z"/>
  <path class="st10" d="M270.1,123c1.7-.2,1.8-2.8,2-3,2.5-2,1.8,2.7,2,4-1.6,0-3.3.6-4-1Z"/>
  <path class="st10" d="M276.1,116c1.1,1.1-.9,3.1-2,2s.9-3.1,2-2Z"/>
  <path class="st13" d="M352.1,287c-.8,1.3-1.8,4.8-2,5-.4.3-8.1-2.6-9.4-3.1-3.6-1.5-12-7.9-14.1-7.9-4.1-.1-9.3,3.5-2.8,2.3s1.2,0,1.3,1.8c-4.6,1.5-14.3,1.2-16.5-4s.4-3.1.3-4.3c-.5-3.1-4.6-5.4,2.8-5.7,13.3-.5,21.8,13.4,32,15.1s-.2-3.4.5-4l9,2c-.2.2-.4,2.1-1,3Z"/>
  <path class="st10" d="M329.1,152c-.8-17.6-1.4-36.3-2-54-.2-6.9-.7-15.4,1-22,.1,7.2.9,14.4,1,21.5.4,18.2-.4,36.4,0,54.5Z"/>
  <path class="st13" d="M366.1,295c-.3.7-1.7-.6-1-2s1.7.6,1,2Z"/>
  <path class="st0" d="M568,257c.7,2.7-2.4,2.5-4.2,3.2-22.4,8.7-56.8,16.8-80.7,19.4-1.8.2-2.7.8-4-1.1,30.3-4.4,59.7-12.7,89-21.5Z"/>
  <path class="st13" d="M370.1,360c-.9,0-2.1.1-3,0,.1-1.5,2.9-1.5,3,0Z"/>
  <path class="st0" d="M572,256c.7.3-.6,1.7-2,1s.6-1.7,2-1Z"/>
  <path class="st8" d="M111.2,331c1.9,6.4,5.6,9.6,11,13s5.2,1.8,6.6,2.9,2,5.2,4.2,7.1c3.6,3.1,9.6,3.9,13.8,5.9l7.5,9c-38.2,2.6-68.2,30.8-69,70-1.2,1.2-10.6-7.2-12-8.5-14.8-13.2-26.8-29.4-35-47.5,0-.3,0-.7,0-1,0-.6.1-1.5,0-2,3-7.4,3.8-2.2,4.5-2,1.9.7,1.3-3.4,4.5-2,2,.3,4.4-.4,6.3,0s.3,1.8,2.1,2.1c3.9.5,8.4-1.8,10.6,2.9s4.1,16.2,8.5,18,1.5-1.1,1.9-2c1.9-4.3,3.8-8.6,5.6-13,4.3-10.2,6.3-6.8,14.5-8s9.6-1.3,13-2,1.9-1.6,2.5-2,3.9,1,1.1-3.6l-16.9-14.1c.4-9.1,2.7-18.1,3.8-27.3s.5-.9,1-1c2.2,1.3,7.4,3.7,10,5Z"/>
  <path class="st3" d="M84.2,310c2.7.2,5.7.3,6,4-2.8,0-1.8,3.4-4,2s-1.6-4.4-2-6Z"/>
  <path class="st3" d="M80.2,288c.3,2.8,2.4,13.2,2,15s-3.3,2.9-.7,4.8,1.7-1.3,2.7,2.2c-1,0-2.7-1.5-3.5,0-1.6,5.9,1.4,10,7.5,10.1,0,3.5,2.5,1.7,6,2s5.3,4.2,2,4c-5.2-1.1-8.4,3.5-12.1,5.5s-4.7-1.6-3.9,5.5c-.7.4-1.4.7-2,1,.7-4.2-5.6-1.4-8-1s-1.4-.1-2,0c-1.5-2.2,3.7-4.1,2-6s-2.3.9-3.3.7-10.2-5.4-10.5-5.9c-.6-.9.2-3.1-.1-3.8h4s0-2,0-2h-4s0,2,0,2c-.1-.3-4.8-3-6-2-2.1,1.6,5.4,3.8,4,6-6.5-1.6-7.2,4.2-6,9.3s1.9.2,2.1,2.2-3.5,3.7-2.1,9.8,2.9.3,2,4.1-3,0-2,2.6h6c-.2,1.2-.9,1.6-1,2-2.3.3-2.5,3.4-3,4s-1.5.4-3,2c-1.3.2-3.6-.7-4,1v1c-.6.7-1.3,1.4-2,2-1.3-.2-2.9.3-4.3,0s-1-3.1-3.7-2c0-.3,0-.7,0-1,0-.9,3.1-3.5-1-3,0-1.3,0-2.7,0-4,0-4.7,0-9.3,0-14,.3-2.5.6-3.8,1-6,6,.3,2.8-2.9,3.1-4.5.7-3.3,3.1-6.1,1.9-10.5,5.2-.3-1.5,6.1,3.5,7s1.6-4.2,3.8-5.8,3.6,1.4,2.7-4.2c-2.7-1.1-1.5,1.9-2.5,2-2.6.4-1.1-1.5-1.5-2-.3-2.8.2-1.7,2-2s1.9.2,2,0c.5-.7-.4-9,0-11.3s3.1-2.2,3.6-3,0-2.5.7-3.4c2.1-3.3,7.2-2.1,5.7-7.3,7.8,3.6,5.3-6.3,6-7s3.8-.1,4,0c.6.6-1.4,4.6,1.5,4,2.2-1.3,2-3.7,2.5-6l8,6ZM59.9,300.3c-4.1-1.5-4.1,0-3.7,3.7,1.3-.2,5.5.4,6,0,.9-.7-2.1-3.6-2.3-3.7ZM64.2,322h-2v4h2v-4ZM82.2,322c-2.9-1.9-1.9,4.6-2,6,.2.3,3.8-.9,4-1,.6-.9-1.6-4.7-2-4.9ZM44.2,330h-2v6h2v-6ZM36.2,352c-4.2-.7-1.7,7,.3,7.7,4.2,1.5,3.6-.3,5.2-1.3s3.3.7,2.6-4.4c-2.7-1-1.6,1.8-2.6,2-4.3.9-6.3.4-5.4-4Z"/>
  <path class="st3" d="M92.2,314c-.2,1.2-1.3,3,0,4,.6,2.9-1.5,2-4,2,0-2.6,2.5-1.1,2-6,.7,0,1.3,0,2,0Z"/>
  <path class="st1" d="M144.4,302.7c1,.8,7.4,1.9,5.7,4.3s-28.3,3.1-32.5,3-16.3-1.1-20.8-2.2c-7.7-1.9-11.7-9.2-10.7-16.8,9.5.6,18.1,5,27.6,5.9,6.9.6,23.6-1.4,28.5,2.5s1.4,2.7,2.2,3.3Z"/>
  <path class="st1" d="M85.2,270c.8,1.8,2.6,2.5,4.3,3.2,13.5,5.9,29.1,10.1,43.6,12.9l2.1,7.9c-.9.8-21.3-.7-24.4-1.1-5.5-.8-16.7-3.4-21.8-5.1s-5.1-4.2-8.8-3.7c-.4-3.3-1.6-1.5-2-2-1.6-2-3.2-5.5-5-8v-1c.4,0,.9,0,1-.5-.1-2.5-.5-4.4,2-5.5,3.9,2,4.2,2.5,9,3Z"/>
  <path class="st1" d="M164.2,320c-.8,1.1-24.4,5.7-27.5,6-10.9.9-38.2,2.9-37.5-13,12.4,1.1,26.1,1.7,38.5,1s11.5-2.9,15.9-2,11.8,6.3,10.5,8Z"/>
  <path class="st1" d="M122.2,330c6.6-.2,13.9-.3,20.4-1.1s23.5-5.7,25.1-5.5,8.1,4.8,8.5,5.1c2.3,2.2-1.6,6.1-2.7,6.4-10.6,2.9-26.3,6.1-37.2,6s-10.2-.2-13.3-2-.4-2.3-.8-2.8-2.4,0-2.8-.2-1.7-3.4-3-4c-.3-2.7.1-1.8,2-2,.4,1.6,3.7,1.5,4,0Z"/>
  <path class="st1" d="M181.2,335c.9,1.7,3.4.8,5,1l4.5,5c-.7,1-18.2,8.3-20.5,9-6.7,1.9-18.4,3.5-24.7,3.4s-3.1.9-4.6.7-6-5.7-6.2-6c-.7-1-.3-2.5-.5-3h1c.3,0,.7,0,1,0,17.6-.9,29.1-6.4,45-10Z"/>
  <path class="st1" d="M170.2,353c3-.2,7.6-2,10.5-3s12.3-5.9,15-6.1,8,4.5,7.6,7.5-30.3,11.8-35.1,12.6c-6.7,1.2-13.2,1.3-17-5.5,0-2.1,13.1-2.2,15-4.5l2-1c.6,0,1.4,0,2,0Z"/>
  <path class="st1" d="M170.2,367c3.4-1.3,8.6-1.7,12.5-3,8.9-2.9,17.4-6.6,26.2-9.8,1.4,0,6.9,7,6.3,7.8-10.3,4.7-20.6,9.5-31.8,11.7s-10.6,2.8-16.2-1.7c.2-1.8-2.9-2.8,3-5Z"/>
  <path class="st1" d="M221.1,363c-.4,1.8,1.8,2.5,2,3s1.2,3.7,1,4c-9.4,3.1-27.7,16.7-37.6,14.2s-8.3-4.4-7.4-6.7,5.3-1.2,7.4-1.6c11.8-2.1,23.8-8.4,34.6-12.9Z"/>
  <path class="st1" d="M175.9,295.3c.5.6,1.5,4.5,1.3,4.7-14.8-.7-32.2,6.8-38-12,6.5,2.6,33.3,3.2,36.7,7.3Z"/>
  <path class="st1" d="M193.2,310c-.7.8-19.2,4.1-21.4,4s-18.7-4.6-15.6-9,15.3-.9,18.4-1.1,4.2-2,6.8-1.7,14.2,4.9,11.7,7.8Z"/>
  <path class="st1" d="M182.2,329.9c-.2-.2-.2-2.6,0-2.9.6-1,14.6-1.9,17.2-2.3,7.3-1.3,20.5-8.5,22.7,1.7-.3,1.2-10.9,5-12.7,5.3-5.7,1.1-15.2,1.6-20.8.3s-6.2-1.9-6.4-2.1Z"/>
  <path class="st1" d="M208.2,320c-9.9,1.2-20.5,5.2-30.5,4.1s-4.4-3.2-5.2-3.8-1.8,0-1.3-2.3c4.7-.3,9.7-1.2,14.2-2.3,9.3-2.3,19.4-9.1,22.8,4.3Z"/>
  <path class="st1" d="M200.2,336c8.3-1.2,16.2-3.6,24.4-5,1.7.7,7.3,3.9,5.5,6s-11.6,2.9-13.5,3.1c-7,.6-13.9,0-20.5-2,0-.7,0-1.3,0-2,1.3-.1,2.7.2,4,0Z"/>
  <path class="st1" d="M235.9,344.2c.3.5.5,2.6.3,2.8-1.2,1.2-30.1,5.2-31-3,3.7-.3,7.7.4,11.4,0s12.1-4.2,14.1-4,5.1,4,5.2,4.3Z"/>
  <path class="st13" d="M181.2,335c5-1.1,5.5-.3,9.7-.4s9.8-2.6,9.3,1.4c-1.3.2-2.7-.1-4,0s-2.3-.7-2,1.5c0,1,1.4.3,2,.5,0,.9.1,3.9,0,4s-3.8.1-4,0c-1.2-1.3,2.3-5.1-6-6s-4.1.7-5-1Z"/>
  <path class="st0" d="M93.2,270c-2.7-.5-6.3.2-8,0-4.8-.5-5.1-1-9-3s-2.2.5-2-.5,3.2-.4,2-3.5c4.6,2.5,12.5,3.5,17,7Z"/>
  <path class="st8" d="M84.2,310c.4,1.6.4,4.9,2,6s1.1-1.9,4-2c.5,4.9-2,3.4-2,6-6.1,0-9.1-4.2-7.5-10.1.8-1.5,2.5,0,3.5,0Z"/>
  <path class="st8" d="M92.2,311c0,1,.1,2,0,3-.7,0-1.3,0-2,0-.3-3.7-3.3-3.8-6-4-1-3.5-1.3-1.2-2.7-2.2-2.6-1.9.6-4.3.7-4.8,3.3,2.8,6.9,5,10,8Z"/>
  <path class="st8" d="M92.2,318c.7.5,3-1,2,4-3.5-.3-6,1.5-6-2,2.5,0,4.6.9,4-2Z"/>
  <path class="st13" d="M224.1,360c4.6.7,9.3-2.5,8,4-1.6.1-3.4-.2-5,0s-2.9-.4-4,2c-.2-.5-2.4-1.2-2-3,1.7-.7,3.5-.8,3-3Z"/>
  <path class="st0" d="M116.2,332c1.3.6,2.5,3.7,3,4l-3,2c2,.7,5.5,3.6,6,6-5.4-3.4-9.1-6.6-11-13,2.1,1.1,4,.6,5,1Z"/>
  <path class="st11" d="M93.2,312c.3.3.6.7,1,1,2.1,4.6,1.4,9.6,7,13-.5,0-.9.5-1,1-1.1.2-3.1-.3-4,0v-1c3.3.2,2.2-3.7-2-4,1-5-1.3-3.5-2-4-1.3-1-.2-2.8,0-4s0-2,0-3c.3.3.7.7,1,1Z"/>
  <path class="st0" d="M72.2,280c1.7.9,3.7,2.9,4,3l.5,1,1.5-1v-1c.4.5,1.6-1.3,2,2s-.2,2.7,0,4l-8-6c.1-.6,0-1.4,0-2Z"/>
  <path class="st0" d="M122.2,330c-.3,1.5-3.6,1.6-4,0,1.3-.1,2.7,0,4,0Z"/>
  <path class="st8" d="M94.2,313c-.4-.3-.7-.7-1-1,.3.3.8.7,1,1Z"/>
  <path class="st2" d="M176.2,282c1.4,1.3-.1,1.9-1.5,2s-10.7-.8-12.9-1.1c-26.3-4.2-52.9-13.7-77.3-23.7-1.5-.6-2.7.6-2.2-2.2,14.6,3.3,28.3,10.6,42.8,14.7,16.7,4.7,34.2,6.7,51.2,10.3Z"/>
  <path class="st8" d="M72.2,280c0,.6.1,1.4,0,2-.6,2.3-.3,4.7-2.5,6-2.9.6-.9-3.4-1.5-4s-3.8-.1-4,0c-.7.7,1.8,10.6-6,7,1.5,5.2-3.5,4-5.7,7.3s0,2.5-.7,3.4-3.5,2.2-3.6,3c-.5,2.3.5,10.6,0,11.3s-1.5,0-2,0l-2-4c.1,1.9-1.9,1.6-2.1,3.5-.3,3.6,1.9,2.3,2.1,2.5.4.5-1.1,2.4,1.5,2s-.2-3.2,2.5-2c.9,5.6-1.3,3.2-2.7,4.2-2.2,1.6.7,6.6-3.8,5.8s1.7-7.3-3.5-7c1.2,4.4-1.1,7.2-1.9,10.5s2.8,4.8-3.1,4.5c3.7-21.2,16.3-43.2,34-56,.6-.4,1.4-.6,2-1,1.3.4,1.5.2,3,1Z"/>
  <path class="st10" d="M41.2,368l-1,2c-1.1.3-2.2,1.7-3,2.5v1.5c2,0,4,0,6,0,.9.5,3.2,1.9,4,2-3.2-1.4-2.6,2.7-4.5,2s-1.5-5.4-4.5,2c-.7-2.4-3.1-6.1-4-10,3.5,1.3,3.8-1.6,4.7-2s1.9.1,2.3,0Z"/>
  <path class="st8" d="M33.2,364c2.7-1.1,2.9,1.8,3.7,2,1.3.4,3-.2,4.3,0s.6.8,1,1c-.3.2-.6.8-1,1s-1.5-.3-2.3,0-1.3,3.3-4.7,2c-.4-1.7-1-4.3-1-6Z"/>
  <path class="st8" d="M32.2,356c-1.6-2.3-1.2-7.5-1.1-10.6s1-3.3,1.1-3.4c0,4.7,0,9.3,0,14Z"/>
  <path class="st9" d="M36.2,382h-2s0-3,0-3h2s0,3,0,3c.3-.2,1.4.1,2,0,0,.3,0,.7,0,1,0,1,0,2,0,3h-4c-.4-.4,1.8-3.8,2-4Z"/>
  <path class="st8" d="M32.2,360c4.1-.5,1.1,2.1,1,3-1.3-.5-.9-1.9-1-3Z"/>
  <path class="st0" d="M69.2,279c-.6.4-1.4.6-2,1l-1-.5c-.3-3.4,2.6-.6,3-.5Z"/>
  <path class="st12" d="M168.2,353l-2,1c.2-.3-.3-1.7,0-2,.7-.7,1.9,1,2,1Z"/>
  <path class="st12" d="M134.2,345c-.3-.5-3.5-1.5-2-3s2.6,2.1,3,3h-1Z"/>
  <rect class="st0" x="71.2" y="263" width="1" height="4"/>
  <path class="st12" d="M78.2,283l-1.5,1-.5-1c.5.2,1.4-.1,2,0Z"/>
  <path class="st0" d="M73.2,273v1c-.2-.3-1.6-.3-1-1.5.2-1.4,1,.5,1,.5Z"/>
  <path class="st3" d="M260.1,140c0-1.7.5-4.9,2.1-5.9s3.6,3.6,3.9,3.9c-.2,1.3-1,2.8-1,4l-5-1c0-.3,0-.7,0-1Z"/>
  <path class="st11" d="M265.1,142c0,.1,1.4,1,1,2h-6c0-1,0-2,0-3l5,1Z"/>
  <path class="st11" d="M272.1,566c-1.6-4.5-3.7-7.3-3-12.5s3.9-10.4,4.4-11.2,1.9-1,2.5-1.9c1.9-2.7,4.2-7.7,7.7-8.4,6.6-1.3,5.6,1.2,6.5,7v2c-.2.7-.7,2.5-1,3-3.7,7.4-4.4,12.4-7,20s-1.3,1.4-1.8,2.7c-.7,2.1-1.9,9-2.2,9.3-1.4,1.7-1.8-.6-2.2-1.3-1.6-2.4-2.8-6-3.8-8.7Z"/>
  <path class="st6" d="M294.1,536c-.5-5.8,4.3-14.9,4.8-7.3s-3.7,8.4,3.2,7.3v-5c6.3,1,1,9.7,2,14-3,1.2-6.3-1.8-8-2,.1-2-1.9-5.7-2-7Z"/>
  <path class="st1" d="M276.1,511l-2,7c-1.6-.2-5.8,2.6-7.6,0s-1.8-10.6-1.4-11c3.8-.7,7.9,3.8,11,4Z"/>
  <path class="st1" d="M290.1,518c-5.9,12.3-10,3.2-9-6l9,6Z"/>
  <path class="st1" d="M270.1,542c-3.5-.4-11.8-3.5-7.7-7.8s11.7,3,7.7,7.8Z"/>
  <path class="st1" d="M266.1,563c.4.3.6.7,1,1,0,.3,0,.7,0,1,.2,1.4,1.7,2.3,2,3l1,2c.3,1.6-.2,3.7,0,5.4l-4,.6c.3-1.1,3.9-2.2,2-4s-2.7.3-3,0,1.1-2.6.9-3.4c-.3-1.3-2.6-1.2-3.6-1.9s-.2-1.6-.3-1.7l1-4c.3.1.8-.1,1,0s1.2,1.4,2,2Z"/>
  <path class="st13" d="M280.1,508c2.6-.7,1.8,1.8,2,2-.7,0-1.4,0-2,0,0,1.8,0,10.2-2.5,10.1s-2.6-1.9-3.5-2.1l2-7c1,0,2.8-.8,4-1,0-.7,0-1.3,0-2Z"/>
  <path class="st1" d="M265.1,546c-2.4-.3-10.6.2-9-3.5s7-1.7,8.5.6.3,2.6.5,2.9Z"/>
  <path class="st1" d="M271.9,527.3c-.3,1.8,4.8,5.2,3.2,6.7s-9.5-4.3-7-8l3.7,1.3Z"/>
  <path class="st12" d="M265.1,546c0,0,1.4-.2,2,.7,2.6,3.5.4,6.4-3,7.3.1-1.3-.2-2.7,0-4s1.1-2.6,1-4Z"/>
  <path class="st12" d="M260.1,557c.3,0,4.2-2.1,6,0s-3,1.8-2,4c-.2-.1-.7.1-1,0-.9-.5-2.7-1.9-3-2l1-.5-1-1.5Z"/>
  <path class="st1" d="M276.1,521l1,6c-4.2-1.8-8.2-5.2-1-6Z"/>
  <path class="st12" d="M266.1,563c0-2.4-.7-3.5,2-3,.6,1.5-.9,3.2-1,4-.4-.3-.6-.7-1-1Z"/>
  <path class="st9" d="M294.1,540c1.1,1.1-.9,3.1-2,2s.9-3.1,2-2Z"/>
  <path class="st9" d="M290.1,541v-2c0,.2.9.4.8,1.2s-.8.5-.8.8Z"/>
  <path class="st13" d="M226.1,518l1,2c.1.1.6,0,1,0,.1.6-.2,1.7,0,2s8.2,0,9,0c-2.4,2.5-11.1,2.8-13.4,1.1s0-3.8.4-5.1c.6.1,1.5-.2,2,0Z"/>
  <path class="st9" d="M228.1,520c3.3.6,10.8-1.8,10,2-.3,0-.7,0-1,0-.8,0-8.7.4-9,0s.1-1.4,0-2Z"/>
  <path class="st13" d="M227.1,404c.1.6-.2,1.5,0,2-2.4,0-3.5-.7-3,2-.2-.2-5.9-2.5-4-4s5.4.3,7,0Z"/>
  <path class="st13" d="M228.1,408c1.6.3,2.3.2,4,1s2.3,1.5,2,3c-1.1.3-3.1,1-4,1,.9-5.1-2.2-2.2-5.3-3s-.5-1.9-.7-2c1.3.1,2.8-.2,4,0Z"/>
  <path class="st9" d="M227.1,520l-1-2c1.5.6.9,1.9,1,2Z"/>
  <path class="st13" d="M239.1,360l1,2c-1.3.2-4.9,1.8-5-.5s3.2-1.3,4-1.5Z"/>
  <path class="st2" d="M373.1,619c-3,7.4-5.3,12.8-9,20l-.5-1c-3.5-.8-3.8,2.5-.5,2-.5,1.1-.8,6.7-3,7s-.5-.9-1-1v3c-4.7,8.5-9.7,17.1-16,24.5s-12.5,13.1-14.5,13.2c-2.9.2-13.7-11-16-13.7-5.8-6.6-10.1-13.7-14.5-21,2.3-.1,4.7-2.9,4-5,6.6,11.4,16.1,21.9,25.6,30.9,6.4-4.4,13.1-10.9,16.4-17.9,3.6-3.4,5.6-7.8,8-12s2.7-4.7,4-7l1-1c.4-.7.4-2,1-3l1-1c.4-.9,1.8-6.3,3-6s-.2.8.5,1c2.7.6.9-1.6-.5-3,.4-1.3,1.7-1.5,2-2v3s3,0,3,0c.6-2.4-1.1-2-3-3,.2-.2-.1-.8,0-1,.4-.2.9-.6,1-1,.3-1,.7-2,1-3,2.1,1.6,6.7-2.4,6-4.5l1,2.5ZM370.1,624c-2.1-.3-2.3,0-2,2l2-2ZM364.1,632c-1.4-1.4-4,1.7.5,3,.2-.5-.4-2.9-.5-3ZM359.6,638v1c.6-.3.6-.7,0-1ZM358.1,642c-3.7-.8-.7,4-2,6,3.6.8,1.5-3.9,2-6Z"/>
  <path class="st11" d="M410.1,608c0-.6,0-1.3,0-2h4c.7,3-1.5,1.9-4,2,0,.6,0,1.3,0,2-2.1.3-2.3,0-2-2,.7,0,1.3,0,2,0Z"/>
  <rect class="st11" x="412.1" y="610" width="2" height="4"/>
  <path class="st9" d="M364.1,639c-.2.4-.8.7-1,1-3.3.5-3-2.8.5-2l.5,1Z"/>
  <path class="st10" d="M456.1,572c1.1,1.1-.9,3.1-2,2s.9-3.1,2-2Z"/>
  <path class="st9" d="M281.1,612c-.4-1.5-.7-3-1-4l1,4Z"/>
  <path class="st9" d="M277.1,600c-.3-1-.7-2-1-3l1,3Z"/>
  <path class="st12" d="M286.1,627l-1-2c0,0-.1-1.2,1-1,.1,1-.1,2.1,0,3Z"/>
  <path class="st9" d="M360.1,647c.3,1.1-.8,1.6-1,2v-3c.5,0,.9,1,1,1Z"/>
  <path class="st9" d="M283.1,619c-1-.3-.8-1.2-1-2,1,.3.8,1.2,1,2Z"/>
  <path class="st2" d="M604,283c3.3-2,1.2.2,2.6,1.9,12,14.6,15.8,24.5,20.4,43.1v32c-2.6,11.7-6.4,24.6-14,34,0-.6-2-4.9-1-7,5.2-10.3,6.4-16.1,7-27s2.6-5.8,3-9.5c2-19.9-3.6-36-12-53.5-2.7-5.6-2.5-6.7-8-11-.2-.5.2-1.5,0-2,1.1.3,1.6-.7,2-1Z"/>
  <path class="st0" d="M613,394c0,4.7-11.5,18.1-15,22-.6-3.2-1.5-6.8,3-6-.2-1.5-1.7-1.9-3-2,.9-1,1-2.7,1-4,.3,0,.7,0,1,0,1.7-.4,10.6-14.3,12-17-1,2.1,1,6.4,1,7Z"/>
  <path class="st0" d="M595,274c.3.3.6.7,1,1,.1,4.5,4.5,4.9,6,9s-.2,1.5,0,2c5.5,4.3,5.3,5.4,8,11-3.4-2.7-6.4-7-8-11-3.4-2.7-8.1-7.6-12-9,0-1.1-.6-2-1-3h6Z"/>
  <path class="st10" d="M627,360v-32c2.2,8.7,2,23.2,0,32Z"/>
  <path class="st9" d="M596,275c2.2,1.7,8.4,3.3,8,8-.4.3-.9,1.3-2,1-1.5-4.1-5.9-4.5-6-9Z"/>
  <path class="st8" d="M539,336c1.1-1.7,3.5-6.3,4.4-7.1,3.7-2.7,10.4-3.8,13.4-9.6s1.1-7.9,2.7-10.3,9.5-5.2,12.3-11.7c1.7-4,.8-8.4,2.9-12.1s3.2-2.3,4.7-4.3,2.6-7.5,4-9,4.2-1,4.4-.8.8,2.1,1.1,2.9,1,1.9,1,3c-1.3-.5-2.4-1.4-4-1v3c-3.9-2.1-3,.3-4.4,2.6s-2.3.1-1.6,1.8l4,4.5c-1.7-.2-3.8.4-5.3,0s0-3-2.6-2c1.8,4.4-2.8,6.4-2,9.4s2.9.2,2,3.9c-.4,1.5-5.3,2.4-3,4.7-2.1,1.4-6.4-3.2-5,5l-2.5-1c1.6,4.1-4.2.1-5.3,3.6s-.5,8.1-.1,8.4,3.1-.2,4,0c1.6,4.8-4,4.4-4,8,4.1-.1,10.9,1.3,12,6-2.4-1-17.2-7.6-18-7-2.2,1.7.9,5.6,1.3,7.2,1.6,6.3,3.2,12.6,3.6,19.1-5.4,7.3-13.7,11.6-19.8,18.2l11,2.5c-1.7,0-3.7-.3-5.2,0s-2.2,4.4-4.7,3.4l1.5,2.5c2.6-1.3,4.4-2.7,7.5-2-.1,5.1-5.4-1.5-5,5-9.8-6.6-15.8-13-27.5-17s-13.7-1.5-4.5-7,4.8-1.4,6.9-3.6,2.6-5.3,6.1-7.9c8-5.9,7.5-1.5,13.9-11.6ZM559,326c1-1-2-4-3-3s2,4,3,3Z"/>
  <path class="st1" d="M569,288c1.5,8.8-10.2,18.2-17.7,19.8-8.1,1.7-38,1-45.3-2.3s-2.3-.9-3-2c-.2-.7,8.9-9,9.7-9.3,6.1-1.8,21.8.5,29.7-.3,8.2-.8,18.3-4.3,26.6-5.9Z"/>
  <path class="st1" d="M483.1,333c-1.2-.6-5.5-3.2-6.4-3.9-3.4-2.6,8.6-9,9.9-9,2.1,0,18.1,6.7,22.3,7.7,9.2,2.1,18.8,2.6,28.2,2.3l-1,6c-3.3.6-1.9,1.8-3.9,3.5-3.9,3.4-8.2,4.2-13.4,4.1-7.6-.2-28.7-6.9-35.7-10.6Z"/>
  <path class="st1" d="M554,311c-3.9,19.4-28.5,16.8-43.6,13.2-2.6-.6-20-6.6-20.4-7.7-1-3.3,2.8-2.9,4.8-4.2s1.3-1.9,2-2.2c6.6-3.1,11.2,1.1,16.8,1.9s13.9,1.2,17.9,1.1c6.8,0,15.5-1.8,22.5-2.1Z"/>
  <path class="st1" d="M580,265c-2.4,29.7-42.8,24.1-64,25-.7-4.1.6-4.3,4-5.5,15.2-5.2,30.7-6.6,46.7-13.3,2.1-.9,12.5-7,13.3-6.2Z"/>
  <path class="st1" d="M483.1,336c.3.1,1.3,1.9,2.9,2.6,10.7,4.4,21.9,6.6,33.1,9.5,0,2.9-2.9,6.3-5.6,6.7s-2.6-1.1-3.2-.6,0,1.7-.2,1.8c-3.8,2.8-32.9-8.5-38-11.5-12.4-7.1-10.5-6,.7-12.3,3,1.7,7.6,2.6,10.3,3.8Z"/>
  <path class="st1" d="M495.7,357.4c.3.1,3.7,3.4,6.3,2.7-5.9,11.6-23.5,4.4-32.8.3s-23.2-9.6-12.1-16.7c5.3-3.4,7.8,2.4,12.2,4.6,8.7,4.4,17.6,6.1,26.4,9.2Z"/>
  <path class="st1" d="M488.1,370c.3,1.5-3.5,4.9-4.2,5.3-1.7.8-7.1,1.8-9,1.6s-19.7-7-22.5-8.6-10.5-7.8-10.2-9.6,5.1-5.4,6.4-5.3,5.5,4.2,7.4,5.2c9.6,4.9,21.5,9.5,32,11.4Z"/>
  <path class="st1" d="M511,287c-4.6,16-25.6,14.5-39,12,4.3-10.9,11.9-7.9,20.4-9.1s17.3-4.1,18.6-2.9Z"/>
  <path class="st1" d="M443.7,320.4c2.9,1,7.1,2.9,11,3.5s11.4-.4,14.8,2-7.8,7-10.9,7.2-25.9-3.9-27.4-6.2c-3.2-4.7,7.5-8.2,12.5-6.5Z"/>
  <path class="st1" d="M481.1,315c1.5,5.1-7.8,7.8-11.5,8-7.7.4-17.7-4.3-25.4-5.1-.2-3.3,3.6-4.9,5.1-6.7s.8-3.1,1-3.3c.7-.6,14.6,5.2,17.7,5.8s8.9-.2,13.3,1.2Z"/>
  <path class="st0" d="M483.1,333c6.9,3.7,28,10.4,35.7,10.6s9.5-.7,13.4-4.1.7-3,3.9-3.5,2,.1,3,0c-6.4,10-5.9,5.7-13.9,11.6s-3.8,5.5-6.1,7.9-5,2.4-6.9,3.6c0-2.4.7-3.5-2-3,.1-.1-.3-1.5.2-1.8s2.2.7,3.2.6c2.8-.4,5.6-3.8,5.6-6.7-11.2-2.8-22.4-5-33.1-9.5s-2.6-2.4-2.9-2.6l.9-.6-.9-2.4Z"/>
  <path class="st1" d="M465.8,302.2c1.6-.4,3.1-.4,4.7-.3l25.5,3.5c-3.6,3.8-10.1,6.8-15.4,6.5s-17.2-3.3-18.5-4.5c-2.4-2.2,1.9-4.8,3.7-5.2Z"/>
  <path class="st1" d="M457.1,336c-2.4,8.3-18.8,4.3-25,2.5s-10.5-2.4-5.1-7.1c2.8-2.4,10.8,1.4,14.8,2.3s10.1,2.4,15.2,2.3Z"/>
  <path class="st1" d="M447.1,344c-3.2,10-21.2,2.7-29,2,1.7-10.2,5.7-5.4,11.8-4.2s11.5,2.1,17.2,2.3Z"/>
  <path class="st1" d="M414.8,352.2c-.4-.7-2.5-.9-2.7-1.8,1.1-5.1,7.4-.3,10.8.3,5.1.9,11.2.5,15.7,1.3,8,1.4-3.6,5.6-7.1,5.9s-14.8-.2-15.9-1.9-.1-2.8-.7-3.7Z"/>
  <path class="st1" d="M408.1,364c1.6-6.6,12.2-3.9,17.5-3.2s4.4-2,4.3,1.6-4.5,5.5-4.8,5.6c-1.1.4-13,.2-15,0l-2-3c0-.3,0-.7,0-1Z"/>
  <path class="st8" d="M556,390c-.1-1,.3-2.3,0-3.3s-3.3-.6-2-2.7,5-3,6-2c2,2-1.7,4.3-2,4.8-1.1,2.2,1.8,2.5-2,3.2.3,2.8,2.9,13.6,4.3,15.7s3.5,2.2,3.6,3c.7,3.2-.7,7.6,0,10.6s1.8.6,2,1.4c.6,3-.3,3.1,1.2,6.4s1.5,5.2,2.8,1.4,2-5.6,2-8.5c3.7-.9,1,3.5,2.5,4,2.7.9.9-3.5,1.5-4,1,.2,3.6-.3,4,0,2.1,1.7-4.1,2.3-2,4s3,.2,3.5,0,2.9-5.3,2.5-6c-.7-.7-6.1,1.7-5-2,2.4,0,4.7.1,7.1-.4,4-.9,3.4-4.6,7.9-3.6-.8,1.9-11.6,12.5-14,14.5s-14.1,11.5-15,10.5c.5-13.4-3.9-30-11.2-41.3-1.9-3-9.2-9.7-9.8-11.7,3.4-1.3,3.8,1.6,4.8,2s2.9-.2,3.2,0-.2,4.8,0,6c3.1.4.7-1.4,4-2ZM568.5,431v1c.6-.3.6-.7,0-1Z"/>
  <path class="st1" d="M421.1,372c-.8,5.2-6,7.5-11,7-.4-.3-.7-.7-1-1,.1-1.3-.2-2.8,0-4s.7-1.4,1-2c3.6-.1,7.4.2,11,0Z"/>
  <path class="st8" d="M599,404c0,1.3-.1,3-1,4s-3.3,1.3-4,3c1.3-3.1,1.1-4.9,4.1-8,.6-.2.8,1,.9,1Z"/>
  <path class="st6" d="M284.1,570c1.5-4,5.9-21.8,10.4-22,8.5-.3-.8,14.9-2,18.9-2.1,7-5.7,27.9-4.4,34.5s1.1,2.8,3,2.5c.8-11.6,1.5-24.6,4.7-35.8s6.5-17.2,7.2-17.8c2.8-2,4.3,1.1,3.9,3.8s-3.4,6.1-4.3,8.8c-5,14.4-9,30.6-8.5,46-7.5.7-12.4-12-13-18s0-1.3,0-2c0-2,.7-4.7,1-7s.6-5.3,1-8,1.1-1.1,1-3,0-.7,0-1Z"/>
  <path class="st9" d="M282.1,582c-.3,2.3-1,5-1,7-5.1,1.4-4.3-7.8,1-7Z"/>
  <path class="st0" d="M260.1,564v1c-3.5.7-2.3,0-4,0l4-1Z"/>
  <path class="st9" d="M283.1,574c-.5.9-1.8,3.2-3,2s3.1-3.8,4-5c0,1.9-.9,2.5-1,3Z"/>
  <path class="st2" d="M270.1,570l-1-2c.2.4.8.6,1,2Z"/>
  <path class="st7" d="M320.1,628c.8.3,8,2,8.4,2,.8,0,6.8-1.9,7.3-2.3.9-.7.9-2.9,3-3.5,3.5-1.1,8.9.5,13.3-.7,8.6-2.3,5.8-12.7,16-11.5.5.5-1.5,7.6-2,9s-.7,2-1,3c-.3.3-.8.6-1,1s.2.8,0,1c-.3.5-1.6.7-2,2s.1,1.4,0,2c-1.2-.3-2.6,5.1-3,6s-.7.5-1,1c-.6,1-.6,2.3-1,3s-.8.6-1,1c-1.3,2.3-2.7,4.7-4,7-5.6.3-6.2,8.1-8,12-3.2,7-10,13.5-16.4,17.9-9.6-9-19-19.5-25.6-30.9s-5.9-11.2-7.2-14.3-5.4-14.4-5.5-15.4c-.4-3.4,2.1-4.1,5-3.1s2.6,3.6,4.2,4.9,2.3.7,2.5.9c1,.8,2.4,2.6,3,3,3.4,2.2,7.5.3,11.3,1s1.8,3,4.7,4Z"/>
  <path class="st6" d="M329.1,565.5c.3-2,2.9-3.7,5-3.5.9,5.8,2.4,11.7,3,17.5.9,8.9,1.2,32.8-1.4,40.5s-9,6.9-12.3,3.7c-9.1-8.8-1.4-48.2-1.2-60.7,2.6-3.1,4,9.4,4,10.5,1,14.2-.9,29.7,0,44l3,2.5v-54.5Z"/>
  <path class="st6" d="M348,552.1c1.1.7,6.3,21.7,6.8,24.7,1.3,7.7,2.6,19,2.3,26.8s-4.5,21.2-16.1,14.8c.1-5.3,0-10.6,0-15.9,0-10.7.1-22-1.1-32.9s-6.1-15.4,1.5-13.7,4.3,18.8,4.6,21.6c1,9.9-.2,21.8,1,31s.7,3.1,2,1.5c1.2-8.3,1.4-17,1-25.5-.2-3.6-.6-9.4-1.1-12.9-.8-5.7-3.9-12.8-3.9-18.1,0-2.1,1.9-2.1,2.9-1.4Z"/>
  <path class="st6" d="M308.1,589.5c1.1-9.5,6.3-21.2,9-30.5,1.6-.3,1,1.4,1,2.5-.1,8.3-2.6,17.7-3,26-.2,4.3.8,26.8,0,28-5.1,8.4-15.9.3-17-7.1-.8-5.9.8-19.5,2.1-25.7s7.6-23.6,9.2-24.8c8.1-6.5.2,11.5-.4,13.6-2.8,10-7.5,30.1-3.9,39.7s1.3,2,2.8,1.7c.6-7.5-.8-16.2,0-23.5Z"/>
  <path class="st6" d="M331.3,543.1c.9-.5,2.7,0,3.8-.2,1,3.9-3,18.2-8.3,16.9s-8.1-18.9-3.2-17.9.5,12.9,5,12,.8-9.7,2.7-10.8Z"/>
  <path class="st6" d="M317.1,554c-8.8-.9-8.3-11.1-8-18,4.9.2,2,3.8,2.1,6.4s1.5,7.3,3.2,3.4-.4-6.5,2.7-5.8v14Z"/>
  <path class="st1" d="M369.1,524c-2.9,5-7.2-.4-5.3-4.7s6.1-7.1,6.8-7.3c2.9-.6,1,4.7,1.5,6-1.4.4-2.2,4.6-3,6Z"/>
  <path class="st6" d="M358.1,527c-.1,5.5-1.5,15.3-8,16l1-9c6.6,5.7,1.6-7.3,7-7Z"/>
  <path class="st6" d="M339.1,551c-1.2-5.9,1.8-7.1,6-10,.6,4.1-1.4,9.3-6,10Z"/>
  <path class="st10" d="M320.1,628c-2.9-1-4-3.8-4.7-4-3.8-.8-7.8,1.2-11.3-1,4.2.3,8.2,0,12-2,2.2,1.3,4.1,4.4,4,7Z"/>
  <path class="st0" d="M301.1,620c4.3-1.6,5,2.9,8.4,2s1-4.3,6.6-1c-3.8,2.1-7.8,2.3-12,2-.6-.4-2-2.2-3-3Z"/>
  <path class="st0" d="M385.1,508c-1.2,1.1-1.8,1.3-3,2-.6-2.2.9-2,2.5-3l.5,1Z"/>
  <path class="st0" d="M380.1,500l-2,3c.3-.5-.4-2.3.1-2.9s1.7,0,1.9-.1Z"/>
  <path class="st0" d="M377.1,506c-2.6-1.1,0-1.9,0-2v2Z"/>
  <path class="st6" d="M300.1,422v86c-3.6-2.7-9-7.9-9-12.5v-73.5h9Z"/>
  <path class="st14" d="M320.1,422v104c-1.3.7-7-5-7-5.5v-98.5h7Z"/>
  <path class="st6" d="M340.1,422v95.5c0,2-2.8,7.4-5.5,7.5-.4,0-1.4-6.4-1.5-7.5-2.2-26.7,1-56.8,0-84-.1-3.7-1.8-7.5-1-11.5h8Z"/>
  <path class="st14" d="M359.1,422v82.5c0,1.3-5.3,6.7-7,7.5v-90h7Z"/>
  <path class="st6" d="M311.1,370c.5.5-1.8,4.4,4,3,.9,2.7-1.8,1.6-2,2.6s.1,2.9,0,4.4c-2.3-1.9-3.1-2.1-6-1,1.2-4.6-1.8-3.8-2-4-2.2-2.6,3.5-1.7,3.9-2.1s-.3-5,2-2.9Z"/>
  <path class="st6" d="M293.3,399.8c1.1.6,2.6.1,3.8.2-1.8,2.2-2.4,4-2,7-2.7-2.4-3.7-2-7-1,2.7-5.1-.7-3.6-1-4-1.9-2.5,4.6-1.5,4-5,1.5,0,1.4,2.4,2.2,2.8Z"/>
  <path class="st6" d="M366.1,396c.4.3.4,3.9,4,3-2,1.2-1.8,5.7-2,6s-4.5-1.3-6,0c.4-2.5-.6-4.1-2-6,3.4,1.2,4.1-4.6,6-3Z"/>
  <path class="st6" d="M348.1,371c.4.3.4,3.9,4,3-2,1.2-1.8,5.7-2,6s-4.5-1.3-6,0c1.3-4.1-2-3-2-6,5.1,2.3,3.5-5,6-3Z"/>
  <path class="st6" d="M329.1,360c.4.3.4,3.9,4,3-1.7,2.3-2.6,3.2-1,6-1.8-1.6-6.7.3-7,0s0-4.8-2-6c5.1,2.3,3.5-5,6-3Z"/>
  <path class="st6" d="M344.1,398c-2.3,2.7-4.3,1.7-2,6-3.3-1-4.3-1.4-7,1,1.7-1.9-1.4-6.6-1-7s1.9.3,2.7-.3,1.5-3.4,2.3-2.8c.1,3.1,2.3,3.3,5,3Z"/>
  <path class="st6" d="M272.1,401c-1.7,2.3-2.6,3.2-1,6-3.4-1-3.5-2.7-7,0,.6-4,1.9-3.4-2-5.5,3.1-.7,3.8-1.9,5.5-4.5,1,2.8.9,4.3,4.5,4Z"/>
  <path class="st6" d="M316.1,395c.1.1,0,1.7,1.1,2.5s4.6.3,2.9,2.5-3.2-.5-2,4c-1.5-1.3-5.8.2-6,0-.3-.3.7-1.8.5-2.5-.3-1.3-2-1.7-1.5-3.5,4.1,1.8,2.4-5,5-3Z"/>
  <path class="st6" d="M373.1,381c-2.8,1.6-.8,5.8-1,6s-5.2-1.6-7,0c-.6-.6,3-4.3-2-5.5,4.3.6,4.2-2.8,5.5-3.5s1.6,4.2,4.5,3Z"/>
  <path class="st6" d="M389.1,397c.4.3.4,3.9,4,3-3.2,2-.8,5.8-1,6-.4.4-5.3-2.1-7,0-.5-1.2,1.1-3.5.9-3.9s-2.9-.5-2.9-2.1c5.1,2.3,3.5-5,6-3Z"/>
  <path class="st6" d="M389.1,380c.4.3.4,3.9,4,3-1.4,1.9-2.4,3.4-2,6-2.9-2.4-3.1-2.4-6,0,.4-2.6-.6-4-2-6,3.4,1.2,4.1-4.6,6-3Z"/>
  <path class="st6" d="M294.1,379c0,0,0,1.8,0,2-.3.4-3.7-1.1-1,4-1.7-1.5-6.7.2-7,0s.9-1.5.7-2.3-2.6-2.8-1.7-3.7,1.9.3,2.7-.3,1.5-3.4,2.3-2.8c-.4,3.3,3.7,2.7,4,3Z"/>
  <path class="st6" d="M268.1,379c.4.3.4,3.9,4,3-3.2,2-.8,5.8-1,6-.4.4-5.3-2.1-7,0,1.6-4.6.8-3-2-6,5.1,2.3,3.5-5,6-3Z"/>
  <path class="st12" d="M410.1,368c-.6,0-1.9.2-2,0s0-2.3,0-3l2,3Z"/>
  <path class="st0" d="M100.2,327c-1.1,9.2-3.5,18.2-3.8,27.3l16.9,14.1c2.8,4.5-.4,3.1-1.1,3.6,1.9-1.5-6.1-6.9-8-2.5s7.6,2.8,8,2.5c-.6.4-.4,1.5-2.5,2-3.5.7-9.2,1.5-13,2-8.1,1.2-10.2-2.2-14.5,8,.8-1.9,1.3-5.2,2.1-7.2s3.1-1.5,1.9-4.8c4.6-.2,10.3.7,14.6-.9s3-.6,1.4-2.1-19.4-5.3-21.5-5c-4.2.4,2.8,6.1,3.5,8-.6,0-1.8-.2-2,0s.1,1.4,0,2c-2.2-1.6-2.8-3.9-4-6s-3.1-6.5-4-6c.3,2-2,1.6-2.1,3.5-.2,3.5,1.7,2.2,2,2.6.4.6-1.7,3.8-1.9,3.9-3.5,2.7-7.1.2-4,8l-2,1c-2.2-4.7-6.7-2.4-10.6-2.9s-1.3-1.9-2.1-2.1c-1.9-.5-4.3.3-6.3,0s-3.1-1.5-4-2c.8,0,2.9.1,3,0,.3-.3-.2-3,0-4-1.8.2-4.4-.4-6,0l1-2c.4-.2.7-.8,1-1,3.8-2.2,2.6-2.4,5-5,4.8-.7,2.2-1.2,3-2,1.4-1.3,1.5.4,3-4s.8-.8,1-2,0-2.8,0-4l1-2h1s2,4,2,4c1.6,4.9,6.3,3.9,11,4l-10-15c1.1-.3.8-1.3,1-2,4.3,4.3,7,10,10.7,14.9s-.4,2.9,3.3,2.1c.4,6.5.8,2.3,6,6-.2-1.3.4-5.5,0-6-1.8-2.2-2.1,4-4,2s0-2.2,0-3c2.2.1,2.6-1.5,3.6-2.9,3.9-4.9,7.6-10,10.4-15.6-1-1.4-3.6.7-4.7,1.3-3.2,1.8-6.6,3.8-9.3,6.2s-1.7,0-2,1c-3-2.3-6.6-5.5-10-7,1.3.5,2.5-.9,3-1s.7,0,1,0c.6-.1,1.4.1,2,0,2.5,6.9,4.5,3,8,1s1.3-.6,2-1c4.1-2.3,12.8-8.8,16-10s2.9.2,4,0ZM91.9,353.7c1.4-1.4,3.7-14,3.3-16.7-5.6,5-9.4,12-13,18.5,1.8,1.5,8.4-.6,9.7-1.8ZM96.5,359.7c-1-.7-.4-2.9-3.7-2.7s-6,2.3-7.2,2.9-3.2.4-1.4,2.1,16.5,3.6,19,4c-1-4.1-3.9-4.4-6.7-6.3ZM70.2,360c-.4-.4-9.9-2.2-11.3-1.8s-8.1,6-9.8,7.2-2.5,0-1.9,2.6c.9.7,19.3-4.9,21.6-5.9s3.1-.4,1.4-2.1ZM69.2,366l-9.8,1.7-9.2,4.3c8.8.8,17.6,6.3,19-6Z"/>
  <path class="st2" d="M84.2,372c.6,0,1.3,0,2,0,1.2,3.3-1.4,3.7-1.9,4.8-.9,2-1.4,5.3-2.1,7.2-1.8,4.4-3.6,8.7-5.6,13s-.1,2.7-1.9,2c-4.4-1.8-6.6-13.8-8.5-18l2-1c2,5,5.4,6.2,6,0h2c0,2,0,4,0,6,3.9-2.4,5.3-7.8,6-12s-.2-1.8,0-2,1.4,0,2,0Z"/>
  <path class="st8" d="M54.2,354h-6c-1-2.7,1.8-1.6,2-2.6.9-3.7-1.8-3.3-2-4.1-1.4-6.1,2.3-7.6,2.1-9.8s-1.9-1.3-2.1-2.2c-1.2-5.1-.5-10.9,6-9.3,1.4-2.2-6.1-4.4-4-6s5.9,1.7,6,2v-2s4,0,4,0v2s-4,0-4,0c.3.8-.5,2.9.1,3.8s9.2,5.7,10.5,5.9,3.1-1,3.3-.7c1.7,1.9-3.5,3.8-2,6-.3,0-.7,0-1,0-4.8-4.1-10.1-9-17-8,0,7.1,3.5,13.8,4,21s.2,2.9,0,4Z"/>
  <path class="st8" d="M96.2,326v1c-3.2,1.2-11.9,7.7-16,10-.8-7.1.8-3.8,3.9-5.5s6.9-6.6,12.1-5.5Z"/>
  <path class="st8" d="M36.2,352c-.9,4.4,1,4.9,5.4,4s0-3,2.6-2c.7,5.1-.6,3.1-2.6,4.4s-.9,2.8-5.2,1.3-4.5-8.4-.3-7.7Z"/>
  <path class="st8" d="M70.2,337c2.4-.4,8.7-3.2,8,1-3.5,2-5.4,5.9-8-1Z"/>
  <path class="st8" d="M59.9,300.3c.2,0,3.2,2.9,2.3,3.7s-4.7-.2-6,0c-.4-3.7-.3-5.2,3.7-3.7Z"/>
  <path class="st8" d="M82.2,322c.4.2,2.6,4,2,4.9s-3.7,1.3-4,1c0-1.3-.9-7.9,2-6Z"/>
  <path class="st11" d="M44.2,318c-.2-.2-2.4,1.1-2.1-2.5s2.2-1.5,2.1-3.5l2,4c-1.8.3-2.3-.8-2,2Z"/>
  <path class="st10" d="M47.2,362c-2.4,2.6-1.2,2.8-5,5-.4-.2-.8-1-1-1,.7-.6,1.4-1.3,2-2s.8,0,1-.5l-1-.5c.4-1.7,2.7-.8,4-1Z"/>
  <rect class="st8" x="42.2" y="330" width="2" height="6"/>
  <rect class="st8" x="62.2" y="322" width="2" height="4"/>
  <path class="st8" d="M53.2,356c-1.5,4.4-1.6,2.7-3,4s1.8,1.3-3,2c1.5-1.6,2.9-1.9,3-2,.5-.6.7-3.7,3-4Z"/>
  <path class="st8" d="M43.2,364v-1l1,.5c-.2.4-.8.3-1,.5Z"/>
  <path class="st13" d="M40.2,370c1.6-.4,4.2.2,6,0-.2,1,.3,3.7,0,4s-2.2,0-3,0c-2,0-4,0-6,0v-1.5c.8-.8,1.9-2.3,3-2.5Z"/>
  <path class="st10" d="M352.1,648c-2.4,4.2-4.4,8.6-8,12,1.8-3.9,2.4-11.7,8-12Z"/>
  <path class="st9" d="M358.1,642c-.5,2.1,1.6,6.8-2,6,1.3-2-1.7-6.8,2-6Z"/>
  <path class="st9" d="M364.1,626c1.9,1,3.6.6,3,3h-3s0-3,0-3Z"/>
  <path class="st9" d="M364.1,632c.1.1.7,2.4.5,3-4.5-1.3-1.9-4.4-.5-3Z"/>
  <path class="st9" d="M362.1,628c1.4,1.4,3.2,3.6.5,3s-.5-1-.5-1c.1-.6-.2-1.5,0-2Z"/>
  <path class="st9" d="M370.1,624l-2,2c-.3-2.1,0-2.3,2-2Z"/>
  <path class="st9" d="M364.1,625c.2-.4.7-.7,1-1-.1.4-.6.8-1,1Z"/>
  <path class="st9" d="M358.1,637c.3-.5.9-.8,1-1l-1,1Z"/>
  <path class="st9" d="M359.6,638c.6.3.6.7,0,1v-1Z"/>
  <path class="st9" d="M356.1,641c.2-.4.8-.7,1-1l-1,1Z"/>
  <path class="st8" d="M614,364c8.4,1.3,1-4.8,2-6s2.7,1.3,3,2c-.6,10.9-1.8,16.7-7,27-1.4,2.7-10.3,16.6-12,17-.1-2.3.2-7.1,2-8.5s1.5.4,1.8.1c.4-.4,4.1-4.2,4.2-4.4,1.5-2.1,2.1-5.1,2-7.7-.2-7-1.6-4.7-5.3-5.6s-.7-1.5-1.5-1.9c-2.2-.9-5.5-.5-7.2-3.1,3-1,6.9-2.2,10-3,.5,2.8-1.8,2.1-4,2v2c1.9-.2,4.1.2,6,0,.9,5.6,4.4,4.2,6.7.2s1.9-5.9-2.7-3.5-1,2.9-4,3.3c-.2-1.2.1-2.7,0-4,2.7-.7,5.2-1.8,8-2-.7-1.1-1.3-3.1-2-4Z"/>
  <path class="st0" d="M572,334c1.1.5,2,1.9,4.2,2.3,6,1.1,20-14.5,27.8-14.3,1.5,1.6-5.5,24.5-4.5,29.1s11.7,9.4,14.5,12.9,1.3,2.9,2,4c-2.8.2-5.3,1.3-8,2s-1.4-.2-2,0c-3.1.8-7,2-10,3s-1.4.7-2,1-1.2-.5-2.1.6-1.7,4.1-1.9,5.4,0,.7,0,1c-2.7,3.1-4.6,11.8-6.9,14.4s-2.6.4-3.1.6c.8-.8-9.9-18.3-11.4-19.6-3.1-2.8-5-2.1-8.6-2.4s-7,0-10,0l-11-2.5c6.1-6.7,14.4-10.9,19.8-18.2-.4-6.5-1.9-12.8-3.6-19.1s-3.5-5.5-1.3-7.2,15.6,6,18,7ZM580,340c-.2.2-1.9-.5-2.1.6-.3,1.7,1.1,3.6,1,5.1s-.9,2.1-1,2.3c0-.4-1-6.7-1.2-7.3-1.1-3.9-15.8-7.8-10.7-1.3,2.4,1.2,8.3,12.3,10.9,10.6s1-1.9,1-2c-.1.9.3,3.7,0,4s-6.4,0-6,4c-10.7-1.2-14.2-.7-20,9,1,.8,13.2-4.5,16-5l1,2c-.8.2-4.4,2.8-6.1,3.4-4.2,1.4-9.5,1.5-12.9,4.6-1.9-.1-7-1.1-6,2,2.7,1.1,6.5-.9,8-1,9.4-.6,18.2,2.1,22-9,.7,0,1.3,0,2,0,1.4,1.6-5.6,3.6,0,4-1.4,2-4.9,4.7-5.1,6.6s6.4,13.1,8,11.4c-.9-4.2.1-8-.1-12.4s-.3-7.6-2.9-6.6c.2-.4,1.5-.6,1.9-1.8s-.2-2.9,0-3.2,3.8-.1,4,0c.3.2-.1,2.2,0,3-3-.5-2,1.4-1.9,3.4.5,5.8.6,12.1,1.9,17.6,0,.7,0,1.3,0,2s0,1.3,0,2c.6.6,1.7-1.5,2-2,4.7-7.3,7.5-15.4-1-21v-1c1,.2,2.6.2,3-1,2.2,2.8,4.2,6.6,7.7,6.7s13-2.4,13.3-3.2c.6-2-1.1-1.4-2.2-1.7-4.1-1.4-9.5-2.6-13.8-3.3s-4.1-1.3-5,.6c-1-1.2-.5,1.8-2-3.2s-2.5,0-2-2.3,1.4-.3,1.7-.8c1.3-2.2-.4-1.1,2.3-3.8-3.4,4.2,6.8,0,7.3-.2,4.8-2.7,5.1-12.7,5.7-17.8l-13,17c0-1.1.2-2.5-1-3,3.1-4.1,6.6-9,9.3-13.3s3.4-4.9,2.7-5.7c-6.4,3-11.9,6.1-17,11ZM572,353c1-.8-7.9-12.2-9-13.5-7.2-7.8-2.2,2.2-1.3,5.2s-.5,2.1-.1,3.3c1.6,5.8,5.1,5.1,10.5,5ZM589,358c.5.5,10.9,3.4,12.6,3.9s4.1,1.7,5.3-.4c-7.6-4.5-7.2-9.3-16.5-5.5s-3.3.1-1.5,2ZM588,356h-2v4h2v-4Z"/>
  <path class="st7" d="M559,326c-1,1-4-2-3-3s4,2,3,3Z"/>
  <path class="st7" d="M596,373c1.7,2.6,5,2.2,7.2,3.1s.8,1.7,1.5,1.9c3.7.9,5.1-1.4,5.3,5.6,0,2.6-.5,5.6-2,7.7s-3.8,4-4.2,4.4-1.4-.4-1.8-.1c-1.8,1.4-2.1,6.2-2,8.5-.3,0-.7,0-1,0s-.3-1.1-.9-1c-3,3.1-2.8,4.9-4.1,8s.1.7,0,1c-4.5-1.1-3.9,2.6-7.9,3.6s-4.7.5-7.1.4c-1.1,3.7,4.3,1.3,5,2,.4.8-2.2,5.9-2.5,6s-3.3,0-3.5,0c-2.1-1.7,4.1-2.3,2-4s-3,.2-4,0c-.6.5,1.2,4.9-1.5,4s1.2-4.9-2.5-4c0,2.9-1.1,5.8-2,8.5s-1.9.6-2.8-1.4c-1.5-3.4-.6-3.4-1.2-6.4s-1.8-.6-2-1.4c-.7-3,.6-7.4,0-10.6s-3.1-2.2-3.6-3c-1.4-2.1-4-12.8-4.3-15.7,3.8-.7,1-1,2-3.2s3.9-2.8,2-4.8-5.5,1.3-6,2c-1.3,2.1,1.8,1.9,2,2.7s-.1,2.3,0,3.3c-3.3.6-.9,2.4-4,2-.2-1.2.3-5.7,0-6s-2.3.3-3.2,0-1.4-3.3-4.8-2c0-.2,0-.7,0-1-.4-6.5,4.8,0,5-5-3.1-.6-4.9.7-7.5,2l-1.5-2.5c2.5.9,3.4-3.1,4.7-3.4s3.6,0,5.2,0c3,0,7.4-.2,10,0-.9,3.7,3.6,1,4,2.5.9,3.2-5.1-.5-4,3.5,4.3,3,6-2.9,8.5-2s2.1,3.4,1.5,4-4.8-1.7-4,2c1,.2,3.7-.3,4,0s-.2,3.1,0,4l2-2c-.7,5.3,8.1,3.8,5,9.5l3,.5c-.2.1-2.4,3.6-2,4,.9.8,2.8-1.5,3.7-1.8s4.1,0,4.2-.2c.3-.3-.3-3.9,0-5.3s3.9-5.1,3.9-5.4c.5-1.9-.3-4.4,0-6.3s0-.7,0-1c2,0,4-.1,6,0,.2,3.1.4,1.9,4,2,.7-3-1.5-1.8-4-2-.2-2.5,0-4.1-2-6,.6-.3,1.4-.8,2-1ZM608,380h-5v2h5v-2ZM592,389h-2v3h2v-3ZM598,392h-4v2h4v-2ZM592,394h-2v4h2v-4ZM562,400c-.5-3.6-2-3.1-2,0,.7,0,1.3,0,2,0,.6,3.7,2.6,1.6,6,2,.9-3.3-3.9-1.9-6-2ZM596,403c-1.4-.7-2.7.6-2,1,1.4.7,2.7-.6,2-1ZM593.5,405v1c.6-.3.6-.7,0-1ZM568,408c-2.5-3.3-2.4,7.7-2,8s2.3-.3,3.3,0,.6,3.3,2.7,2,2.8-5.2,1.9-6.8-3.4-1.5-3.8-1.2,1.3,3.9-2,3v-5Z"/>
  <path class="st7" d="M590,277c3.9,1.4,8.6,6.3,12,9,1.6,4,4.6,8.3,8,11,8.3,17.4,14,33.6,12,53.5s-2.9,7.3-3,9.5c-.3-.7-1.8-3.3-3-2s6.3,7.3-2,6c-2.8-3.5-13.6-9-14.5-12.9s6-27.5,4.5-29.1c-7.7-.2-21.8,15.4-27.8,14.3s-3.1-1.9-4.2-2.3c-1.1-4.7-7.9-6.1-12-6,0-3.6,5.6-3.2,4-8-.9-.2-3.7.3-4,0s-.2-7.4.1-8.4c1.1-3.5,7,.4,5.3-3.6l2.5,1c-1.4-8.2,2.9-3.6,5-5-2.4-2.3,2.6-3.2,3-4.7.9-3.8-1.8-3.2-2-3.9-.8-3,3.8-5,2-9.4,2.6-1,1.6,1.7,2.6,2s3.7-.2,5.3,0l-4-4.5c-.8-1.7,1.3-1.4,1.6-1.8,1.4-2.3.5-4.7,4.4-2.6v-3c1.6-.4,2.7.5,4,1ZM575,320c-4-1.4-4.5,1.2-5.3,1.7-1.8,1-4.4-1-3.7,2.3,6.5-1.1,2.9,2.4,4.1,3.9s4.6.5,5.4,2.1l.5-4h-5c.8-1.1.7-3.2,1.3-3.8s3.5,1,2.7-2.2Z"/>
  <path class="st8" d="M560,374c3.7.2,5.5-.5,8.6,2.4s12.2,18.9,11.4,19.6c.5-.2,2,.6,3.1-.6,2.3-2.6,4.2-11.3,6.9-14.4-.3,1.9.5,4.4,0,6.3s-3.9,5.1-3.9,5.4c-.3,1.4.3,5,0,5.3s-3-.2-4.2.2-2.9,2.6-3.7,1.8,1.8-3.9,2-4l-3-.5c3.1-5.7-5.6-4.2-5-9.5l-2,2c-.2-1,.3-3.7,0-4s-3.1.2-4,0c-.7-3.7,3.3-1.3,4-2s-.2-3.5-1.5-4c-2.4-.9-4.2,5-8.5,2-1.1-3.9,4.9-.3,4-3.5s-4.9,1.2-4-2.5Z"/>
  <path class="st8" d="M568,408v5c3.3.9,1.5-2.6,2-3s3.6.8,3.8,1.2c1,1.6-.7,6.1-1.9,6.8-2.1,1.3-1.8-1.7-2.7-2s-3,.3-3.3,0-.5-11.3,2-8Z"/>
  <path class="st8" d="M594,374c2,1.9,1.8,3.5,2,6,2.5.2,4.7-1,4,2-3.6-.1-3.8,1.1-4-2-2-.1-4,0-6,0,.2-1.3,1.3-4.5,1.9-5.4s1.8-.5,2.1-.6Z"/>
  <path class="st8" d="M562,400c-.7,0-1.3,0-2,0,0-3.1,1.4-3.6,2,0,2.1,0,6.9-1.3,6,2-3.4-.4-5.4,1.7-6-2Z"/>
  <rect class="st8" x="603" y="380" width="5" height="2"/>
  <rect class="st8" x="590" y="394" width="2" height="4"/>
  <rect class="st8" x="594" y="392" width="4" height="2"/>
  <rect class="st8" x="590" y="389" width="2" height="3"/>
  <path class="st8" d="M596,403c.7.3-.6,1.7-2,1s.6-1.7,2-1Z"/>
  <path class="st8" d="M593.5,405c.6.3.6.7,0,1v-1Z"/>
  <path class="st7" d="M568.5,431c.6.3.6.7,0,1v-1Z"/>
  <path class="st2" d="M67.2,337c-.5.1-1.7,1.5-3,1-.7-.3-3.7-1.2-4-1-.1.6.2,1.5,0,2-.2.7.1,1.7-1,2l-4-2c2.1,3.9,1.7,9.1,3,13l-2-4h-1s-1,2-1,2c-.5-7.2-4.1-13.9-4-21,6.9-1,12.2,3.9,17,8Z"/>
  <path class="st10" d="M84.2,372c-.7-1.9-7.7-7.6-3.5-8s20.7,4.3,21.5,5c1.6,1.5-.4,1.7-1.4,2.1-4.3,1.6-10,.7-14.6.9s-1.4,0-2,0Z"/>
  <path class="st10" d="M76.2,344c2.7-2.4,6.2-4.4,9.3-6.2s3.6-2.7,4.7-1.3c-2.8,5.6-6.5,10.8-10.4,15.6s-1.4,3-3.6,2.9c-.2-3.6.2-7.4,0-11Z"/>
  <path class="st10" d="M64.2,338c3.4,1.5,7,4.7,10,7-.5,1.6-.1,8.7,0,11-3.7.8-2.4-.9-3.3-2.1-3.6-4.9-6.3-10.5-10.7-14.9.2-.5-.1-1.4,0-2,.3-.2,3.3.7,4,1Z"/>
  <path class="st10" d="M91.9,353.7c-1.3,1.2-7.9,3.3-9.7,1.8,3.6-6.6,7.4-13.5,13-18.5.4,2.7-1.8,15.3-3.3,16.7Z"/>
  <path class="st10" d="M70.2,360c1.7,1.6-.5,1.7-1.4,2.1-2.3,1-20.7,6.6-21.6,5.9-.6-2.6.8-1.7,1.9-2.6,1.7-1.3,8.8-7,9.8-7.2s10.9,1.4,11.3,1.8Z"/>
  <path class="st10" d="M59.2,341l10,15c-4.7-.1-9.4.9-11-4s-.9-9.1-3-13l4,2Z"/>
  <path class="st10" d="M69.2,366c-1.4,12.3-10.2,6.7-19,6l9.2-4.3,9.8-1.7Z"/>
  <path class="st10" d="M96.5,359.7c2.8,1.9,5.6,2.2,6.7,6.3-2.5-.4-18.3-3.3-19-4-1.8-1.7.7-1.7,1.4-2.1,1.2-.6,6.3-2.9,7.2-2.9,3.4-.2,2.7,2,3.7,2.7Z"/>
  <path class="st10" d="M78.2,368c1.2,2.1,1.8,4.4,4,6-.7,4.2-2.1,9.6-6,12,0-2,0-4,0-6s-.4-11.5,0-12,1.4,0,2,0Z"/>
  <path class="st10" d="M72.2,372c.6.1,1.8-.2,2,0,.3.3,0,7.2,0,8-.6,6.2-4,5-6,0-3.1-7.8.5-5.3,4-8Z"/>
  <path class="st9" d="M72.2,372c.2-.2,2.3-3.4,1.9-3.9s-2.2.9-2-2.6,2.4-1.5,2.1-3.5c.8-.5,3.7,5.5,4,6-.6,0-1.9-.2-2,0-.4.5,0,10.1,0,12h-2c0-.8.3-7.7,0-8s-1.4,0-2,0Z"/>
  <path class="st9" d="M76.2,344c.2,3.6-.2,7.4,0,11s-.2,2.8,0,3c1.9,2,2.2-4.1,4-2s-.2,4.7,0,6c-5.2-3.7-5.6.5-6-6s-.5-9.4,0-11,1.8-.8,2-1Z"/>
  <path class="st13" d="M112.2,372c-.4.3-9.6,1.3-8-2.5s9.9,1,8,2.5Z"/>
  <path class="st8" d="M575,320c.8,3.2-2,1.3-2.7,2.2s-.5,2.7-1.3,3.8h5s-.5,4-.5,4c-.8-1.6-5.1-1.7-5.4-2.1-1.2-1.5,2.4-5-4.1-3.9-.7-3.3,1.9-1.3,3.7-2.3s1.2-3.1,5.3-1.7Z"/>
  <path class="st7" d="M608,370c.1,1.3-.2,2.8,0,4,3-.4,2.7-2.6,4-3.3,4.6-2.4,4.8-.2,2.7,3.5s-5.8,5.4-6.7-.2c-1.9.2-4.1-.2-6,0v-2c2.2,0,4.5.7,4-2,.6-.2,1.4.2,2,0Z"/>
  <path class="st10" d="M580,340c5.1-4.9,10.6-8,17-11,.7.8-2,4.7-2.7,5.7-2.7,4.3-6.2,9.2-9.3,13.3s-3.2,4.2-5,4v-12Z"/>
  <path class="st9" d="M580,340v12c1.8.2,4.1-2.8,5-4,1.2.5,1.1,1.9,1,3s0,.9,0,1c-2.6,2.7-1,1.6-2.3,3.8s-1.5-.1-1.7.8c-.5,2.2,1.6,1,2,2.3,1.5,5.1,1.1,2.1,2,3.2s-.2.8,0,1c-.4,1.2-2,1.2-3,1s-.8-.1-1-1,.2-2.8,0-3-3.8-.1-4,0c-.3.3.2,2.2,0,3.2s-1.7,1.4-1.9,1.8.2.8,0,1c-5.6-.3,1.4-2.4,0-4-.7,0-1.3,0-2,0-1.1-.1-4.1-.2-5,0l-1-2c.6-.1,1.4.1,2,0,4.1-.8,8.6,1,8-6-.5-.6-4.5,2.6-5,3-.4-.2-.8-1-1-1-.4-4.1,5.7-3.8,6-4s-.1-3.1,0-4,.9-.8,1-2.3-1.4-3.4-1-5.1,1.9-.4,2.1-.6Z"/>
  <path class="st10" d="M586,362c1-1.9,3.5-.8,5-.6,4.3.7,9.7,1.9,13.8,3.3s2.8-.3,2.2,1.7-11.3,3.4-13.3,3.2c-3.5-.2-5.5-3.9-7.7-6.7s.2-.8,0-1Z"/>
  <path class="st10" d="M586,351l13-17c-.6,5.1-.9,15.1-5.7,17.8s-10.6,4.5-7.3.2c0-.1,0-.6,0-1Z"/>
  <path class="st10" d="M574,362c-3.8,11.1-12.6,8.4-22,9-.3-1-1.2-1-2-1,3.4-3.1,8.7-3.3,12.9-4.6s5.3-3.2,6.1-3.4,3.9-.1,5,0Z"/>
  <path class="st11" d="M584,386h-2c0-.7,0-1.3,0-2-.2-6.1-.6-13.3,1-19,8.5,5.6,5.7,13.7,1,21Z"/>
  <path class="st10" d="M578,348c0,.1-.9,1.9-1,2-2.6,1.7-8.4-9.5-10.9-10.6-5.1-6.5,9.6-2.6,10.7,1.3s1.2,6.9,1.2,7.3Z"/>
  <path class="st10" d="M576,365c2.6-.9,2.8,5.5,2.9,6.6.3,4.4-.8,8.2.1,12.4-1.6,1.6-8.2-9.5-8-11.4s3.7-4.6,5.1-6.6-.1-.7,0-1Z"/>
  <path class="st10" d="M572,353c-5.4.1-8.9.8-10.5-5s.4-2.5.1-3.3c-.8-2.9-5.8-13,1.3-5.2,1.1,1.2,10,12.6,9,13.5Z"/>
  <path class="st10" d="M572,356c.2,0,.6.8,1,1-.9.8-1.8,2.3-3,3-.6.1-1.4-.1-2,0-2.8.5-15,5.8-16,5,5.8-9.7,9.2-10.2,20-9Z"/>
  <path class="st10" d="M589,358c-1.8-1.8.7-1.6,1.5-2,9.2-3.8,8.9,1,16.5,5.5-1.2,2.1-3.5.8-5.3.4s-12.2-3.4-12.6-3.9Z"/>
  <path class="st10" d="M582,363c.2.9.2.9,1,1v1c-1.6,5.7-1.2,12.9-1,19-1.3-5.5-1.4-11.8-1.9-17.6-.2-1.9-1.1-3.9,1.9-3.4Z"/>
  <path class="st9" d="M550,370c.8,0,1.7,0,2,1-1.5,0-5.3,2.1-8,1-1-3.1,4.1-2.1,6-2Z"/>
  <rect class="st9" x="586" y="356" width="2" height="4"/>
  <path class="st10" d="M584,386c-.3.5-1.4,2.5-2,2,0-.7,0-1.3,0-2h2Z"/>
  <path class="st12" d="M573,357c.5-.4,4.5-3.6,5-3,.6,7-3.9,5.2-8,6,1.2-.7,2.1-2.2,3-3Z"/>
</svg>