<?xml version="1.0" encoding="UTF-8"?>
<svg id="Layer_1" xmlns="http://www.w3.org/2000/svg" version="1.1" viewBox="0 0 375 364.4">
  <!-- Generator: Adobe Illustrator 29.6.0, SVG Export Plug-In . SVG Version: 2.1.1 Build 207)  -->
  <defs>
    <style>
      .st0 {
        fill: #fff;
      }

      .st1 {
        fill: #ce0e2d;
      }

      .st2 {
        fill: #ce1126;
      }

      .st3 {
        fill: #1555a4;
      }
    </style>
  </defs>
  <g>
    <path class="st3" d="M213.2,168l17.7-17c15.5-14.4,39.5-14.4,39.5-14.4h69.8c-1.5,5.2-6.7,8.1-6.7,8.1-28.8-1.1-31,3-31,3h29.2c-2.6,4.1-7.4,7.8-7.4,7.8-27.3,0-25.9,2.6-25.9,2.6h24.4c-4.1,4.8-8.5,8.1-8.5,8.1-24.4-.7-24,2.6-24,2.6h21.1c-.7,2.6-9.6,8.1-9.6,8.1-25.1-.7-24.7,3.3-24.7,3.3h20.7c-4.8,5.2-12.6,7.4-12.6,7.4-25.5-.7-22.2,2.6-22.2,2.6h19.6c-4.4,4.4-12.6,8.1-12.6,8.1-18.5,0-21.1,3-21.1,3h15.5c-6.3,3.7-14,7.8-14,7.8-15.1-.7-15.9,2.6-15.9,2.6h11.5l-17.4,9.6c-4.1,1.8-1.1,4.8-1.1,4.8l20.3,20.7c-2.6,7-18.8,17.7-18.8,17.7l-11.8-26.6s10.3-19.2,7.8-52.8c0,0-25-7.8-37.3-8.1-14-.4-37.3,8.1-37.3,8.1-2.6,33.6,7.8,52.8,7.8,52.8l-11.8,26.6s-16.3-10.7-18.8-17.7l20.3-20.7s3-3-1.1-4.8l-17.4-9.6h11.5s-.7-3.3-15.9-2.6c0,0-7.8-4.1-14-7.8h15.5s-2.6-3-21.1-3c0,0-8.1-3.7-12.6-8.1h19.6s3.3-3.3-22.2-2.6c0,0-7.8-2.2-12.6-7.4h20.7s.4-4.1-24.7-3.3c0,0-8.9-5.5-9.6-8.1h21.1s.4-3.3-24-2.6c0,0-4.4-3.3-8.5-8.1h24.4s1.5-2.6-25.9-2.6c0,0-4.8-3.7-7.4-7.8h29.2s-2.2-4.1-31-3c0,0-5.2-3-6.6-8.1h69.8s24,0,39.5,14.4l17.7,17s3.8,4.2,8.1-2.5l5.1-9s2.3-3.3-1.9-3.6c0,0-4.9-1-5.7-5.2,0,0,4.9,2.1,9.2,1.2,0,0,7.3-1.7,5.8,5.3l-4.4,12.8s-1.7,2.7,1.8,2.5h17.5s3.7.9,1.5-2.6c0,0-2.8-4.2-2.7-19.5,0,0,1.5-8.1-5.2-8.4,0,0-4.4-.4-12.1,1,0,0-.4,1.6,5.2,2.1,0,0-1.2,3-5.9,3.1,0,0-5.9-.1-10,.1,0,0-3.6-.5-2.6,4.9,0,0-6.8-5.7-1.4-10.6,0,0,1-2.1,10.1-.6,0,0,2,.1,2.7-1.5,0,0,2-5.8,10.3-5.8,0,0,5.3-.5,11.5.9,0,0,2.3,1.1,4.8-.2,0,0,.4,1.8-2.7,5.2,0,0-1.1,2-.5,3.3,0,0,2,8,2,13,0,0,.7,7.9,3.6,12.4,0,0,2.5,5,6.8,1.5v.2Z"/>
    <path class="st3" d="M159.8,242l-12.1,27.5,3.6,2.9s1.5,1.5-.4,3.2c0,0-6.2,6.5-11.8,6.2h-6s-5.4,0-4.1,6.2c0,0,.6,2.8,3.9,5.5,0,0-2.8-6.5,1.8-6.5h24.9s3.9-.4,2,5.2c0,0,4.3-1.5,4.6-5.3,0,0,1.2-4.6-3.6-4.8h-6.5s-3.7.4-1.2-2.6l2.7-3.8,7,2.1,9.4-19s-9.4-7.8-14.2-16.7h0ZM215.1,242l12.1,27.5-3.6,2.9s-1.5,1.5.4,3.2c0,0,6.2,6.5,11.8,6.2h6s5.4,0,4.1,6.2c0,0-.6,2.8-3.9,5.5,0,0,2.8-6.5-1.8-6.5h-24.9s-3.9-.4-2,5.2c0,0-4.3-1.5-4.6-5.3,0,0-1.2-4.6,3.6-4.8h6.5s3.7.4,1.2-2.6l-2.7-3.8-7,2.1-9.4-19s9.4-7.8,14.2-16.7h0ZM176.9,261s4.6,4.3,9.5,6.2c0,0,6.5-2.2,11-6.2l6,13.7s-16.6,6-31.6,0l5.2-13.7h0Z"/>
    <path class="st3" d="M220.3,207.5v-19.8s-24.6-7.1-33.2-7.6c0,0-19.9,3.3-32.3,7.4v20h65.5Z"/>
  </g>
  <path class="st0" d="M188.4,183.6l.9,2.5h2.6l-2.1,1.7.8,2.5-2.2-1.5-2.2,1.5.8-2.5-2.1-1.6h2.6l.9-2.6h0ZM179.9,185.1l.9,2.5h2.6l-2.1,1.7.8,2.5-2.2-1.5-2.2,1.5.8-2.5-2.1-1.6h2.6l.9-2.5h0ZM171.1,187l.9,2.5h2.6l-2.1,1.7.8,2.5-2.2-1.5-2.2,1.5.8-2.5-2.1-1.6h2.6l.9-2.5h0ZM162,189l.9,2.5h2.6l-2.1,1.7.8,2.5-2.2-1.5-2.2,1.5.8-2.5-2.1-1.6h2.7l.9-2.5h0ZM196.9,185.1l-.9,2.5h-2.6l2.1,1.7-.8,2.5,2.2-1.5,2.2,1.5-.8-2.5,2.1-1.6h-2.6l-.9-2.5h0ZM205.6,187l-.9,2.5h-2.6l2.1,1.7-.8,2.5,2.2-1.5,2.2,1.5-.8-2.5,2.1-1.6h-2.6l-.9-2.5h0ZM214.7,189l-.9,2.5h-2.6l2.1,1.7-.8,2.5,2.2-1.5,2.2,1.5-.8-2.5,2.1-1.6h-2.7l-.9-2.5h0ZM214.7,198.3l-.9,2.5h-2.6l2.1,1.7-.8,2.5,2.2-1.5,2.2,1.5-.8-2.5,2.1-1.6h-2.7l-.9-2.6h0ZM204.5,198.3l-.9,2.5h-2.6l2.1,1.7-.8,2.5,2.2-1.5,2.2,1.5-.8-2.5,2.1-1.6h-2.6l-.9-2.6h0ZM194.3,198.3l-.9,2.5h-2.6l2.1,1.7-.8,2.5,2.2-1.5,2.2,1.5-.8-2.5,2.1-1.6h-2.6l-.9-2.6h0ZM183.3,198.3l-.9,2.5h-2.6l2.1,1.7-.8,2.5,2.2-1.5,2.2,1.5-.8-2.5,2.1-1.6h-2.6l-.9-2.6h0ZM172.4,198.3l-.9,2.5h-2.6l2.1,1.7-.8,2.5,2.2-1.5,2.2,1.5-.8-2.5,2.1-1.6h-2.6l-.9-2.6h0ZM162.1,198.3l-.9,2.5h-2.6l2.1,1.7-.8,2.5,2.2-1.5,2.2,1.5-.8-2.5,2.1-1.6h-2.6l-.9-2.6h0Z"/>
  <g>
    <path class="st1" d="M176.3,354.8c-9.9-10.8-17.9-26.4-22-34.8-19.6,8.9-37.3-.5-38.1-1h.2c-19.6-9.9-26-26-28.1-37.8-4.7-26.9,5.6-40.4,5.6-40.4,0,0,9.4,44.7,42.1,23.3l6.9,5.1c-.8.4-19.2,21.9-44.7,2.2.5,11,5.1,28.5,23.2,37.8h0c.6.3,16.3,8.5,32.4-1.7l5.5-3.5,2.6,6c.1.3,9.7,22.5,21.2,36,1.6,1.8,3.6,3,3.6,3,.7-.4,3.2-2.9,3.2-2.9,11.5-13.5,21.2-35.8,21.3-36.1l2.6-6,5.5,3.5c16.1,10.2,31.8,2,32.4,1.7h0c18.2-9.3,22.8-26.8,23.3-37.8-25.5,19.7-43.9-1.8-44.7-2.2l6.9-5.1c32.6,21.4,42.1-23.3,42.1-23.3,0,0,10.3,13.5,5.6,40.4-2,11.7-8.5,27.8-28.1,37.9h.1c-.8.4-18.5,9.8-38.1.9-4,8.3-12.1,24.1-21.8,34.9,0,0-5,5.5-10.3,8.8,0,0-5.1-2.9-10.6-8.8h.2Z"/>
    <path class="st1" d="M154.8,210.3h5.2v21.7s-4.4-5.4-5.2-21.7ZM164.6,210.3h5v38.1s-3.9-4.2-5-6.7v-31.4h0ZM174.6,210.3h5v48.1s-3.9-3.6-5-6v-42.1ZM219.6,210.3h-5.2v21.7s4.4-5.4,5.2-21.7ZM209.8,210.3h-5v38.1s3.9-4.2,5-6.7v-31.4h0ZM199.8,210.3h-5v48.1s3.9-3.6,5-6v-42.1ZM184.4,259.9v-49.6h5l.2,49.4s-.7,1.7-2.3,2.8c0,0-1.4.1-2.8-2.6h0Z"/>
    <path class="st1" d="M61.4,173.3l4.3,12.5,13.2.3-10.5,8,3.8,12.7-10.9-7.6-10.9,7.6,3.8-12.7-10.5-8,13.2-.3,4.3-12.5h.2ZM187.2,33.1s2.2,41.7,3.7,56.1c0,0,1.5,22.9,1.9,36.9h-12.2s2.2-27,3-36.9c0,0,2.2-31.4,3.7-56.1h0Z"/>
    <path class="st1" d="M41.8,152.3c-11.1,43.2,13.5,65.1,26.5,73.2,3-20.1,21.5-30.7,22.5-31.2l9.1,6.5c-29.8,15.5-20.1,42.2-20.1,42.2,0,0-23.7-9.7-35.7-23.8-29.2-34.2-12.1-73.6-10.7-76.6l8.3,9.6h0ZM317.9,185.8l-4.3-12.5-4.3,12.5-13.2.3,10.5,8-3.8,12.7,10.9-7.6,10.9,7.6-3.8-12.7,10.5-8-13.2-.3h-.2Z"/>
    <path class="st2" d="M341.5,142.7l-8.3,9.6c11.1,43.2-13.5,65.1-26.5,73.2-3-20.1-21.5-30.7-22.5-31.2l-9.2,6.5c29.8,15.5,20.1,42.2,20.1,42.2,0,0,23.7-9.7,35.7-23.8,29.2-34.2,12.1-73.6,10.7-76.6h0ZM299.8,112.9h.2c-1.4-.2-32-5.6-56.2,7-2-11-7-30.7-18-48-.1-.2-11.4-19.5-16.1-27.1h0c-.1-.3-18.8-29.4-22.6-44.6-3.8,15.3-21.4,44.3-21.5,44.5h0c-4.7,7.5-16,27-16.1,27.2-11,17.3-15.9,37-18,48-24.3-12.7-54.8-7.3-56.3-7h.2c-18.1,2.7-31.4,11.6-36,20.4h15.2c5.2-4.2,12.4-8,22.4-9.5h0c.3,0,34.1-6,55.2,9.7l7.9,5.9,1-9.8c0-.3,3.1-28.9,17.6-51.9.5-.9,11.9-19.4,16.4-27.6.8-1.3,7.3-13.1,11.7-27.5,4.5,14.4,12.4,26.2,13.2,27.5,4.5,8.2,15.9,26.7,16.4,27.6,14.6,22.9,17.6,51.6,17.6,51.9l1,9.8,7.9-5.9c21-15.7,54.8-9.8,55.2-9.7h0c10,1.5,17.2,5.2,22.4,9.5h15.9c-4.5-8.9-18.6-17.7-36.7-20.4h.1Z"/>
  </g>
</svg>