<?xml version="1.0" encoding="UTF-8"?>
<svg id="Layer_1" xmlns="http://www.w3.org/2000/svg" version="1.1" viewBox="0 0 1728 1045.3">
  <!-- Generator: Adobe Illustrator 29.6.0, SVG Export Plug-In . SVG Version: 2.1.1 Build 207)  -->
  <defs>
    <style>
      .st0 {
        fill: #003f87;
      }
    </style>
  </defs>
  <path class="st0" d="M720.5,1016.1c-6-6.4-33.6-3.1-30.7-13.9s34-32.3,38.7-34.2,19.7-2.9,22.3-5.3,4-16.3,9.5-22.5c12.8-14.6,53-34.7,70.3-49,17.2-14.4,5.7-4.4,6.8-7.5-30.7,8-62.5,9.1-93.7,13.5-18.8,2.7-39.5,11.5-59.4,8.2-10.2-1.8-51.7-19.9-51.9-30.9-.4-21.4,15.5-52.4,15-73.6s-15-84.2-19.2-85.1c-27.8,2.4-54.1-8-81.1-12.6-12.6,12.4-5.7,19.4-26.7,21.7s-37.6-3.5-60.8-12.2c-23.2-8.6-51.9-2.4-72.9-5.5-4.6,4.2,26.7,31.8,31.2,34,12.2,6.2,39.8,1.5,37.3,19,11.3-3.3,22.8-9.9,33.4-1.3,10.6,8.6,17.2,25,19.4,29.2,3.3,6.2,18.8,35.1,8,38-21.4-8-44.4-10.8-66.1-17.5s-7.5-5.5-12.6-7.3c-19.2-6.4-22.5-2-40.9-17.7-24.3-21-48.2-42.9-69.4-66.5-21.2-23.6-34.7-24.7-19.7-53.7h6.4c-9.9,33.1,22.5,19.4,10.6-1.1-11.9-20.5-11.3-5.5-10.6-12.6,47.1-6.4,93.5,8.6,140.3-2.2,2-.4,4.6,1.3,3.3-3.3-3.8-13-20.3-31.4-26.1-46.8-10.6-28.5,2.7-44.2,5.3-71.4l-118.2-116.2c-2.9-1.5-29.4,14.4-33.6,17.5-10.2,8-20.5,21.7-34.5,25.2s-47.9-6.8-53-1.1-.9,5.1-2.7,7.1c-5.1,6.2-28.1,12.2-35.3,5.5.7,7.5-7.7,12.6-14.4,12.4s-19.2-12.2-20.8-13.7c-7.7-7.1-9.3-21-24.5-20.8l8.8-19.9c-11.7,8.8-38,13.7-49.7,4.4s-14.6-21.7,0-24.3l5.7,5.3c1.1-11.3-7.5-9.5-12.2-14.4s-11.9-23.4-5.7-27.6c9.1-1.1,36.5-5.1,35.3,9.1-1.1,14.1-15.5,8.6-22.5,7.1s-4.4-4-4,1.8c5.7,9.7,19.2,1.3,23.4,12.4l7.1-2.9.9-19c11-3.8,20.1-11.7,25-22.3,4.9-10.6,3.8-16.3,7.7-21s25.4-13.9,33.1-19.9c11.7-9.3,20.8-21.7,24.5-36.2-1.3-1.5-26.3,20.8-33.1,14.4l63-40.9c8.2,7.3-9.9,10.8-12.2,15.5,9.9.9,24.7-7.3,29.6-15.7s3.1-13.5,8.8-19.9,26.7-19.7,28.3-20.3c13.5-5.7,23.4,1.5,28.9.2,10.2-2.4,25.6-34.5,23.6,9.1,12.4.7,24.7-6.6,35.3,3.3l-6.6,7.7,4.4,1.3-2.2,10.8-33.4.9c18.6,8.2,38.9,18.3,55.9,29.2s18.3,20.5,34.7,19.4c2.7-2-20.8-12.4-22.8-13.7-12.2-7.7-24.5-15.2-36.7-23s-9.7-4.6-9.1-9.7c17.9,6.8,35.8-6.4,52.4-6,23.9.7,25-3.1,47.3-8,22.3-4.9,26.3-6.8,28.3,0l-4.2,11.9c19-3.1,34.7,8.4,53,8.8,2.4,12.2-3.1,12.6-13.3,15.5l6.4,2.2v11c6.8,6.8,30.5-24.5,33.4-9.9,2.9,14.6-16.8,31.2-15.7,38.4-3.1,2.2-13.7-6.2-13,4.6,7.5,1.8,29.8,1.1,34.7,4.9,13,9.9-18.8,6.2-19.2,12.8,41.8,1.8,57.9,9.1,33.1,49.7,6.6,1.5,17.7-12.8,20.3-19.4,4.4-11.3,0-28.3,7.7-34.9s8-3.8,10.8-4.2c14.1-2,34.2.7,48.4-.7s13.9-3.5,21-4c-2.9-10.6-13-13.3-23.2-13.5s-9.3,2.7-13.3,2.4-9.5-6.4-15.9-6.6-14.4,10.8-30.3,6.2-4.9-5.3-7.1-5.5c-4-.4-15.2,6.4-23.9,5.5s-25.4-14.6-19-25.6,19.7-11.3,22.8-11.7c17.2-1.8,15.7,17.7,22.1,17.9s-4.6-22.5,4.4-22.1,8.6,8.8,13.3,15.5,27.2,19.2,30.9,13.5c6.4-10.4-12.6-26.1-6.4-46.2s14.8-2.9,25-10.4c-4.9-7.5-15-7.7-21-12.2s-9.5-12.4-15.5-17.7-27.2-16.1-32-21-2.7-4-2.2-7.7l11,2.2c-2-11.3-2-24.7.4-36,4.2-18.8,36.5-37.8,54.8-39.1v11c8.2,1.8,17,.7,24.5,1.1,14.6.9,31.8,1.3,47.1,3.3,15.2,2,12.8,5.5,15.7,5.5,4.4,0,9.5-7.1,17.5-6,8,1.1,6.4,6.2,11.3,6.8,11.5,1.5,18.1-4.2,35.8,1.5,7.5,2.4,17.5,10.8,19.7,11.3,3.3.9,7.5-2.2,12.4-1.5,17.2,2.7,38,34.9,45.7,49.5,11.7,2,25,.4,36,6,19.4,9.9,11.9,5.7,33.4,8.6,6,.9,12.8,5.7,16.1,6,5.3.2,11.3-9.5,17.2-10.6,11-2,29.4,2.4,39.3,0s2.9-8.8,9.3-8.8,7.7,4,13.3,4.4c20.5,2,42.2-2.9,61.9-2.2s39.3,10.8,51,9.9,14.6-7.1,21-8.8c21.9-6.4,65.8-8.2,89.5-8s23.6,4.9,35.3,4.9,22.8-5.5,26.5-.2c4,7.3-2.2,8.4-8.8,9.1-19.2,1.8-35.6-4.2-52.8-4.2s-11.7,2.9-17.9,2.9c-23.4,0-46.8-3.1-69.6,5.7-.4,3.8,5.1,2,7.7,2.2,31.2,1.1,62.3,3.5,92.8,4.6,8.6.2,37.6-6.4,42.2-.2,3.5,7.3-.7,7.5-6.8,8.8-47.5-3.1-98.8,0-145.6-4.2-17.2-1.5-35.8-9.5-53-11-17.5-1.5-56.1-2.2-72.9-.2-16.8,2-3.1,6.2-8.8,7.1s-9.5-3.5-13.5-4-32,1.8-36.2,2.4c-7.3,1.3-16.1,11-25.8,13.9-13.3,4-27.4,2.9-41.1,2.7-6.8,24.5-39.1,9.5-55,1.8s-6.6-6.6-11-8.8c-8-3.8-56.8-22.5-56.8-27.2l6.6-7.7c-5.5,0-8,4.6-14.1,4.4-9.3-.4-21-9.3-30-11,21.7,17.7,35.6,32.9,35.3,63,0,30-24.5,24.5-35.3,40.9l38.4-24.1c4.2.9,11.5,16.1,15.7,19.7s21.2,15,22.5,15.5c6.2,1.3,12.4-1.5,18.3-1.1,13.5.9,25.2,11,34.7,11.7s23.6-4.6,32.3-1.5,2,10.2,9.1,10.8,30.9-5.7,32-4.6c0,6,1.1,9.7-5.5,11s-33.4.9-42,0-18.8-6-28.7-6.6-23.2,2.2-34.2,4.6c4.4,11.7,5.1,22.8,4.4,35.3l10.2-19.7c4.9-9.9,17.2-8,16.3,2.9s-10.2,19.4-11,27.8c9.5-3.8,7.5-15,17-17,24.3-5.5,49.3-2.2,73.6,1.8-.7,20.3.9,40.7,4.4,60.8,3.5,20.1-.9,7.3,3.3,9.9,5.1-16.3-11.9-55.2-2.2-68.5s24.7-8.4,30.3-9.5c53.9-12.4,106.3,2.9,151.3,33.4,45.1,30.5,47.3,50.6,106.3,61.6,80.2,15,119.7-34,189.1-27.8,24.3,2.2,50.8,16.3,73.1,17.5,33.4,1.8,79.5-13,117.3-11.3,7.3.4,29.2,5.1,34.9,8.8s9.5,15.5,13.7,20.1,14.4,10.2,18.8,17.7v8.8l-19.9-13.3c.4,6.4,0,17.5-8.8,17.7l2-19.7-24.1-4.6c1.1,4.2,7.7,4,9.9,8.8s1.3,7.3,1.1,11l-17.7-11c6.2,11.9,13.5,23,3.3,35.3s-6.2-6.2-8.2-9.5c-5.5-9.3-9.5-14.1-21.7-12.6,3.8,4.6,9.3,6.8,13.3,12.2s4.9,6,4.4,8.8c-1.3,9.3-12.4-8.6-15.5-5.5,9.3,17,3.1,23.4-8.8,6.6,0,6.6,4.2,11,1.1,17.7s-15.2,12.4-17.7,13.3c-4,1.5-2.9-1.1-3.3-3.3s0-21-3.3-21c-4,12.8-9.5,27.2-22.1,13.9l-11,8.2c-7.1-4.9,3.5-11.7,3.3-17.7-6-8.4-63.4,10.6-75.1,11,2.2,5.1,11,7.5,3.3,13.3l-14.4-6.6-2.4,10.8-15.2-2,2.2,8.8-16.6-8.8c-1.3-.4-.7,4.2-2.4,4.6-8.8,2-26.5-12.2-37.3-11.3l-36.2,6.6h33.1v6.6h-34.2c-5.3,0-44.6-19-51.9-23.2s-16.1-14.6-24.3-13.3l4.4,9.9h-11c.9,4.2,6.2,2.7,8.4,8.2s2,8.8-2.9,7.3l-25.4-18.8-19.9-23.2v49.7c0,10.8-11,23-18.8,29.8-21.7,19.4-68.7,55-95.4,63.6s-31.4-1.1-31.6,21.4c0,23.9,14.6,64.7,21.9,88.4,7.3,23.6,14.1,15.9-.9,29.8-15,13.9-43.1,11.9-57.4,13.3s-31.6,3.3-37.6,2.2c-6-1.1-6.2-6.4-13.3-6.8s-11,2.4-16.1,2.9c-1.8,1.3-4.9,25-5.1,29.2-.4,16.3,5.1,26.5-1.8,42.4-7.1,16.8-31.8,22.8-47.1,32.5-23.6,14.8-59.2,43.1-78.2,63.2s-31.6,44.2-34.2,45.3c-8.6,4.2-32-2.4-33.1-1.1l-2.9,19.2-36.9,9.5h-22.1.2ZM598.9,150.1h42l-6.6,18.8,10.6,15.5-12.8,6.6c15,7.5,8,19.7,9.9,25.6,2,6,12.2,12.4,13.7,12.8,2.9.7,13.7-2.2,19.4-2s11.7,2.2,17.7,2.4c6,.2,4,.7,3.3-2.2-13.3-9.9-32.7-3.3-44.2-16.6,9.9-11.7,28.7-2.4,42-1.1-4-12.4-42.6-7.1-44.2-8.8l.9-6.8,25.6-2.2-27-15.5c-4.2-4-7.5-9.9-5.7-16.1s10.2-3.8,8.4-10.4c-15-4.4-30.7-9.7-46.4-6.6,2.4-23.6,37.1-2.9,49.5-6.4l3.5-11c-15.7-5.5-8.6-.2-11.5,3.8-5.3,7.5-24.7-7.5-37.8-3.3-13,4.2-16.8,19.7-10.4,23.9h0v-.2ZM260.9,247.3c25.4,2.2,38.7-17.9,44.2-39.8-15.9,4.9-14.1,21-23.2,30.9l-3.5-6.2c-6.6-4-18.3,14.4-17.5,15ZM912.7,214.1h30.9c2.2-6.8-9.9-4.6-14.4-4.4s-14.8,0-16.6,4.4ZM262.2,266c-2.2,1.5-6.4,6-8.8,5.3-11.3-9.5-3.1-21.7-2.4-33.1-9.1,11-7.5,33.6-1.1,45.3,0,6-16.6,16.3-21,21-24.5,24.5-59.9,69.8-86.2,88.4-26.3,18.6-13.7,0-18.8,1.1-11.3,1.5-14.4,13.7-10.8,23.4,2.7,2.4,18.3-12.6,22.1-8.8s-8.8,10.2-10.8,12.2c-7.7,8.4,0,43.7,15.5,37.3-17-6.4-3.5-20.8-8.8-33.1l3.3-3.1c13.5,4.9,7.7-6.4,10.8-13.5s17-19.4,19.7-22.3c31.2-32.5,66.9-61.4,98.3-93.9,5.5-9.5,8-18.8,6.6-29.8-6.6-1.8-5.7,2.2-7.5,3.3v.4h0ZM724.9,251.7c.7-3.5-.9-4.6-3.5-6.4-7.7-4.9-36.7-4.9-47.3-6.8,0,2.9,8.4,5.7,10.4,6.2,7.5,1.3,15.2-.4,22.8,2.7l-6.6,7.7c5.3,6.2,14.6,9.7,8.8,18.8,14.4-2,0-14.4,4.6-21.9h10.8v-.2ZM420,311.3c-11-4.9-25.2-10.6-35.3-16.6s-16.6-12.4-23.4-16.3-38.4-22.5-44.4-24.1-13.3-1.1-15.7,5.3,11.9,7.3,10.8,16.1c-1.3,1.1-35.1-15.2-22.3,5.7,12.8,21,26.5-.7,43.1,1.1,16.6,1.8,43.1,23,49.3,23.9s4.9-4,8.2-3.8c8.2.4,24.3,19.9,30.3,8.4h-.4v.2ZM705,271.6c-13-9.5-18.8-13-35.3-13.3l11,16.6c-11.9,20.1-23.4-27.8-41.8-10.8l7.5,16.3,6.6-4.4c8.2,5.7,18.1,8.8,28.3,8.6,5.5-2,6.4-7.3,6-12.8,1.5-1.8,16.3,6.2,17.7,0h0v-.2ZM223.4,267.2l-24.3,9.9c8.8,8.8,22.3,0,24.3-9.9ZM179.2,329l5.1,4c6.2-.9,27.4-25.6,27.6-32,0-10.6-11.5-4.2-15.7-5.3s-4-8-8.2-8.6l-1.3,11c6.2,4.4,11.5,3.1,18.1,2.4s3.8-.9,3.1,3.1c-.9,8.6-20.8,21-28.7,25.4h0ZM501.7,298.1c-27,2.2-53.7,13.7-78.4,24.1-24.7,10.4-6.2,4.9-9.3,6.2-20.5,9.3-43.7,15-60.3,31.4l148-61.9h0v.2ZM714.7,317.1c-4-4.9-6-10.8-9.5-15.9l-22.3,2.2c7.3,7.7,8,18.3,15.5,26.5s19.7,18.6,25.4,23.2,10.6,8.4,12.2,6.6l-2.7-28.3c-7.3-1.8-13.9-8.6-18.8-14.4h.2ZM309.5,311.3c-11.5-3.3-12.6,11-15.5,19.9,3.8-.7,17.7-17.9,15.5-19.9ZM793.4,318c-5.3-5.3-33.4,12.2-37.3,8.6s2.2-8.4-3.3-6.6c-11.3,4-9.1,32.9-4.4,33.1l33.1-22.1c2.9-.7,5.5,2.7,5.5,5.5,0,7.5-27.8,19.4-34.2,27.8s-9.3,23-13.5,32.9c-8.4,19.2-31.8,66.3-29.6,84.8s4.2,14.6,5.7,20.5,9.3,31.4,15.5,33.1l22.8.4c0-14.8-16.1-8.4-17-25.8-.9-17.5,9.1-13.3,10.2-17.7,4.6-19-20.1-2.9-15.5,12.4l-5.3,2.4c-9.1,0,3.5-35.3,6.6-39.8,8-10.4,34.5-8.6,27.6-33.1-10.8-1.8-10.6,11.7-15,19.2-8.2,13.7-11.9,6.8-8.2-6s11.3-25.4,12.6-26.3c2-1.3,26.5,3.5,30.7-8-5.1-5.1-15.9,4-18.8,3.3l-3.3-5.5c3.5-10.4,30.9-12.4,32.9-17.9,6-17.2-20.8,0-27.4,1.3s-6.4,1.3-5.3-3.1c12.2-15,32-17.5,46.4-28.7-4.9-1.5-14.6,1.3-19,3.1s-20.3,15.7-20.8,5.7,35.3-30.5,42-35.3c-2.4-4.2-10.2-6.2-12.2-9.9s-.7-8.2-1.1-8.6h-.4,0ZM548.1,475.9c2.4-15-1.8-36.2,0-51.9-3.3.4-5.3,8-6,10.6-2.2,8.2-1.5,51.7-12.6,49l-5.1-5.5c11.3-16.8,3.3-38,6.6-57,3.3-19,16.3-25.8,23.9-39.1l-18.8,17.7c-22.5,20.3-8.6,50.4-17.2,73.3s-21,20.8-18.3,32.7c2.7,11.9,12.8,21.7,15.7,30.9s1.5,18.8,3.8,21.7,11,4.9,15,8.2c10.4,8.8,25.8,42,40.7,16.6s13.3-45.5,12.4-71.8c-.9-26.3-7.7-35.1,6.6-26.5,14.4,8.6,3.5,48.8,4.2,59.9.7,11,3.5,20.1,4.4,29.8h40.9l16.6-4.4c-7.7,0-72.7,6.2-55.2-14.4,17.5-20.5,12.2,1.5,11-20.1-2.7-49.7-13.5-97.7-12.6-147.6s2.9-8.4,2.9-13.3-6.8-42.6-10.2-44.6c-6.4-2.9-9.7,6-9.1,11l13.5,106-5.5,5.5-13.3-26.5c-1.8-3.5-5.1-.7-5.5,1.1-1.8,7.7,8.4,22.5,8.4,30.7,0,12.4-13.3,40.9-15,59.7-1.8,18.8,4.6,37.6-8,38.7s-3.8-32.9-12.2-42c-8.8-.9-2.7,11.5-12.2,13.3-9.5,1.8-15,0-16.1-8.2-2-13.5,23.4-27,26.1-43.7h0l.2.2ZM543.7,344.5l-30.9,4.4c9.3,2,20.3,1.5,27.6,8.8,4.6-3.1,3.3-8.2,3.3-13.3ZM452.7,347.1c-4-2.4-32,8.4-30.5,13.9l37.6,18.8-15.5-18.8,13.3-5.5c-1.3-1.5-4.2-8-4.9-8.4ZM925.9,513.5v-34.2c5.7-.9,4,.9,5.3,4.4,5.7,14.1,2.7,33.4,4.6,48.6l-63.2,1.1-8.8-62.1,3.8-7.5,9.7.9c-4.6-8.6-22.3-15.7-26.1-22.5-6-10.4,2-25.4-7.1-31.6-2.7,20.1,4.6,39.3,6.6,58.5s2.7,44.8,4.4,66.3c1.8,21.4,1.5,6.6,2.2,9.9,3.3,3.1,4,0,4.4-3.3.7-4.9.4-12.8,0-17.9-1.3-20.8-7.5-45.5-8.8-66.3s-2-8.8,3.3-7.7c7.5,12.4,4,30,5.5,43.1,1.5,13,8.6,33.6,6.6,49.7,26.1,2.4,50.6-4.9,76-8.6l11.3,15.2c6.4,0,3.5-32.5,3.3-38.7-1.8-42.2-8.6-82.2-13.3-123.7s-1.1-23.2-2.2-34.2l-8.8,3.3c10.8,13.9,7.5,36.2,8.8,53,.7,8,6.6,28.9,3.3,34.5-8.6,0-11,3.5-16.6,9.7l8.8-1.1v5.5l-30,27.4-25.2-12.8c4.9,8,25.4,13.7,21.9,25-.9,3.1-5.5,5.1-5.7,7.1-1.1,12.4,23.6,15.9,25.8,8.8h0v.2ZM1027.6,446.1c-10.6,4.6-11,18.8-16.6,26.5s-7.5-7.1-7.7-9.9c-3.1-26.5,12.6-30.5,16.8-47.5,2.7-11-13-15.9-19-23.2s-11-25.6-15-13c-7.3,22.8,21.2,25,21.9,43.7,0,8.2-7.5,17.9-8.8,26.7s2,19.9.4,27c-1.5,7.1-15.7,24.3-17.9,35.1-2.2,10.8,1.5,23.6-.9,32.3s-11.5,12.2-14.6,18.6c-13.7,27.6,3.8,31.4,11,52.1,7.3,20.8,0,24.3,12.6,13.7-3.3-8.4-10.2-22.5-10.8-31.2-2.2-28.3,40.2-47.5,42-79.3s-3.5-4.2-7.3-2.9c-6.8,2.4-11.5,14.8-21,2.9,10.6-25.8,40.7-38,34.7-71.8h0l.2.2ZM209.7,439c.4,0,3.5-6.4,7.3-9.3,18.6-14.1,43.1-23.9,60.3-36.9s4.4-3.1,3.5-7.5c-2.7-3.5-2.7-3.3-6.6-2.4-9.3,2.2-20.8,10.4-30.3,13.9-31.2,11.7-64.1,19.4-95.4,30.5l-11.3,19.7c9.9,8.4,15.9-6,26.1-7.3s11.3,5.3,15.2,6,11.5-4.9,15.7-5.7,12.8.4,15.5-1.1h0v.2ZM442.1,424c-5.5-8.6-19.9-8.4-27.6-13.3s-15.7-19.4-20.8-27.8l-11.3,1.1c13.5,25,29.2,40.9,59.7,39.8h0v.2ZM657.5,525.6h34.2c.7,0,4.9,9.5-3.3,11-8.2,1.5-42.2.4-50.2-2.7-17-6.8-3.5-52.4-.7-52.4l8.8,6.6c4.9,1.5-8.4-21.2-9.9-23.2-2.9-3.5-8.4-5.3-9.9-7.7-4.9-8.2-1.8-26.5-5.5-36l-6.6-1.5,15.7,125.7c22.8,2.9,45.3.4,68.3,0,2-8.4-2.7-17.9-2.4-25.4s4.9-9.9,4.4-19.7c-.9-17.5-17.2-29.4-15.2-40s15-13.3,17.2-22.8-4.2-20.8-.7-31.6c3.1-4.6,12.6,3.5,16.6-5.3,0-3.5-15.5-3.8-19.4-4.9-8.4-2-10.2-7.5-23-2.9s-3.1,9.7-15.9,8.6-11.3-5.5-16.8-7.7-13.5-.7-18.8-7.3c-8,6.4-15.7,13.7-8.6,24.1h61.9l14.1-4.6c-1.3,9.5,3.1,17.7,1.8,27-2.2,15.2-16.3,15.5-17,31.6l-9.1.9c-6.6-18.8,15.7-19.4,13.3-34.2-2.4-14.8-18.6-1.3-21,5.5l-8.8-6.4c-4.2,2.7-8.6,11.5-7.3,15.9s4.6,4.2,5.1,6c2,6.2.4,15.7,6.6,19.9s25,1.5,32.3,12.2c-5.5,17.9-18.1,16.6-33.4,11.9-1.1,10.2-5.1,20.1,3.3,28.7v.7ZM236.6,432.8c26.5,2.4,47.9-21,70.7-32-3.8-6-9.1,1.3-13.7,1.8l-57,30.3ZM833.1,490.3v-32c0-.4-6-5.3-7.1-8.4-6.6-16.1,7.3-32.7,9.5-46.8s0-3.8-3.3-3.3l-43.1,116c4.9.7,8.8-5.1,14.1-5.1s15.9,10.4,16.6,12.2c.7,15.5-.9,34.9,20.3,31.6.9-.9-3.3-23.6-4.9-27.2-7.5-15.7-40.4-28.5-24.7-54.6,15.7-26.1,16.1,25.4,23,17.5h-.4v.2ZM928.1,404.1c-24.7-5.3-50.2-.7-75.1,0,4.9,9.9-2.4,25,3.3,35.3s21.7,15.7,25.4,18.8,3.3,5.7,6,8,17.9,11,19,10.8l16.8-15.2-9.5,2.4c-6.2-12.6-13-10.8-22.8-2.7l-2.9-.7c-4-6.6-25.4-18.6-27.6-23.4s-3.8-26.5,4.4-26.5c18.6-1.8,41.8,0,59.7-2.2s6.6-1.3,3.3-4.4h0v-.2ZM1593.1,426.2c-25.8-5.1-56.6,9.5-80.4,8.8-44-1.1-68.7-31.6-123.9-15.7-56.3,16.3-76.9,29.6-139.2,28.9-2.7,0-8.2-1.8-7.7,2.2,27,13.5,54.3,14.4,82.8,4.6s27.2-17.9,49.7-6.6l-4.4-11c43.1-17.2,78.2,23.6,121.5,19.9l-56.1-21.9-1.3-6.8c30.9,2.2,60.1,14.6,91.7,11l67.4-13.3h0v-.2ZM970.1,510.2c-1.3-14.1-1.1-29.2-2.2-43.1-1.1-13.9-.9-11.7-4.4-12.2,0,16.6,0,35.6,2.2,51.9s1.8,6.8,4.4,3.3ZM459.8,543.3c-5.3-.7-3.5,0-4.6,3.1-2.7,7.3-2.9,16.1-6.4,23.4,22.8,0,30.3,26.7,50.8,24.3.9-13.3-13.3-13.5-20.8-17.9-10.8-6.8-13-22.3-19.2-32.7h.2v-.2ZM727.1,558.8c-3.1-.7-5.3.7-6.2,3.8-4.4,13.5,7.1,28.9,11,41.3l10.6,19-15.5-64.1ZM729.3,631.7l-20.1-45.1-8.6-3.5c-3.5,3.3,18.6,43.5,22.1,49.9l6.6-1.3ZM680.5,627c5.7-18.6-21-25.8-35.1-29.6-14.1-3.8-37.6-10.4-39.5.4s10.6,32.5,12.4,35.6c3.3,5.3,7.5,7.7,13.7,7.3,2.9-11.3-5.5-16.8-6.6-26.5,20.5.4,31.6,23.9,55,13h.2v-.2ZM775.7,633.9l-6.6-22.1c-1.5,7.5-9.3,15.2-8,23.2s10.8,12.6,12.4,13.3c4.4,2.2,19.4-13.9,19-16.8-1.8-1.8-10.2-24.3-14.6-19.9,2,1.8,4.6,28.9-2.2,22.1h0v.2ZM574.6,669.2c2.4-15.5-15.9-24.1-25.4-33.1-6.4-6-10.6-12.8-16.6-19l-42,5.5c1.5,3.8,13.5,6.4,16.8,6.4,5.1,0,9.1-2.2,13-2.2,13.5,0,31.2,46.6,53.9,42.2h0l.2.2ZM881.7,799.6v-30.9l17.7,6.6c2.4-17.2,22.5-18.6,36.5-19.9,13.9-1.3,26.1,2.4,27.4-3.5l-3.5-7.5c-14.6.9-29.4-.9-44,0-14.6.9-25,1.8-29.8,3.3-10.4,3.3-17,22.8-28.7,26.5-11.7,3.8-16.1,0-19.9,2.2s-8.2,25.2-21.9,28.9c-13.7,3.8,4.4-15.7,6.2-18.3,2.9-4.4,4.9-14.1,8-16.3,5.5-4.2,15.7,0,24.3-4.4,8.6-4.4,14.8-20.3,23.6-25s30.7-2,43.7-6c2.4-10.8,10.2-23.4,10.8-34.5.7-11-6-17.9-6.2-26.1-.4-11.9,9.1-24.3,5.7-36.5l-90.8,50.6c-16.3,1.1-9.1,8-15.5,13.3-6.4,5.3-12.2,6.2-13.7,6.4-8.8,1.5-7.7-6.4-24.1,2.2-24.7,12.8-44.2,36-73.1,42.9l-8.6,93,4,14.4c25.6,2.7,51.3-7.3,75.3-15.7,6.8-2.4,14.6-8.4,21.4-9.7,11.7-2,20.3,5.7,24.3-14.1l-27.8-2-.9-6.8h61.9l-2.2-15.5,19.9,2.2h0v.2ZM771.3,704.6c2-19.7,1.8-48.6-17.7-59.7,1.8,12.2-3.1,13.7-13.3,16.6l30.9,43.1ZM505.9,688.9c5.5-8-10.8-17.7-18.6-17.7-13.7,0-18.1,11-27,13-8.8,2-55.9.9-55.9,3.8,13.5-1.3,97.9,6.2,101.4.9h0ZM649.8,671.5c-4.2-.9-6,.7-9.1,3.1-18.1,14.6,6.6,63.8,10.2,83.1,13-21.9,3.5-44.8,5.5-68.5-6,2.2-6.8,7.5-6.8,13-11.3,2.9-10.2-4.6-7.7-13.3s8.6-10.4,7.7-17.7h0l.2.2ZM800,693.5c6.6-4.2,25-7.5,14.4-17.7-8.4,1.8-14.8,8.8-14.4,17.7ZM760,713.2c1.1-1.5-14.1-27.6-16.6-30.5s-3.5-5.3-7.5-4.6v25.2c1.8,4.2,14.6,4.9,13.3,11.3s-11-.4-13.3,0c-6.2.9-34.9,20.8-28.5,27.8,19.9-4.6,36-18.3,52.8-28.9h0l-.2-.2ZM1015.4,685.2c-4.2,1.5-7.5,3.5-9.5,7.7s-7.5,28.1-8.6,33.6c-2.4,13.5,31.4-3.3,34.2-10.2,1.5-5.3-11.9-30.9-16.3-31.2h.2ZM1036.4,739.9c14.6-4.2,29.6-8,22.1-26.5l-22.1,26.5ZM663,872.5c-7.1-28.3,8.2-55.5,6.6-84l-18.8,55.2-2,26.7,14.1,2ZM899.4,795.2l-6.6,1.5c-2,10.6-5.3,18.6-17.7,16.1-2.4,8.4,11.3,14.6,16.6,8.8l7.7-26.5ZM685.1,852.6c-8.2,1.5-16.3,8.6-15.5,17.7,4.9,0,13.3,5.1,16.8,0l-1.3-17.7Z"/>
  <path class="st0" d="M552.5,26.3c6.4,6.2,7.5,21.7,15.5,25.4s17.5-4,26.5,1.1c0,10.8-8.6,11.5-17.7,11,2.2,8,18.3,1.5,19.9,7.7s-9.9,6.2-13.3,5.5c1.1,4.6,6.8,3.8,9.9,6.6,7.1,7.1,0,15.2-3.3,22.1,1.5,1.3,23.4-11.5,28.1-12.8s11.9-2.2,9.5,2.9c-7.3,5.1-17.2,8-24.1,13.5s-4,7.5-6.6,8.6-5.5-1.8-6.4-.9-5.3,14.6-8.4,15.5-8.8,1.3-7.3-3.3l13.3-19.9c-5.5-2.7-15,11.9-18.1,17.2s-9.3,24.1-10.6,25c-2.9,2-7.5-1.1-11.3-.4s-10.6,6.6-16.6,7.3c-2.9-.2-13-17.7-18.8-20.3s-14.1.4-16.8-3.1l-5.3-35.6c6,3.1,10.4.7,15,.7,17.2,0-3.8,13-4,14.1-1.1,4.4.7,11.3,0,16.1h6.6l-2.2-8.8h11v11l9.7-2,2.9,4.9-.7,8.2c2.9,12.2,24.3-7.5,25.2-10.2,3.3-9.5-.4-24.1-9.9-29.4-17.5,5.3,3.8,21.7-6.4,30.7l-16.6-14.4c11.9-13.3.9-16.6-2.2-29.8,15.5-1.5,21-4.2,28.7-17.7-16.8-6.6-59.4,31.8-68.7,29.8s-8.8-18.1-8.6-25.4c7.7-2,11.3,15.2,14.4,15.5l36.5-22.1c-9.3,1.8-38.2-11.7-44.2-7.7s-1.3,8.4-7.5,5.5-5.1-7.7-4.9-9.9c.9-7.5,15.5-4.4,21.2-6.6s10.4-9.1,14.8-11.7c8.8-5.1,18.6-8.4,27.2-13.7h24.5v-.2ZM495.1,57.3c9.3,0,21.7,8.4,30,2.4,6.4-5.3-1.1-18.6-8.6-17.5l-21.4,15h0Z"/>
  <path class="st0" d="M35.6,366.6c7.1-11.7,21.2-9.9,31.8-15.7,10.6-5.7,44.8-41.8,49.9-37.1-4.9,13-19.9,18.6-29.8,26.5s-12.2,14.4-18.1,17.5-25.8-1.1-29.2,12.8c-3.3,13.9,4.6,14.6-4.6,9.3v-13.3h0Z"/>
  <path class="st0" d="M686.9,104.1l.4,8.4-29.6,1.8c-3.3-2.7-23.2-19.4-19-23.9,7.7-.9,12.4,7.3,19.4,8.4s10.2-2.2,14.4-1.5,8.8,6.8,14.4,6.6h0v.2Z"/>
  <path class="st0" d="M610,242.8l-15.5,16.6c-2,2.9-6.2-.7-6.6-2.2-2.2-8.4,14.4-17.7,22.1-14.4Z"/>
  <path class="st0" d="M583.5,247.3c-4.4,7.3-6.8,17.7-17.7,15.5-1.5-10.4,8.4-19.4,17.7-15.5Z"/>
  <path class="st0" d="M574.6,169.9l-6.8-1.3c-7.7-28.3,11.3-27.4,6.8,1.3Z"/>
  <path class="st0" d="M859.6,793c-1.8,1.8-20.8-8-15.5-13.3s19,6.4,15.5,13.3Z"/>
  <path class="st0" d="M996.6,541.1c2.4,2.9-10.8,38.2-21,35.3s17.2-39.5,21-35.3Z"/>
</svg>